# Blender 4.5.3 LTS
# www.blender.org
mtllib CharacterPrototype.mtl
o Cube
v 0.000000 0.574115 0.491544
v 0.000000 0.574115 -0.331544
v 0.033749 1.525691 -0.331544
v 0.033749 1.525691 0.491544
v 0.000000 1.525691 -0.331544
v 0.000000 1.525691 0.491544
v 0.538073 1.383122 -0.180093
v 0.538073 0.590377 -0.168121
v 0.538073 0.590377 0.123465
v 0.538073 1.383122 0.135437
v 0.033749 0.574115 0.491544
v 0.033749 0.574115 -0.331544
v 0.033749 1.972842 0.874711
v 0.000000 2.251540 -0.641544
v 0.033749 2.251540 -0.641544
v 0.000000 1.972842 0.874711
v 0.538073 0.779388 -0.197150
v 0.538073 0.779388 0.152494
v 0.033749 1.771691 -0.612966
v 0.033749 1.525691 -0.381300
v 0.000000 1.771691 -0.612966
v 0.000000 1.525691 -0.380169
v 0.000000 1.525691 0.565013
v 0.000000 1.770811 0.853749
v 0.631031 1.770811 0.853749
v 0.606360 1.525691 0.562260
v 0.877797 1.771698 0.603560
v 0.033749 1.770811 0.853749
v 0.033749 1.525691 0.564338
v 0.625590 1.771691 -0.612966
v 0.872232 1.771964 -0.368578
v 0.602976 1.525691 -0.384785
v 0.033749 2.977389 -0.359246
v 0.033749 2.731254 -0.617842
v 0.000000 2.977389 -0.359246
v 0.000000 2.731254 -0.617842
v 0.000000 2.731140 0.845248
v 0.000000 2.977389 0.589245
v 0.619060 2.731140 0.845248
v 0.865765 2.731076 0.601199
v 0.611564 2.977389 0.589245
v 0.033749 2.977389 0.589245
v 0.033749 2.731140 0.845248
v 0.622104 2.731254 -0.617842
v 0.611564 2.977389 -0.359246
v 0.868741 2.731188 -0.368695
v 0.889669 2.206140 -0.394543
v 0.643036 2.251540 -0.641544
v 0.889669 2.018003 0.629013
v 0.642961 1.972842 0.874711
v 0.690531 1.315599 -0.114362
v 0.619373 1.383122 -0.180093
v 0.709823 0.657834 -0.110080
v 0.637551 0.590377 -0.168121
v 0.709823 0.657834 0.065424
v 0.637551 0.590377 0.123465
v 0.690531 1.315599 0.069706
v 0.619373 1.383122 0.135437
v 0.713495 0.711932 -0.118389
v 0.650380 0.779388 -0.197150
v 0.714605 0.846911 -0.127604
v 0.714605 0.846911 0.082948
v 0.650380 0.779388 0.152494
v 0.713495 0.711932 0.073733
v 0.033424 0.574115 0.278083
v 0.098838 0.574115 0.343493
v 0.033567 0.574115 0.408650
v 0.098814 0.574115 -0.213898
v 0.033424 0.574115 -0.148695
v 0.033604 0.574115 -0.279054
v 0.469835 0.574115 0.343493
v 0.535216 0.574115 0.278083
v 0.536473 0.574115 0.408638
v 0.535216 0.574115 -0.148695
v 0.469857 0.574115 -0.213898
v 0.536798 0.574115 -0.279035
v 0.057205 0.064855 0.270497
v 0.130654 0.000228 0.276099
v 0.122602 0.065147 0.335699
v 0.057644 0.064910 -0.130415
v 0.123000 0.065336 -0.195630
v 0.130654 0.000228 -0.127943
v 0.452844 0.065336 -0.195630
v 0.518177 0.064963 -0.130418
v 0.445623 0.000228 -0.127943
v 0.518591 0.064915 0.270491
v 0.453220 0.065147 0.335699
v 0.445623 0.000228 0.276099
v 0.104957 0.202575 0.323935
v 0.039533 0.204004 0.258595
v 0.469826 0.202575 0.323935
v 0.535216 0.204004 0.258594
v 0.469849 0.214065 -0.201411
v 0.535216 0.212638 -0.136158
v 0.104932 0.214065 -0.201411
v 0.039533 0.212638 -0.136159
v 0.538073 1.525691 -0.264691
v 0.471221 1.525691 -0.331544
v 0.589760 1.525691 -0.373944
v 0.471221 1.525691 0.491544
v 0.538073 1.525691 0.424691
v 0.584512 1.525691 0.539634
v 0.471221 0.574115 -0.331544
v 0.538073 0.580768 -0.264691
v 0.538073 0.574115 -0.264691
v 0.536798 0.574115 -0.279051
v 0.538073 0.577069 0.424691
v 0.471221 0.574115 0.491544
v 0.536783 0.574115 0.424704
v 0.538073 0.574115 0.424691
v -0.033749 1.525691 -0.331544
v -0.033749 1.525691 0.491544
v -0.538073 1.383122 -0.180093
v -0.538073 0.590377 -0.168121
v -0.538073 0.590377 0.123465
v -0.538073 1.383122 0.135437
v -0.033749 0.574115 0.491544
v -0.033749 0.574115 -0.331544
v -0.033749 1.972842 0.874711
v -0.033749 2.251540 -0.641544
v -0.538073 0.779388 -0.197150
v -0.538073 0.779388 0.152494
v -0.033749 1.771691 -0.612966
v -0.033749 1.525691 -0.381300
v -0.631031 1.770811 0.853749
v -0.606360 1.525691 0.562260
v -0.877797 1.771698 0.603560
v -0.033749 1.770811 0.853749
v -0.033749 1.525691 0.564338
v -0.625590 1.771691 -0.612966
v -0.872232 1.771964 -0.368578
v -0.602976 1.525691 -0.384785
v -0.033749 2.977389 -0.359246
v -0.033749 2.731254 -0.617842
v -0.619060 2.731140 0.845248
v -0.865765 2.731076 0.601199
v -0.611564 2.977389 0.589245
v -0.033749 2.977389 0.589245
v -0.033749 2.731140 0.845248
v -0.622104 2.731254 -0.617842
v -0.611564 2.977389 -0.359246
v -0.868741 2.731188 -0.368695
v -0.889669 2.206140 -0.394543
v -0.643036 2.251540 -0.641544
v -0.889669 2.018003 0.629013
v -0.642961 1.972842 0.874711
v -0.690531 1.315599 -0.114362
v -0.619373 1.383122 -0.180093
v -0.709823 0.657834 -0.110080
v -0.637551 0.590377 -0.168121
v -0.709823 0.657834 0.065424
v -0.637551 0.590377 0.123465
v -0.690531 1.315599 0.069706
v -0.619373 1.383122 0.135437
v -0.713495 0.711932 -0.118389
v -0.650380 0.779388 -0.197150
v -0.714605 0.846911 -0.127604
v -0.714605 0.846911 0.082948
v -0.650380 0.779388 0.152494
v -0.713495 0.711932 0.073733
v -0.033424 0.574115 0.278083
v -0.098838 0.574115 0.343493
v -0.033567 0.574115 0.408650
v -0.098814 0.574115 -0.213898
v -0.033424 0.574115 -0.148695
v -0.033604 0.574115 -0.279054
v -0.469835 0.574115 0.343493
v -0.535216 0.574115 0.278083
v -0.536473 0.574115 0.408638
v -0.535216 0.574115 -0.148695
v -0.469857 0.574115 -0.213898
v -0.536798 0.574115 -0.279035
v -0.057205 0.064855 0.270497
v -0.130654 0.000228 0.276099
v -0.122602 0.065147 0.335699
v -0.057644 0.064910 -0.130415
v -0.123000 0.065336 -0.195630
v -0.130654 0.000228 -0.127943
v -0.452844 0.065336 -0.195630
v -0.518177 0.064963 -0.130418
v -0.445623 0.000228 -0.127943
v -0.518591 0.064915 0.270491
v -0.453220 0.065147 0.335699
v -0.445623 0.000228 0.276099
v -0.104957 0.202575 0.323935
v -0.039533 0.204004 0.258595
v -0.469826 0.202575 0.323935
v -0.535216 0.204004 0.258594
v -0.469849 0.214065 -0.201411
v -0.535216 0.212638 -0.136158
v -0.104932 0.214065 -0.201411
v -0.039533 0.212638 -0.136159
v -0.538073 1.525691 -0.264691
v -0.471221 1.525691 -0.331544
v -0.589760 1.525691 -0.373944
v -0.471221 1.525691 0.491544
v -0.538073 1.525691 0.424691
v -0.584512 1.525691 0.539634
v -0.471221 0.574115 -0.331544
v -0.538073 0.580768 -0.264691
v -0.538073 0.574115 -0.264691
v -0.536798 0.574115 -0.279051
v -0.538073 0.577069 0.424691
v -0.471221 0.574115 0.491544
v -0.536783 0.574115 0.424704
v -0.538073 0.574115 0.424691
vn -1.0000 -0.0000 -0.0000
vn -0.0000 -0.0000 1.0000
vn -0.0000 -1.0000 -0.0000
vn -0.0000 -0.0000 -1.0000
vn 0.5291 -0.6710 0.5195
vn 0.5706 -0.5860 -0.5753
vn 0.5599 0.6053 0.5658
vn 0.5633 0.6098 -0.5575
vn -0.0122 -0.6864 -0.7271
vn 0.0011 -0.7642 0.6449
vn -0.0022 -0.6828 -0.7306
vn 0.6734 -0.7393 -0.0032
vn 0.0065 -0.7627 0.6467
vn -0.0000 0.7243 -0.6894
vn -0.0000 0.7207 0.6932
vn 0.6937 0.7203 0.0011
vn 0.7106 0.0642 -0.7006
vn 0.7096 -0.1097 0.6960
vn 0.7009 -0.0691 -0.7099
vn 0.7012 0.0505 0.7111
vn -0.0000 -0.0594 -0.9982
vn -0.0000 -0.1032 0.9947
vn 0.9991 -0.0430 -0.0068
vn -0.0000 0.0493 -0.9988
vn -0.0000 1.0000 -0.0000
vn -0.0000 0.0388 0.9992
vn 0.9993 0.0362 0.0049
vn 0.7577 -0.0506 -0.6506
vn 0.7577 -0.0506 0.6506
vn 0.7023 -0.1544 -0.6950
vn 0.6823 -0.7310 -0.0000
vn 0.7057 0.0562 0.7063
vn 0.6883 0.7254 -0.0000
vn 0.7057 0.0562 -0.7063
vn 0.7023 -0.1544 0.6950
vn 1.0000 -0.0082 -0.0000
vn -0.0000 0.0282 -0.9996
vn 0.9987 0.0513 -0.0000
vn 0.9977 -0.0677 -0.0000
vn -0.0000 -0.1518 -0.9884
vn -0.0000 -0.1518 0.9884
vn -0.0000 0.0282 0.9996
vn -0.5665 -0.5943 0.5708
vn -0.5437 -0.6347 -0.5491
vn 0.5455 -0.6324 -0.5501
vn 0.5684 -0.5915 0.5719
vn -0.6618 -0.7496 -0.0004
vn -0.0000 -0.7207 -0.6932
vn 0.6645 -0.7472 -0.0004
vn -0.0000 -0.6763 0.7366
vn -0.7062 -0.0296 0.7074
vn 0.7068 -0.0372 0.7065
vn 0.7016 -0.1080 -0.7043
vn -0.7055 -0.0365 -0.7077
vn -0.7063 -0.0488 0.7062
vn 0.7064 -0.0244 0.7074
vn 0.7060 -0.0246 -0.7078
vn -0.7010 -0.1129 -0.7042
vn -0.9999 -0.0167 -0.0002
vn -0.0000 -0.0526 0.9986
vn -0.0000 -0.0347 -0.9994
vn 1.0000 -0.0000 -0.0000
vn -0.9923 -0.1239 -0.0019
vn -0.0000 0.0853 0.9964
vn -0.0000 -0.0388 -0.9992
vn 0.9932 -0.1167 -0.0018
vn 0.4128 0.8119 -0.4128
vn 0.6762 -0.2924 0.6762
vn 0.7071 -0.0000 -0.7071
vn 0.7071 -0.0000 0.7071
vn -0.5291 -0.6710 0.5195
vn -0.5706 -0.5860 -0.5753
vn -0.5599 0.6053 0.5658
vn -0.5633 0.6098 -0.5575
vn 0.0122 -0.6864 -0.7271
vn -0.0011 -0.7642 0.6449
vn 0.0022 -0.6828 -0.7306
vn -0.6734 -0.7393 -0.0032
vn -0.0065 -0.7627 0.6467
vn -0.6937 0.7203 0.0011
vn -0.7106 0.0642 -0.7006
vn -0.7096 -0.1097 0.6960
vn -0.7009 -0.0691 -0.7099
vn -0.7012 0.0505 0.7111
vn -0.9991 -0.0430 -0.0068
vn -0.9993 0.0362 0.0049
vn -0.7577 -0.0506 -0.6506
vn -0.7577 -0.0506 0.6506
vn -0.7023 -0.1544 -0.6950
vn -0.6823 -0.7310 -0.0000
vn -0.7057 0.0562 0.7063
vn -0.6883 0.7254 -0.0000
vn -0.7057 0.0562 -0.7063
vn -0.7023 -0.1544 0.6950
vn -1.0000 -0.0082 -0.0000
vn -0.9987 0.0513 -0.0000
vn -0.9977 -0.0677 -0.0000
vn 0.5665 -0.5943 0.5708
vn 0.5437 -0.6347 -0.5491
vn -0.5455 -0.6324 -0.5501
vn -0.5684 -0.5915 0.5719
vn 0.6618 -0.7496 -0.0004
vn -0.6645 -0.7472 -0.0004
vn 0.7062 -0.0296 0.7074
vn -0.7068 -0.0372 0.7065
vn -0.7016 -0.1080 -0.7043
vn 0.7055 -0.0365 -0.7077
vn 0.7063 -0.0488 0.7062
vn -0.7064 -0.0244 0.7074
vn -0.7060 -0.0246 -0.7078
vn 0.7010 -0.1129 -0.7042
vn 0.9999 -0.0167 -0.0002
vn 0.9923 -0.1239 -0.0019
vn -0.9932 -0.1167 -0.0018
vn -0.4128 0.8119 -0.4128
vn -0.6762 -0.2924 0.6762
vn -0.7071 -0.0000 -0.7071
vn -0.7071 -0.0000 0.7071
vt 0.537867 0.979670
vt 0.434216 0.979670
vt 0.439278 0.800891
vt 0.532816 0.800891
vt 0.929382 0.715755
vt 0.919379 0.715755
vt 0.919379 0.433730
vt 0.929382 0.433730
vt 0.273742 0.449834
vt 0.273742 0.693837
vt 0.263739 0.693837
vt 0.263739 0.449834
vt 0.816737 0.282026
vt 0.806734 0.282026
vt 0.806734 0.000000
vt 0.816737 0.000000
vt 0.358614 0.433730
vt 0.365928 0.520142
vt 0.285461 0.507898
vt 0.728448 0.284425
vt 0.801565 0.285921
vt 0.721745 0.358806
vt 0.468978 0.000000
vt 0.542113 0.072348
vt 0.466756 0.075892
vt 0.469880 0.433730
vt 0.466756 0.357070
vt 0.542995 0.359871
vt 0.552998 0.358828
vt 0.542995 0.358836
vt 0.542995 0.284425
vt 0.552998 0.284425
vt 0.535677 0.433730
vt 0.535677 0.519526
vt 0.287111 0.796087
vt 0.366931 0.800891
vt 0.545680 0.433730
vt 0.545680 0.519326
vt 0.295464 0.433730
vt 0.285461 0.433730
vt 0.285461 0.357070
vt 0.295464 0.357070
vt 0.295464 0.075892
vt 0.295464 0.000000
vt 0.285461 0.075892
vt 0.285461 0.000000
vt 0.140689 0.000000
vt 0.282806 0.006426
vt 0.284302 0.080310
vt 0.128745 0.073304
vt 0.059967 0.449834
vt -0.000000 0.443870
vt 0.001158 0.369727
vt 0.074254 0.376967
vt 0.733620 0.142024
vt 0.806734 0.157073
vt 0.080222 0.449834
vt 0.073136 0.674383
vt 0.000000 0.662602
vt 0.007087 0.451446
vt 0.542995 0.142024
vt 0.552998 0.142024
vt 0.535677 0.785108
vt 0.545680 0.785108
vt 0.545680 0.799523
vt 0.535677 0.799858
vt 0.263739 0.734397
vt 0.253736 0.734397
vt 0.253736 0.674383
vt 0.263739 0.674383
vt 0.545680 0.541105
vt 0.535677 0.541105
vt 0.076673 0.734397
vt -0.000000 0.081541
vt 0.542995 0.000000
vt 0.552998 0.000000
vt 0.727415 0.000000
vt 0.253736 0.449834
vt 0.263739 0.449834
vt 0.285461 0.367831
vt 0.793776 0.914081
vt 0.769873 0.895062
vt 0.789915 0.874160
vt 0.852308 0.872397
vt 0.873482 0.892135
vt 0.850707 0.912472
vt 0.796691 0.930058
vt 0.780058 0.950884
vt 0.873482 0.936437
vt 0.873482 0.884409
vt 0.894907 0.867203
vt 0.894907 0.953643
vt 0.695282 0.875374
vt 0.702419 0.736553
vt 0.723514 0.716111
vt 0.714322 0.894932
vt 0.969593 0.886689
vt 0.969593 0.941256
vt 0.948498 0.960741
vt 0.948498 0.867203
vt 0.789915 0.735299
vt 0.769873 0.716191
vt 0.848698 0.928589
vt 0.866463 0.948443
vt 0.924397 0.960741
vt 0.924397 0.867203
vt 0.929382 0.612553
vt 0.929382 0.433730
vt 0.953483 0.433730
vt 0.962675 0.612553
vt 0.844460 0.733758
vt 0.924397 0.867203
vt 0.924397 0.953643
vt 0.929382 0.668759
vt 0.958872 0.668759
vt 0.747615 0.894932
vt 0.747615 0.951140
vt 0.718125 0.951140
vt 0.747615 0.716111
vt 0.695282 0.779391
vt 0.675891 0.760001
vt 0.695240 0.740685
vt 0.675898 0.925238
vt 0.695282 0.905909
vt 0.695229 0.944554
vt 0.565909 0.760001
vt 0.546527 0.779391
vt 0.546154 0.740689
vt 0.546527 0.905909
vt 0.565903 0.925238
vt 0.546058 0.944548
vt 0.283721 0.753726
vt 0.261948 0.752066
vt 0.264335 0.734397
vt 0.283591 0.872576
vt 0.264217 0.891909
vt 0.261948 0.871843
vt 0.166435 0.891909
vt 0.147067 0.872577
vt 0.168576 0.871843
vt 0.146944 0.753728
vt 0.166323 0.734397
vt 0.168576 0.752066
vt 0.024308 0.885294
vt 0.122319 0.885294
vt 0.119932 0.904924
vt 0.026560 0.904924
vt 0.146944 0.844644
vt 0.141706 0.885806
vt 0.127549 0.844641
vt 0.000000 0.844644
vt 0.000000 0.734824
vt 0.019382 0.734397
vt 0.019385 0.844641
vt 0.434204 0.908542
vt 0.429147 0.952346
vt 0.409780 0.951812
vt 0.414826 0.907696
vt 0.287259 0.908525
vt 0.285461 0.801310
vt 0.304845 0.800891
vt 0.306647 0.907683
vt 0.826111 0.282026
vt 0.831887 0.391709
vt 0.812530 0.393042
vt 0.806734 0.282936
vt 0.004928 0.885789
vt 0.434216 0.801327
vt 0.414841 0.800904
vt 0.292623 0.952346
vt 0.311998 0.951801
vt 0.952629 0.282026
vt 0.948910 0.389152
vt 0.276538 0.678276
vt 0.276485 0.639632
vt 0.276485 0.513114
vt 0.276527 0.474408
vt 0.276581 0.449834
vt 0.276581 0.693837
vt 0.129363 0.734397
vt 0.873482 0.716191
vt 1.000000 0.716191
vt 0.994223 0.825895
vt 0.877200 0.823336
vt 0.947210 0.433150
vt 0.828361 0.433160
vt 0.997748 0.867203
vt 0.878900 0.867191
vt 0.386171 0.765290
vt 0.405990 0.785108
vt 0.370849 0.797677
vt 0.405990 0.541105
vt 0.386171 0.560924
vt 0.372405 0.526849
vt 0.273742 0.477861
vt 0.276485 0.453111
vt 0.769873 0.715316
vt 0.789691 0.715755
vt 0.770255 0.716191
vt 0.769873 0.716191
vt 0.545680 0.716111
vt 0.545680 0.434057
vt 0.565507 0.433730
vt 0.565507 0.713813
vt 0.789691 0.433730
vt 0.769873 0.434167
vt 0.769873 0.714911
vt 0.680575 0.710965
vt 0.689180 0.654941
vt 0.585529 0.654940
vt 0.594135 0.710965
vt 0.769873 0.433732
vt 0.946425 0.282026
vt 0.946425 0.000000
vt 0.695186 0.960114
vt 0.565498 0.960114
vt 0.546058 0.944553
vt 0.545680 0.940296
vt 0.545680 0.735930
vt 0.546063 0.735926
vt 0.565507 0.715785
vt 0.769873 0.715786
vt 0.565498 0.716111
vt 0.695186 0.716111
s 0
f 17/1/1 18/2/1 10/3/1 7/4/1
f 1/5/2 11/6/2 4/7/2 6/8/2
f 1/9/3 2/10/3 12/11/3 11/12/3
f 12/13/4 2/14/4 5/15/4 3/16/4
f 25/17/5 26/18/5 27/19/5
f 30/20/6 31/21/6 32/22/6
f 39/23/7 40/24/7 41/25/7
f 44/26/8 45/27/8 46/28/8
f 20/29/9 22/30/9 21/31/9 19/32/9
f 25/17/10 28/33/10 29/34/10 26/18/10
f 19/32/11 30/20/11 32/22/11 20/29/11
f 31/35/12 27/19/12 26/18/12 32/36/12
f 28/33/13 24/37/13 23/38/13 29/34/13
f 34/39/14 36/40/14 35/41/14 33/42/14
f 41/25/15 42/43/15 43/44/15 39/23/15
f 33/42/14 45/27/14 44/26/14 34/39/14
f 45/27/16 41/25/16 40/24/16 46/28/16
f 42/43/15 38/45/15 37/46/15 43/44/15
f 48/47/17 44/48/17 46/49/17 47/50/17
f 50/51/18 25/52/18 27/53/18 49/54/18
f 30/20/19 48/55/19 47/56/19 31/21/19
f 39/57/20 50/58/20 49/59/20 40/60/20
f 19/32/21 21/31/21 14/61/21 15/62/21
f 3/63/3 5/64/3 22/65/3 20/66/3
f 30/20/21 19/32/21 15/62/21 48/55/21
f 24/67/22 28/68/22 13/69/22 16/70/22
f 6/71/3 4/72/3 29/34/3 23/38/3
f 28/68/22 25/73/22 50/58/22 13/69/22
f 27/53/23 31/74/23 47/50/23 49/54/23
f 15/62/24 14/61/24 36/75/24 34/76/24
f 33/42/25 35/41/25 38/45/25 42/43/25 41/25/25 45/27/25
f 48/55/24 15/62/24 34/76/24 44/77/24
f 16/70/26 13/69/26 43/78/26 37/79/26
f 13/69/26 50/58/26 39/57/26 43/78/26
f 49/54/27 47/50/27 46/49/27 40/80/27
f 59/81/28 60/82/28 61/83/28
f 62/84/29 63/85/29 64/86/29
f 59/81/30 53/87/30 54/88/30 60/82/30
f 53/89/31 55/90/31 56/91/31 54/92/31
f 62/93/32 57/94/32 58/95/32 63/96/32
f 57/97/33 51/98/33 52/99/33 58/100/33
f 51/101/34 61/83/34 60/82/34 52/102/34
f 55/103/35 64/86/35 63/85/35 56/104/35
f 61/83/36 62/84/36 64/86/36 59/81/36
f 7/105/25 10/106/25 58/100/25 52/99/25
f 17/107/37 7/108/37 52/109/37 60/110/37
f 61/83/38 51/101/38 57/111/38 62/84/38
f 53/87/39 59/81/39 64/86/39 55/103/39
f 9/112/3 8/113/3 54/92/3 56/91/3
f 8/114/40 17/107/40 60/110/40 54/115/40
f 18/116/41 9/117/41 56/118/41 63/96/41
f 10/119/42 18/116/42 63/96/42 58/95/42
f 65/120/3 66/121/3 67/122/3
f 68/123/3 69/124/3 70/125/3
f 71/126/3 72/127/3 73/128/3
f 74/129/3 75/130/3 76/131/3
f 77/132/43 78/133/43 79/134/43
f 80/135/44 81/136/44 82/137/44
f 83/138/45 84/139/45 85/140/45
f 86/141/46 87/142/46 88/143/46
f 77/132/47 80/135/47 82/137/47 78/133/47
f 81/136/48 83/138/48 85/140/48 82/137/48
f 84/139/49 86/141/49 88/143/49 85/140/49
f 87/144/50 79/145/50 78/146/50 88/147/50
f 90/148/51 77/149/51 79/145/51 89/150/51
f 92/151/52 72/152/52 71/153/52 91/154/52
f 94/155/53 84/156/53 83/157/53 93/158/53
f 96/159/54 69/160/54 68/161/54 95/162/54
f 65/163/55 90/164/55 89/165/55 66/166/55
f 86/167/56 92/151/56 91/154/56 87/144/56
f 74/168/57 94/155/57 93/158/57 75/169/57
f 80/170/58 96/159/58 95/162/58 81/171/58
f 65/163/59 69/172/59 96/173/59 90/164/59
f 70/174/25 69/175/25 65/176/25 67/177/25 11/178/25 12/179/25
f 71/153/60 66/180/60 89/150/60 91/154/60
f 68/161/61 75/169/61 93/158/61 95/162/61
f 74/181/62 72/182/62 92/183/62 94/184/62
f 90/164/63 96/173/63 80/185/63 77/186/63
f 78/133/3 82/137/3 85/140/3 88/143/3
f 91/154/64 89/150/64 79/145/64 87/144/64
f 95/162/65 93/158/65 83/157/65 81/171/65
f 94/184/66 92/183/66 86/187/66 84/188/66
f 97/189/3 98/190/3 99/191/3
f 100/192/3 101/193/3 102/194/3
f 103/195/67 104/9/67 105/9/67 106/196/67
f 107/197/68 108/198/68 109/199/68 110/200/68
f 103/201/69 98/202/69 97/203/69 104/204/69
f 100/205/70 108/198/70 107/197/70 101/206/70
f 99/191/3 98/190/3 3/63/3 20/66/3 32/36/3
f 107/207/62 9/208/62 18/209/62 17/210/62 8/211/62 104/204/62 97/203/62 101/212/62
f 103/213/4 12/13/4 3/16/4 98/214/4
f 102/194/3 101/193/3 97/189/3 99/191/3 32/36/3 26/18/3
f 4/72/3 100/192/3 102/194/3 26/18/3 29/34/3
f 11/6/2 108/198/2 100/205/2 4/7/2
f 76/131/3 75/130/3 68/123/3 70/125/3 12/215/3 103/216/3 106/217/3
f 73/128/3 72/127/3 74/129/3 76/131/3 106/217/3 105/218/3 110/219/3 109/220/3
f 105/221/62 104/204/62 8/211/62 9/208/62 107/207/62 110/222/62
f 67/122/3 66/121/3 71/126/3 73/128/3 109/220/3 108/223/3 11/224/3
f 121/1/62 113/4/62 116/3/62 122/2/62
f 1/5/2 6/8/2 112/7/2 117/6/2
f 1/9/3 117/12/3 118/11/3 2/10/3
f 118/13/4 111/16/4 5/15/4 2/14/4
f 125/17/71 127/19/71 126/18/71
f 130/20/72 132/22/72 131/21/72
f 135/23/73 137/25/73 136/24/73
f 140/26/74 142/28/74 141/27/74
f 124/29/75 123/32/75 21/31/75 22/30/75
f 125/17/76 126/18/76 129/34/76 128/33/76
f 123/32/77 124/29/77 132/22/77 130/20/77
f 131/35/78 132/36/78 126/18/78 127/19/78
f 128/33/79 129/34/79 23/38/79 24/37/79
f 134/39/14 133/42/14 35/41/14 36/40/14
f 137/25/15 135/23/15 139/44/15 138/43/15
f 133/42/14 134/39/14 140/26/14 141/27/14
f 141/27/80 142/28/80 136/24/80 137/25/80
f 138/43/15 139/44/15 37/46/15 38/45/15
f 144/47/81 143/50/81 142/49/81 140/48/81
f 146/51/82 145/54/82 127/53/82 125/52/82
f 130/20/83 131/21/83 143/56/83 144/55/83
f 135/57/84 136/60/84 145/59/84 146/58/84
f 123/32/21 120/62/21 14/61/21 21/31/21
f 111/63/3 124/66/3 22/65/3 5/64/3
f 130/20/21 144/55/21 120/62/21 123/32/21
f 24/67/22 16/70/22 119/69/22 128/68/22
f 6/71/3 23/38/3 129/34/3 112/72/3
f 128/68/22 119/69/22 146/58/22 125/73/22
f 127/53/85 145/54/85 143/50/85 131/74/85
f 120/62/24 134/76/24 36/75/24 14/61/24
f 133/42/25 141/27/25 137/25/25 138/43/25 38/45/25 35/41/25
f 144/55/24 140/77/24 134/76/24 120/62/24
f 16/70/26 37/79/26 139/78/26 119/69/26
f 119/69/26 139/78/26 135/57/26 146/58/26
f 145/54/86 136/80/86 142/49/86 143/50/86
f 155/81/87 157/83/87 156/82/87
f 158/84/88 160/86/88 159/85/88
f 155/81/89 156/82/89 150/88/89 149/87/89
f 149/89/90 150/92/90 152/91/90 151/90/90
f 158/93/91 159/96/91 154/95/91 153/94/91
f 153/97/92 154/100/92 148/99/92 147/98/92
f 147/101/93 148/102/93 156/82/93 157/83/93
f 151/103/94 152/104/94 159/85/94 160/86/94
f 157/83/95 155/81/95 160/86/95 158/84/95
f 113/105/25 148/99/25 154/100/25 116/106/25
f 121/107/37 156/110/37 148/109/37 113/108/37
f 157/83/96 158/84/96 153/111/96 147/101/96
f 149/87/97 151/103/97 160/86/97 155/81/97
f 115/112/3 152/91/3 150/92/3 114/113/3
f 114/114/40 150/115/40 156/110/40 121/107/40
f 122/116/41 159/96/41 152/118/41 115/117/41
f 116/119/42 154/95/42 159/96/42 122/116/42
f 161/120/3 163/122/3 162/121/3
f 164/123/3 166/125/3 165/124/3
f 167/126/3 169/128/3 168/127/3
f 170/129/3 172/131/3 171/130/3
f 173/132/98 175/134/98 174/133/98
f 176/135/99 178/137/99 177/136/99
f 179/138/100 181/140/100 180/139/100
f 182/141/101 184/143/101 183/142/101
f 173/132/102 174/133/102 178/137/102 176/135/102
f 177/136/48 178/137/48 181/140/48 179/138/48
f 180/139/103 181/140/103 184/143/103 182/141/103
f 183/144/50 184/147/50 174/146/50 175/145/50
f 186/148/104 185/150/104 175/145/104 173/149/104
f 188/151/105 187/154/105 167/153/105 168/152/105
f 190/155/106 189/158/106 179/157/106 180/156/106
f 192/159/107 191/162/107 164/161/107 165/160/107
f 161/163/108 162/166/108 185/165/108 186/164/108
f 182/167/109 183/144/109 187/154/109 188/151/109
f 170/168/110 171/169/110 189/158/110 190/155/110
f 176/170/111 177/171/111 191/162/111 192/159/111
f 161/163/112 186/164/112 192/173/112 165/172/112
f 166/174/25 118/179/25 117/178/25 163/177/25 161/176/25 165/175/25
f 167/153/60 187/154/60 185/150/60 162/180/60
f 164/161/61 191/162/61 189/158/61 171/169/61
f 170/181/1 190/184/1 188/183/1 168/182/1
f 186/164/113 173/186/113 176/185/113 192/173/113
f 174/133/3 184/143/3 181/140/3 178/137/3
f 187/154/64 183/144/64 175/145/64 185/150/64
f 191/162/65 177/171/65 179/157/65 189/158/65
f 190/184/114 180/188/114 182/187/114 188/183/114
f 193/189/3 195/191/3 194/190/3
f 196/192/3 198/194/3 197/193/3
f 199/195/115 202/196/115 201/9/115 200/9/115
f 203/197/116 206/200/116 205/199/116 204/198/116
f 199/201/117 200/204/117 193/203/117 194/202/117
f 196/205/118 197/206/118 203/197/118 204/198/118
f 195/191/3 132/36/3 124/66/3 111/63/3 194/190/3
f 203/207/1 197/212/1 193/203/1 200/204/1 114/211/1 121/210/1 122/209/1 115/208/1
f 199/213/4 194/214/4 111/16/4 118/13/4
f 198/194/3 126/18/3 132/36/3 195/191/3 193/189/3 197/193/3
f 112/72/3 129/34/3 126/18/3 198/194/3 196/192/3
f 117/6/2 112/7/2 196/205/2 204/198/2
f 172/131/3 202/217/3 199/216/3 118/215/3 166/125/3 164/123/3 171/130/3
f 169/128/3 205/220/3 206/219/3 201/218/3 202/217/3 172/131/3 170/129/3 168/127/3
f 201/221/1 206/222/1 203/207/1 115/208/1 114/211/1 200/204/1
f 163/122/3 117/224/3 204/223/3 205/220/3 169/128/3 167/126/3 162/121/3
