# https://github.com/mikedh/trimesh
mtllib material.mtl

o tmprvl5exve.ply
usemtl material_0
v -0.17266300 -1.00123441 -0.05170011
v -0.20672515 -1.00053775 0.16285656
v -0.39698735 -1.00100040 -0.10485221
v -0.40655500 -1.00072074 0.16498455
v -0.35701144 -0.99907774 -0.21195228
v -0.20627403 -0.99992490 -0.22031038
v -0.15230839 -0.99795371 -0.16598971
v -0.23064196 -0.98429054 0.23073123
v -0.30279431 -0.98202151 0.25101480
v -0.38151786 -0.98322356 0.20572236
v 0.12584297 -1.00140059 -0.04342686
v 0.35260400 -1.00049412 -0.04352721
v 0.36029598 -1.00055575 0.16569015
v 0.28724390 -1.00184166 -0.21352196
v 0.33395779 -1.00142694 -0.17660683
v 0.15362486 -0.99972689 0.12124593
v 0.10684150 -0.99963957 -0.17088647
v 0.17721336 -0.99051654 0.21850030
v 0.28694284 -0.98052335 0.25144339
v 0.16246288 -0.98779786 -0.21783555
v 0.02228744 0.14893179 -0.27484298
v -0.14260633 0.18676597 -0.27551827
v -0.00157265 0.26712289 -0.29762685
v -0.02417840 0.04061889 -0.24921910
v -0.24353765 0.27360722 -0.27802718
v -0.27621415 0.21889475 -0.25751513
v -0.11289836 0.03773782 -0.23198013
v 0.18816538 0.27295020 -0.27810198
v 0.22789776 0.22109526 -0.25880420
v 0.14100453 0.03437931 -0.20831703
v 0.26589730 0.24486028 -0.24909011
v 0.09449519 -0.09247541 -0.23034358
v 0.02168503 -0.09370302 -0.24795915
v -0.07455557 -0.08699494 -0.25094646
v 0.19054967 -0.24027799 -0.23079352
v -0.02302491 -0.15628016 -0.26624373
v 0.13961497 -0.25889766 -0.25929645
v -0.06512219 -0.22837503 -0.28289914
v -0.12567544 0.38214886 -0.25298026
v -0.01198015 0.41157445 -0.24784639
v 0.22565958 0.34416837 -0.24967566
v 0.32873204 0.36947837 -0.24026771
v 0.15851519 -0.09808390 -0.20070836
v 0.32498941 0.24779393 -0.22220223
v -0.27904484 0.31551793 -0.25964916
v -0.20015784 0.03236068 -0.19730476
v -0.17445618 -0.15096650 -0.22951511
v -0.15862718 -0.25887963 -0.26779845
v -0.22928300 -0.09892137 -0.18049368
v -0.22528870 -0.24931036 -0.23935866
v -0.27996016 0.40717167 -0.21587622
v -0.36551657 0.31826195 -0.25156879
v -0.29940900 0.24117503 -0.24392021
v -0.37920013 0.37858957 -0.23153564
v -0.34810853 0.20422755 -0.20946336
v -0.37237477 0.25669321 -0.22480018
v 0.12054684 0.42908484 -0.21792534
v -0.09167387 0.42591980 -0.22803344
v -0.24987847 -0.24553113 -0.22180313
v 0.23640956 0.43008384 -0.19444527
v 0.01718143 -0.21621859 -0.28370902
v 0.04710278 -0.26418296 -0.27103809
v -0.39080688 0.33941674 -0.22249411
v -0.53652650 0.27409387 -0.20655085
v -0.53442603 0.33448717 -0.19555394
v -0.59075612 0.31365043 -0.21197113
v -0.59072101 0.24575219 -0.20625751
v -0.52985644 0.21631935 -0.17438145
v -0.25000730 0.03995355 -0.14064604
v 0.19725600 0.03574818 -0.14883852
v 0.34241420 0.34630126 -0.22086114
v 0.42991409 0.32073984 -0.21679844
v 0.48502514 0.24617849 -0.19732685
v 0.49622279 0.32633093 -0.20123187
v 0.54360259 0.25002319 -0.20912477
v 0.55474895 0.38494998 -0.20311296
v 0.54232574 0.18921867 -0.16115770
v 0.36280134 0.40286961 -0.16716266
v 0.48585311 0.36900619 -0.15820040
v 0.54426408 0.39099357 -0.13819382
v 0.25212401 -0.24549264 -0.16317566
v 0.22343490 -0.09495299 -0.11615879
v 0.31935290 0.18759732 -0.15521388
v 0.25983143 0.16415679 -0.15908195
v 0.47560260 0.18789215 -0.12360963
v 0.35223719 0.43219575 -0.16729335
v -0.41014543 0.40078878 -0.17005382
v 0.23207992 0.02331642 -0.05333856
v 0.08711702 0.93910974 -0.11200041
v -0.05735839 0.95715564 -0.05890457
v 0.01554988 0.94068784 0.07455831
v 0.12642568 0.92574495 0.04308144
v 0.08643270 0.90324795 0.18558067
v 0.14969586 0.89383149 0.15923624
v 0.14376333 0.91937095 -0.18980682
v -0.02225452 0.89908218 0.22511792
v -0.10939375 0.92937881 0.09528083
v -0.13997592 0.90050572 0.18449630
v -0.05046243 0.93856090 -0.17305192
v -0.21008758 0.91887647 -0.03612062
v -0.19743687 0.89485043 0.15618929
v -0.19201365 0.91848499 -0.18634737
v -0.03628565 0.91970724 -0.23583686
v 0.17218792 0.89990091 -0.01861647
v 0.07574151 0.83071876 -0.25766078
v -0.21962824 0.82364511 -0.23189519
v 0.17234825 0.82778919 -0.22941951
v -0.04051716 0.82710946 -0.27632841
v -0.21709077 0.62341046 0.07208983
v -0.23456490 0.78432965 -0.00707839
v -0.23241583 0.65570205 -0.00509328
v -0.22477807 0.49878386 0.00507933
v -0.21471453 0.47777089 0.05273419
v -0.20365642 0.58961701 0.11772978
v -0.18031976 0.44466552 0.18080527
v -0.20508310 0.77841109 0.07637890
v -0.17412686 0.57584733 0.19102812
v -0.23533180 0.70291775 -0.07502645
v -0.24051161 0.82462716 -0.14793111
v -0.23429506 0.68179911 -0.11174747
v -0.21294796 0.69995368 -0.20616755
v -0.21962824 0.82364511 -0.23189519
v -0.22092426 0.54222864 -0.10470638
v -0.19477576 0.53487837 -0.19243853
v -0.21626116 0.52260143 -0.02482132
v -0.25074589 0.82375127 -0.04094442
v -0.23348852 0.81405723 0.06673776
v -0.21008758 0.91887647 -0.03612062
v -0.19743687 0.89485043 0.15618929
v -0.18930973 0.80301785 0.17129648
v -0.19201365 0.91848499 -0.18634737
v -0.20386124 0.46371830 -0.01448521
v -0.19901010 0.47443700 -0.09629948
v -0.17744662 0.46678865 -0.14827523
v -0.17417143 0.51042074 -0.17558697
v -0.19043754 0.46445775 0.02260946
v -0.18819498 0.44042826 0.02205344
v -0.16751942 0.45459238 0.06412891
v -0.14053771 0.39410514 0.09824958
v -0.12010077 0.43622050 0.12564197
v -0.18069528 0.62063879 0.10681282
v -0.15970524 0.77575892 0.15889093
v -0.15789679 0.60134560 0.17092280
v -0.12716150 0.45188639 -0.19065322
v -0.28123012 0.65487003 -0.09914511
v -0.27028096 0.55156100 -0.06631283
v 0.66145957 0.40376931 0.04052972
v 0.74300402 0.41383284 0.04672950
v 0.66416174 0.41676205 -0.05684781
v 0.68541431 0.38345295 0.14944422
v 0.80110723 0.38711387 0.18660039
v 0.85637975 0.38664088 0.19740093
v 0.88631964 0.39725688 0.10872851
v 0.90261900 0.41391975 -0.00147621
v 0.86458212 0.40891385 -0.15111232
v 0.66432661 0.40124810 -0.15297891
v 0.72391212 0.37769163 -0.22168778
v 0.87049931 0.37404403 -0.24782771
v 0.64474261 0.38166347 -0.21183430
v 0.65237343 0.37999615 0.09592360
v 0.64170885 0.43044057 -0.15370689
v 0.55474895 0.38494998 -0.20311296
v 0.55939990 0.43059406 -0.15044096
v 0.63972521 0.44806069 -0.04803440
v 0.55972791 0.44286543 -0.01722194
v 0.63913810 0.42386502 0.05604875
v 0.56821942 0.39691600 0.09039487
v -0.88221663 0.15068325 -0.10464374
v -0.72194576 0.17104319 -0.07971714
v -0.78404564 0.16813643 -0.01505611
v -0.89272171 0.15607326 -0.01284365
v -0.70422810 0.18454470 0.06704476
v -0.83592463 0.15423198 -0.20182157
v -0.90947229 0.16036958 -0.20461661
v -0.95758772 0.16268097 -0.07334791
v -0.83668470 0.18107325 0.04240414
v -0.95982152 0.17412765 -0.00025301
v -0.87555516 0.15395613 0.05768270
v -0.84023005 0.17141117 0.08659771
v -0.89726257 0.15243591 0.12430303
v -0.77202827 0.20309705 -0.22615157
v -0.69568133 0.22110127 -0.22979049
v -0.77588511 0.13430274 0.07464076
v -0.81581914 0.19165301 -0.24850316
v -0.98119968 0.18916114 -0.12773052
v -0.83481562 0.12380452 0.11440632
v -0.80565619 0.10855767 0.21226887
v -0.84433073 0.13145906 0.21168734
v -0.91688269 0.16498096 0.20931424
v -0.94615638 0.17421114 0.16887693
v -0.97935086 0.20897920 0.09202053
v -0.93813705 0.21363305 -0.24985155
v -0.69177037 0.12926458 -0.05636563
v -0.68755567 0.16994047 -0.19204290
v -0.61745679 0.13798349 -0.12267265
v -0.60638350 0.19596013 -0.21079886
v 0.11189735 0.60086811 0.17167033
v 0.13569734 0.62227458 0.10438339
v 0.13706705 0.77197063 0.10014997
v 0.10821367 0.77358061 0.16350356
v 0.17979641 0.78137422 0.05463848
v 0.16857342 0.60645038 0.08068320
v 0.18581603 0.81133318 0.07090532
v 0.04025095 0.64422405 0.20110761
v -0.01963931 0.59414089 0.24339058
v 0.03901879 0.75937921 0.19119698
v -0.02422516 0.74230230 0.21514104
v -0.02637365 0.62038487 0.23416203
v 0.13259122 0.57222366 0.18749781
v 0.12715256 0.44221708 0.18674453
v 0.04086679 0.42688414 0.22107999
v -0.03720171 0.41965863 0.24002461
v -0.02015848 0.77254027 0.24372354
v 0.12673594 0.79893947 0.18126705
v -0.02225452 0.89908218 0.22511792
v 0.08643270 0.90324795 0.18558067
v 0.14969586 0.89383149 0.15923624
v -0.17412686 0.57584733 0.19102812
v -0.09817187 0.76167995 0.18590549
v -0.10764699 0.78472757 0.20824142
v -0.13997592 0.90050572 0.18449630
v -0.18930973 0.80301785 0.17129648
v -0.15970524 0.77575892 0.15889093
v -0.15789679 0.60134560 0.17092280
v -0.18031976 0.44466552 0.18080527
v -0.12256322 0.60624653 0.19071794
v -0.19743687 0.89485043 0.15618929
v -0.88106859 0.42093590 0.00404046
v -0.71198726 0.40901816 0.00735761
v -0.84075367 0.42690930 -0.07504889
v -0.70695096 0.40188286 0.05970422
v -0.91361433 0.40197071 0.11670651
v -0.72911263 0.38422093 0.15061966
v -0.90620250 0.38113865 0.19954769
v -0.70796508 0.39508325 -0.17396732
v -0.95651448 0.40788898 -0.04720233
v -0.95034951 0.39758375 -0.14742208
v -0.88519335 0.38216069 -0.23981430
v -0.94979399 0.38040078 0.09223389
v -0.67981851 0.42261657 0.06037637
v -0.68525720 0.44779402 -0.05151838
v -0.60282183 0.42074054 0.05497582
v -0.60480380 0.44242236 -0.10714955
v -0.69031781 0.41830912 -0.18383461
v -0.61471635 0.38731971 -0.21813902
v -0.92637348 0.32993582 -0.25726855
v -0.61318076 0.33295310 0.12746392
v -0.69765055 0.29723865 0.12702061
v -0.02348658 0.21848734 0.23413929
v 0.01969700 0.32322752 0.19098504
v -0.06011087 0.31764773 0.19327793
v 0.10088176 0.21787781 0.20775719
v 0.09137685 0.36601415 0.14723530
v 0.18663359 0.22394930 0.17621350
v 0.24994917 0.31397563 0.11309439
v 0.13328786 0.40922508 0.09664494
v 0.23946905 0.39117524 0.07972818
v 0.31357771 0.31659079 0.10780575
v 0.33443990 0.39087954 0.07713200
v 0.25865439 0.25510862 0.11722618
v 0.33176577 0.26685864 0.08871841
v 0.34260237 0.34048057 0.07846431
v 0.53714699 0.30363140 0.07360041
v 0.47545460 0.37806463 0.02404342
v 0.36106068 0.40104952 0.02773575
v 0.54317707 0.39239553 0.02677533
v -0.15813124 0.21619400 0.20546135
v -0.17443478 0.31097203 0.16288827
v 0.25625873 0.45259887 -0.01077780
v -0.10631464 0.36515173 0.13834006
v -0.18056916 0.40843803 0.09979507
v -0.29454651 0.33029816 0.10792665
v -0.26954687 0.22842522 0.15806091
v 0.04105607 0.36354330 0.14039609
v -0.28892824 0.44050211 0.02188952
v -0.37727872 0.37724835 0.08517764
v -0.39842984 0.42897582 0.02754414
v 0.14039740 0.44948530 0.02804625
v 0.35539785 0.43538600 -0.00311075
v 0.10748965 0.40819791 0.07738683
v -0.37325719 0.28285500 0.09436306
v -0.03435669 0.31986430 0.15719607
v -0.12010077 0.43622050 0.12564197
v -0.14053771 0.39410514 0.09824958
v -0.30983442 0.22304159 0.10039137
v -0.03250946 0.41982421 0.16498575
v 0.07657105 0.43905556 0.12802345
v 0.08454494 0.13140748 0.19665281
v -0.03044036 0.04145459 0.20360659
v 0.05352850 0.03475567 0.18657988
v -0.10980593 0.02630786 0.18144068
v 0.10715666 0.03570186 0.16411525
v 0.05015340 -0.10625254 0.18634561
v 0.12489797 -0.09289794 0.15887384
v 0.20297793 -0.25685638 0.15800829
v 0.11325774 -0.26797679 0.20327143
v 0.03430871 -0.24610436 0.22064450
v -0.02231544 -0.15265341 0.19344459
v -0.07790459 -0.11753636 0.19260077
v -0.08199318 -0.25111106 0.21935739
v -0.13685624 -0.25500095 0.21148737
v -0.10535948 -0.08779869 0.18498129
v 0.16578734 0.02062649 0.13152459
v -0.20355506 -0.09516338 0.14157633
v 0.18744032 0.10498125 0.13492499
v -0.25670284 -0.26109731 0.15420000
v -0.21614863 0.03299761 0.12711383
v 0.48942700 0.21717045 0.04376057
v 0.20311512 -0.09352375 0.09131665
v 0.54451841 0.23635340 0.07738330
v 0.26040602 -0.24457656 0.08631075
v -0.40439802 0.36544001 0.06054319
v -0.54006064 0.27621385 0.07979094
v -0.53377378 0.38291988 0.00689290
v -0.58977383 0.29399258 0.09054034
v -0.58944744 0.39890760 -0.00417826
v -0.59213406 0.17494081 0.01183181
v -0.24694918 -0.09439406 0.09581453
v -0.27993658 0.00303819 0.02051349
v -0.37603533 0.18310259 0.00786488
v -0.53453946 0.19043383 0.00389679
v 0.21880078 0.03592587 0.03974871
v 0.25177842 -0.17066468 0.03559492
v 0.23969293 -0.09657469 -0.03505785
v -0.23928273 -0.45939127 -0.20907520
v -0.16404204 -0.43844676 -0.20641342
v -0.17866361 -0.52730227 -0.22945222
v -0.20686974 -0.32000574 -0.18532696
v -0.11773600 -0.33426133 -0.17662214
v -0.26111054 -0.59559113 -0.26063353
v -0.14539495 -0.61346543 -0.23335586
v -0.30200350 -0.48501208 -0.19088435
v -0.33214831 -0.58218855 -0.23825015
v -0.28901172 -0.33467993 -0.15508921
v -0.24991426 -0.25637525 -0.17954278
v -0.14233650 -0.24941903 -0.21390715
v -0.11831389 -0.51498413 -0.17780414
v -0.06096734 -0.29774460 -0.15217403
v -0.22082391 -0.64624721 -0.21144706
v -0.08392852 -0.62238735 -0.14960231
v -0.16757327 -0.65176105 -0.19408263
v -0.24938835 -0.76027733 -0.22446901
v -0.32772100 -0.63927561 -0.18107715
v -0.33906946 -0.75691354 -0.19663024
v -0.14637695 -0.77864134 -0.17154594
v -0.28174305 -0.80707687 -0.19177143
v -0.19249099 -0.83761424 -0.17674372
v -0.22207995 -0.92508638 -0.21574551
v -0.33386144 -0.79697382 -0.17088525
v -0.35701144 -0.99907774 -0.21195228
v -0.20627403 -0.99992490 -0.22031038
v -0.15230839 -0.99795371 -0.16598971
v -0.37603533 0.18310259 0.00786488
v -0.52448505 0.18971574 -0.11107966
v -0.36923021 0.18728407 -0.14981012
v -0.53453946 0.19043383 0.00389679
v -0.56425667 0.17794974 -0.13484418
v -0.59213406 0.17494081 0.01183181
v -0.59067416 0.18411419 -0.14608113
v -0.36651188 0.20774952 -0.18931265
v -0.52985644 0.21631935 -0.17438145
v -0.31249079 0.15063988 -0.10708593
v -0.31243274 0.15527628 0.00120368
v -0.34810853 0.20422755 -0.20946336
v -0.30782872 0.16057749 -0.15294711
v -0.29940900 0.24117503 -0.24392021
v -0.59072101 0.24575219 -0.20625751
v -0.37237477 0.25669321 -0.22480018
v -0.30983442 0.22304159 0.10039137
v -0.34887451 -0.50416803 0.04623389
v -0.33862233 -0.37474468 -0.01079817
v -0.36094248 -0.48849082 -0.04835357
v -0.37075254 -0.59852272 0.03621674
v -0.39539331 -0.58729887 -0.06767868
v -0.28739822 -0.36418593 0.08736347
v -0.34141323 -0.59972185 0.08951908
v -0.29712963 -0.26887551 0.05811997
v -0.32350686 -0.32074225 -0.06003827
v -0.32179260 -0.25174567 -0.05295466
v -0.33405656 -0.47689140 -0.14579098
v -0.38225594 -0.58428442 -0.15679286
v -0.30313209 -0.26011935 -0.10931826
v -0.28901172 -0.33467993 -0.15508921
v -0.30200350 -0.48501208 -0.19088435
v -0.37263289 -0.65226507 -0.04698677
v -0.33214831 -0.58218855 -0.23825015
v -0.24991426 -0.25637525 -0.17954278
v -0.35860065 -0.63841665 -0.13853393
v -0.38816437 -0.75956708 -0.09523377
v -0.36445168 -0.75614458 0.01045971
v -0.33906946 -0.75691354 -0.19663024
v -0.32513106 -0.64522010 0.04185508
v -0.32772100 -0.63927561 -0.18107715
v -0.33386144 -0.79697382 -0.17088525
v -0.36680302 -0.80255306 -0.10084382
v -0.35701144 -0.99907774 -0.21195228
v -0.39698735 -1.00100040 -0.10485221
v -0.37999976 -0.89770693 -0.01520992
v -0.39722720 -0.92301941 0.08293694
v -0.40655500 -1.00072074 0.16498455
v -0.34173131 -0.83359462 -0.01301914
v -0.38151786 -0.98322356 0.20572236
v -0.33313540 -0.91542673 0.21886721
v -0.32005900 -0.24472053 0.04499836
v -0.31873280 -0.19540527 -0.01586045
v -0.32029861 -0.24380271 -0.11819187
v -0.27799374 -0.09517165 -0.07951843
v -0.28299040 -0.09307300 -0.00535289
v -0.27993658 0.00303819 0.02051349
v -0.27691308 0.02304581 -0.05900780
v -0.26929915 0.03582393 0.02471557
v -0.25000730 0.03995355 -0.14064604
v -0.28701830 0.08690839 -0.06800945
v -0.29474351 -0.24743444 0.10251309
v -0.24694918 -0.09439406 0.09581453
v -0.22928300 -0.09892137 -0.18049368
v -0.31243274 0.15527628 0.00120368
v -0.30983442 0.22304159 0.10039137
v -0.31249079 0.15063988 -0.10708593
v -0.21614863 0.03299761 0.12711383
v -0.24987847 -0.24553113 -0.22180313
v -0.30782872 0.16057749 -0.15294711
v -0.25670284 -0.26109731 0.15420000
v -0.27621415 0.21889475 -0.25751513
v -0.29940900 0.24117503 -0.24392021
v -0.32016242 -0.76963323 0.04967153
v 0.74328649 0.29398814 0.19287327
v 0.68541431 0.38345295 0.14944422
v 0.66260177 0.24163841 0.18122785
v 0.80110723 0.38711387 0.18660039
v 0.76335108 0.18997000 0.23821664
v 0.80732155 0.28843123 0.20117940
v 0.85637975 0.38664088 0.19740093
v 0.89883095 0.27556723 0.22754987
v 0.83058840 0.22385585 0.23388080
v 0.78995144 0.24190114 0.21176730
v 0.74084640 0.13448167 0.22211379
v 0.81457871 0.16500713 0.21925081
v 0.89478791 0.17385764 0.20577157
v 0.75832480 0.11079484 0.20380196
v 0.64946234 0.26901489 0.12729071
v 0.65237343 0.37999615 0.09592360
v 0.56020296 0.31822726 0.12379730
v 0.56821942 0.39691600 0.09039487
v 0.59482425 0.21461691 0.11391570
v 0.65593022 0.18010734 0.07082000
v -0.14861910 -0.66423100 0.03005920
v -0.12657508 -0.78121221 -0.05108557
v -0.11166427 -0.66454941 -0.10301485
v -0.16024609 -0.77371895 0.02170034
v -0.16566457 -0.81671584 -0.01818049
v -0.14637695 -0.77864134 -0.17154594
v -0.15023546 -0.83358037 -0.10483263
v -0.19426098 -0.86463642 0.00722887
v -0.17266300 -1.00123441 -0.05170011
v -0.15230839 -0.99795371 -0.16598971
v -0.20861453 -0.92449945 0.07979922
v -0.20672515 -1.00053775 0.16285656
v -0.24893855 -0.93552440 0.22952577
v -0.23064196 -0.98429054 0.23073123
v -0.23664823 -0.81057972 0.03603120
v -0.23200071 -0.77536404 0.06713629
v -0.16757327 -0.65176105 -0.19408263
v -0.19249099 -0.83761424 -0.17674372
v -0.08444959 -0.63051295 0.00917801
v -0.08392852 -0.62238735 -0.14960231
v -0.07739541 -0.56630272 -0.07878715
v -0.07696839 -0.50986302 -0.01890030
v -0.05578773 -0.36410940 -0.07546229
v -0.05698817 -0.30388111 0.05475923
v -0.11517592 -0.49597996 0.06954619
v -0.08124531 -0.29811385 0.10111134
v -0.02997834 -0.31448480 -0.04803395
v -0.06096734 -0.29774460 -0.15217403
v -0.15698732 -0.63183326 0.10236346
v -0.11831389 -0.51498413 -0.17780414
v -0.11773600 -0.33426133 -0.17662214
v -0.14539495 -0.61346543 -0.23335586
v 0.09564035 -0.66442513 0.01834731
v 0.06536333 -0.66419172 -0.08141916
v 0.07774124 -0.78006047 -0.06383949
v 0.11158263 -0.78083128 0.01493606
v 0.10776325 -0.83674437 -0.08756273
v 0.11846057 -0.81060135 -0.01362868
v 0.15053393 -0.86669755 0.00713270
v 0.12584297 -1.00140059 -0.04342686
v 0.10684150 -0.99963957 -0.17088647
v 0.10050278 -0.78970498 -0.14438072
v 0.15362486 -0.99972689 0.12124593
v 0.16741410 -0.92713600 0.10407670
v 0.17721336 -0.99051654 0.21850030
v 0.08438683 -0.65961027 -0.15167055
v 0.23748650 -0.91528761 0.23152396
v 0.19961010 -0.76796466 0.07213009
v 0.20282933 -0.64975953 0.08080593
v 0.20835683 -0.82418418 0.03337995
v 0.18656754 -0.87325299 0.03727800
v 0.15044236 -0.77007926 -0.21086064
v 0.28694284 -0.98052335 0.25144339
v 0.31160900 -0.49943545 0.01383144
v 0.30973494 -0.49798790 -0.11440682
v 0.28962001 -0.35735199 -0.01308588
v 0.34811601 -0.59262544 -0.04055531
v 0.33672091 -0.58479887 -0.15719029
v 0.25822404 -0.35636765 -0.15041642
v 0.26738825 -0.26204228 -0.04969927
v 0.24243271 -0.26014486 -0.13799669
v 0.24157661 -0.26556280 0.07818456
v 0.26992288 -0.48436028 -0.18458490
v 0.29336926 -0.57464868 -0.23004368
v 0.30585569 -0.60791665 0.08272851
v 0.27711233 -0.49731502 0.07415828
v 0.20362212 -0.25620484 -0.18011674
v 0.31235221 -0.64069253 0.00254328
v 0.32247898 -0.65112293 -0.10807139
v 0.34283343 -0.76323617 -0.05662015
v 0.31932494 -0.76978904 -0.14539273
v 0.29732534 -0.64199919 -0.16290204
v 0.28619894 -0.68004173 -0.18993498
v 0.31977347 -0.79349571 -0.10755137
v 0.27901354 -0.75642890 -0.20393340
v 0.27628636 -0.79623151 -0.17949429
v 0.33395779 -1.00142694 -0.17660683
v 0.33392292 -0.90337503 -0.07424866
v 0.35260400 -1.00049412 -0.04352721
v 0.32872784 -0.89159620 -0.01045133
v 0.35634422 -0.92775679 0.12028263
v 0.36029598 -1.00055575 0.16569015
v 0.29814202 -0.84334582 -0.00699747
v 0.30365524 -0.79356503 0.00206855
v 0.28121823 -0.97884864 -0.22507332
v 0.28694284 -0.98052335 0.25144339
v 0.28724390 -1.00184166 -0.21352196
v 0.66781062 0.20440401 -0.18829292
v 0.66917390 0.25564477 -0.21299173
v 0.77412021 0.17181362 -0.23603554
v 0.80276877 0.33552542 -0.25443980
v 0.66888565 0.31809807 -0.21854968
v 0.90562600 0.21559083 -0.24769996
v 0.72391212 0.37769163 -0.22168778
v 0.64474261 0.38166347 -0.21183430
v 0.87049931 0.37404403 -0.24782771
v 0.63636470 0.15169272 -0.16210166
v 0.63641006 0.32271242 -0.25039786
v 0.63842118 0.23676606 -0.24164163
v 0.56919700 0.29918039 -0.25422037
v 0.56507641 0.16808236 -0.19196221
v 0.55474895 0.38494998 -0.20311296
v -0.27613071 -0.61240536 0.12771516
v -0.17935744 -0.51155776 0.10777601
v -0.25966391 -0.50702369 0.10577748
v -0.16395988 -0.35442621 0.11838184
v -0.15698732 -0.63183326 0.10236346
v -0.28739822 -0.36418593 0.08736347
v -0.23277691 -0.26216590 0.12116152
v -0.15788756 -0.25205934 0.15320268
v -0.34141323 -0.59972185 0.08951908
v -0.34887451 -0.50416803 0.04623389
v -0.29712963 -0.26887551 0.05811997
v -0.32513106 -0.64522010 0.04185508
v -0.25596979 -0.65196496 0.07235654
v -0.32016242 -0.76963323 0.04967153
v -0.23200071 -0.77536404 0.06713629
v -0.14861910 -0.66423100 0.03005920
v -0.23664823 -0.81057972 0.03603120
v -0.26564676 -0.85174716 0.03381206
v -0.19426098 -0.86463642 0.00722887
v -0.34173131 -0.83359462 -0.01301914
v 0.00221432 -0.25642174 0.16788533
v 0.04793314 -0.30469066 0.10120291
v 0.09653843 -0.25521162 0.15509194
v 0.05265776 -0.24174416 0.17604119
v -0.08124531 -0.29811385 0.10111134
v -0.09242475 -0.22906469 0.17534652
v 0.11874869 -0.29885980 0.12943700
v -0.02231544 -0.15265341 0.19344459
v -0.11517592 -0.49597996 0.06954619
v 0.13885260 -0.46080771 0.10964432
v 0.07039645 -0.49848282 0.07083511
v 0.15077487 -0.61055797 0.12114827
v 0.07584029 -0.63351047 0.06969777
v 0.02565092 -0.34182444 0.04528643
v 0.01035670 -0.30298010 0.06247521
v 0.02827645 -0.62913787 -0.01750308
v 0.03188860 -0.54024553 -0.04237704
v -0.53079557 0.38409987 -0.12136915
v -0.53377378 0.38291988 0.00689290
v -0.41597784 0.41332772 -0.01779017
v -0.41014543 0.40078878 -0.17005382
v -0.58944744 0.39890760 -0.00417826
v -0.59193403 0.37972409 -0.16255088
v -0.53442603 0.33448717 -0.19555394
v -0.40439802 0.36544001 0.06054319
v -0.39080688 0.33941674 -0.22249411
v -0.59075612 0.31365043 -0.21197113
v -0.40204039 0.44635603 -0.06102620
v -0.28892824 0.44050211 0.02188952
v -0.30076495 0.45719525 -0.12357818
v -0.39842984 0.42897582 0.02754414
v -0.19901010 0.47443700 -0.09629948
v -0.20386124 0.46371830 -0.01448521
v -0.18056916 0.40843803 0.09979507
v -0.39531723 0.42729393 -0.17669846
v -0.25993100 0.44745055 -0.17270574
v -0.17744662 0.46678865 -0.14827523
v -0.12716150 0.45188639 -0.19065322
v -0.18819498 0.44042826 0.02205344
v -0.14053771 0.39410514 0.09824958
v -0.27996016 0.40717167 -0.21587622
v -0.09167387 0.42591980 -0.22803344
v -0.37920013 0.37858957 -0.23153564
v -0.01989975 0.50340569 -0.21654312
v -0.77202827 0.20309705 -0.22615157
v -0.81035936 0.34833825 -0.24225354
v -0.71590382 0.29571456 -0.22441903
v -0.69568133 0.22110127 -0.22979049
v -0.81581914 0.19165301 -0.24850316
v -0.92637348 0.32993582 -0.25726855
v -0.93813705 0.21363305 -0.24985155
v -0.88519335 0.38216069 -0.23981430
v -0.70796508 0.39508325 -0.17396732
v -0.67500424 0.32018811 -0.25406370
v -0.60674322 0.25606045 -0.24677178
v -0.61471635 0.38731971 -0.21813902
v -0.69031781 0.41830912 -0.18383461
v -0.68755567 0.16994047 -0.19204290
v -0.60638350 0.19596013 -0.21079886
v 0.75972086 0.17101984 -0.07786503
v 0.85892689 0.14651659 -0.03715939
v 0.76108927 0.16446969 0.02618743
v 0.81998384 0.15275660 -0.11728069
v 0.66777575 0.17014115 0.00872781
v 0.67137527 0.16915825 -0.08211923
v 0.66895241 0.17722765 -0.13003013
v 0.77412021 0.17181362 -0.23603554
v 0.85235262 0.15540960 -0.18315823
v 0.90471703 0.16388246 -0.12654151
v 0.71915191 0.13341461 0.08565798
v 0.77801383 0.13255922 0.08763137
v 0.75832480 0.11079484 0.20380196
v 0.66781062 0.20440401 -0.18829292
v 0.82510364 0.14410836 0.16080014
v 0.65593022 0.18010734 0.07082000
v 0.74084640 0.13448167 0.22211379
v 0.90562600 0.21559083 -0.24769996
v 0.90449321 0.19000463 -0.18806724
v 0.78941274 0.19052081 0.07056881
v 0.85325259 0.14664038 0.03355787
v 0.63636470 0.15169272 -0.16210166
v 0.56217808 0.13085184 -0.06242187
v 0.56507641 0.16808236 -0.19196221
v 0.64075291 0.13656102 -0.01545996
v 0.56448972 0.16007863 0.04771703
v 0.63842118 0.23676606 -0.24164163
v 0.59482425 0.21461691 0.11391570
v 0.81457871 0.16500713 0.21925081
v 0.89478791 0.17385764 0.20577157
v 0.32476044 0.18896855 0.01841655
v 0.31880736 0.17537123 -0.05211831
v 0.48074627 0.18722101 -0.02334631
v 0.47560260 0.18789215 -0.12360963
v 0.31935290 0.18759732 -0.15521388
v 0.54358906 0.17385131 -0.00408361
v 0.54232574 0.18921867 -0.16115770
v 0.26273319 0.17400610 0.04485049
v 0.48942700 0.21717045 0.04376057
v 0.25321606 0.14326482 -0.11321811
v 0.25890702 0.14687020 -0.01861224
v 0.25983143 0.16415679 -0.15908195
v 0.54451841 0.23635340 0.07738330
v 0.33176577 0.26685864 0.08871841
v 0.25865439 0.25510862 0.11722618
v 0.18744032 0.10498125 0.13492499
v 0.19725600 0.03574818 -0.14883852
v 0.21880078 0.03592587 0.03974871
v 0.23207992 0.02331642 -0.05333856
v -0.98059678 0.31510410 -0.09117424
v -0.99122870 0.22759119 0.00123984
v -0.97143251 0.33315587 -0.01107671
v -0.95651448 0.40788898 -0.04720233
v -1.00185430 0.21849954 -0.06669860
v -0.94979399 0.38040078 0.09223389
v -0.98456740 0.27378014 0.08768792
v -0.95034951 0.39758375 -0.14742208
v -0.99054837 0.25061825 -0.15810791
v -0.97935086 0.20897920 0.09202053
v -0.98119968 0.18916114 -0.12773052
v -0.95961720 0.23485363 -0.22111462
v -0.92637348 0.32993582 -0.25726855
v -0.96167314 0.23568964 0.12408917
v -0.93750888 0.31753963 0.21551603
v -0.95858687 0.24284831 0.21832280
v -0.94615638 0.17421114 0.16887693
v -0.90620250 0.38113865 0.19954769
v -0.95982152 0.17412765 -0.00025301
v -0.93813705 0.21363305 -0.24985155
v -0.90947229 0.16036958 -0.20461661
v -0.95758772 0.16268097 -0.07334791
v -0.91688269 0.16498096 0.20931424
v -0.89726257 0.15243591 0.12430303
v 0.16916239 0.54208529 -0.10399625
v 0.16599530 0.70954484 -0.21123853
v 0.18631226 0.67685115 -0.11736669
v 0.14816003 0.53332138 -0.19052890
v 0.18878567 0.78216267 -0.15163630
v 0.17234825 0.82778919 -0.22941951
v 0.20496964 0.82407176 -0.07380193
v 0.18939012 0.69108957 -0.02142680
v 0.17979641 0.78137422 0.05463848
v 0.18581603 0.81133318 0.07090532
v 0.16857342 0.60645038 0.08068320
v 0.17808472 0.53492880 -0.01302658
v 0.16415240 0.47076356 0.06516420
v 0.15723735 0.46825960 -0.01740868
v 0.13817245 0.47050560 -0.12982973
v 0.13259122 0.57222366 0.18749781
v 0.12715256 0.44221708 0.18674453
v 0.12761503 0.50621235 -0.16840468
v 0.09185376 0.45520791 -0.18777668
v 0.14039740 0.44948530 0.02804625
v 0.24296838 0.63015604 -0.07918602
v 0.23183566 0.55824614 -0.10016678
v 0.07574151 0.83071876 -0.25766078
v -0.01989975 0.50340569 -0.21654312
v -0.02082196 0.53041345 -0.23596644
v -0.01607127 0.64748824 -0.24778938
v -0.09167387 0.42591980 -0.22803344
v -0.04051716 0.82710946 -0.27632841
v 0.20496964 0.82407176 -0.07380193
v 0.17234825 0.82778919 -0.22941951
v 0.14376333 0.91937095 -0.18980682
v 0.17218792 0.89990091 -0.01861647
v 0.18581603 0.81133318 0.07090532
v 0.14969586 0.89383149 0.15923624
v 0.12673594 0.79893947 0.18126705
v -0.03250946 0.41982421 0.16498575
v 0.07657105 0.43905556 0.12802345
v 0.04086679 0.42688414 0.22107999
v 0.12715256 0.44221708 0.18674453
v -0.03720171 0.41965863 0.24002461
v 0.16415240 0.47076356 0.06516420
v -0.12010077 0.43622050 0.12564197
v -0.18031976 0.44466552 0.18080527
v -0.16751942 0.45459238 0.06412891
v -0.21471453 0.47777089 0.05273419
v -0.19043754 0.46445775 0.02260946
v 0.14039740 0.44948530 0.02804625
v 0.23396538 -0.61283851 0.12544359
v 0.21473230 -0.46329978 0.10029969
v 0.13885260 -0.46080771 0.10964432
v 0.15077487 -0.61055797 0.12114827
v 0.11874869 -0.29885980 0.12943700
v 0.18047102 -0.26106000 0.11967840
v 0.09653843 -0.25521162 0.15509194
v 0.27711233 -0.49731502 0.07415828
v 0.24157661 -0.26556280 0.07818456
v 0.30585569 -0.60791665 0.08272851
v 0.27852425 -0.90354067 0.10359054
v 0.18656754 -0.87325299 0.03727800
v 0.16741410 -0.92713600 0.10407670
v 0.15053393 -0.86669755 0.00713270
v 0.29814202 -0.84334582 -0.00699747
v 0.23748650 -0.91528761 0.23152396
v 0.35634422 -0.92775679 0.12028263
v 0.32872784 -0.89159620 -0.01045133
v 0.28694284 -0.98052335 0.25144339
v 0.91141039 0.35562328 -0.16593003
v 0.90449321 0.19000463 -0.18806724
v 0.90562600 0.21559083 -0.24769996
v 0.87049931 0.37404403 -0.24782771
v 0.86458212 0.40891385 -0.15111232
v 0.92028064 0.37922913 -0.05345910
v 0.90261900 0.41391975 -0.00147621
v 0.95393533 0.24257003 -0.08643191
v 0.94353902 0.23925628 -0.15358379
v 0.94463491 0.26707363 -0.00762905
v 0.93424046 0.26132643 0.10093334
v 0.88631964 0.39725688 0.10872851
v 0.92336470 0.19599438 0.09047965
v 0.92856598 0.19232374 -0.01090886
v 0.90471703 0.16388246 -0.12654151
v 0.85325259 0.14664038 0.03355787
v 0.88120025 0.16470139 0.11419283
v 0.85892689 0.14651659 -0.03715939
v 0.82510364 0.14410836 0.16080014
v 0.89478791 0.17385764 0.20577157
v 0.91087270 0.27029124 0.12664546
v 0.89883095 0.27556723 0.22754987
v 0.85637975 0.38664088 0.19740093
v -0.76939988 0.14629473 0.19490443
v -0.70422810 0.18454470 0.06704476
v -0.71618509 0.24034263 0.18818399
v -0.69765055 0.29723865 0.12702061
v -0.80253154 0.18280764 0.23823403
v -0.80565619 0.10855767 0.21226887
v -0.77588511 0.13430274 0.07464076
v -0.61318076 0.33295310 0.12746392
v -0.65096468 0.20236458 0.10608564
v -0.58977383 0.29399258 0.09054034
v -0.60911149 0.18720561 0.08050308
v -0.64174789 0.13926637 0.01308972
v -0.69177037 0.12926458 -0.05636563
v -0.61745679 0.13798349 -0.12267265
v -0.59213406 0.17494081 0.01183181
v -0.59888017 0.14005528 -0.06094437
v -0.59067416 0.18411419 -0.14608113
v -0.60638350 0.19596013 -0.21079886
v 0.35167545 0.44311967 -0.13178179
v 0.25625873 0.45259887 -0.01077780
v 0.35539785 0.43538600 -0.00311075
v 0.24461482 0.45728463 -0.13099748
v 0.15723735 0.46825960 -0.01740868
v 0.13817245 0.47050560 -0.12982973
v 0.09185376 0.45520791 -0.18777668
v 0.23640956 0.43008384 -0.19444527
v 0.35223719 0.43219575 -0.16729335
v 0.14039740 0.44948530 0.02804625
v 0.12054684 0.42908484 -0.21792534
v -0.01198015 0.41157445 -0.24784639
v -0.09167387 0.42591980 -0.22803344
v 0.32873204 0.36947837 -0.24026771
v 0.37291521 0.41462371 -0.07984937
v 0.36280134 0.40286961 -0.16716266
v 0.47463533 0.38702312 -0.09509768
v 0.48585311 0.36900619 -0.15820040
v 0.47545460 0.37806463 0.02404342
v 0.36106068 0.40104952 0.02773575
v 0.54317707 0.39239553 0.02677533
v 0.54426408 0.39099357 -0.13819382
v 0.20282933 -0.64975953 0.08080593
v 0.31235221 -0.64069253 0.00254328
v 0.30585569 -0.60791665 0.08272851
v 0.23396538 -0.61283851 0.12544359
v 0.15077487 -0.61055797 0.12114827
v 0.07584029 -0.63351047 0.06969777
v 0.09564035 -0.66442513 0.01834731
v 0.02827645 -0.62913787 -0.01750308
v 0.06536333 -0.66419172 -0.08141916
v 0.02320812 -0.62201023 -0.10147844
v 0.08438683 -0.65961027 -0.15167055
v 0.07569049 -0.61510462 -0.21058403
v 0.18995500 -0.65180004 -0.21292979
v 0.14399374 -0.60628253 -0.25191194
v -0.84036571 0.23976037 0.21426073
v -0.78677970 0.29645592 0.19119090
v -0.83103710 0.25458941 0.08701806
v 0.20835683 -0.82418418 0.03337995
v 0.30365524 -0.79356503 0.00206855
v 0.27583799 -0.77065527 0.05168541
v 0.19961010 -0.76796466 0.07213009
v 0.29814202 -0.84334582 -0.00699747
v 0.18656754 -0.87325299 0.03727800
v 0.20282933 -0.64975953 0.08080593
v 0.31235221 -0.64069253 0.00254328
v 0.34283343 -0.76323617 -0.05662015
v -0.58944744 0.39890760 -0.00417826
v -0.59193403 0.37972409 -0.16255088
v -0.60480380 0.44242236 -0.10714955
v -0.60282183 0.42074054 0.05497582
v -0.58977383 0.29399258 0.09054034
v -0.61318076 0.33295310 0.12746392
v -0.61471635 0.38731971 -0.21813902
v -0.59075612 0.31365043 -0.21197113
v -0.69765055 0.29723865 0.12702061
v -0.70695096 0.40188286 0.05970422
v -0.72911263 0.38422093 0.15061966
v -0.71618509 0.24034263 0.18818399
v 0.55972791 0.44286543 -0.01722194
v 0.55939990 0.43059406 -0.15044096
v 0.54426408 0.39099357 -0.13819382
v 0.54317707 0.39239553 0.02677533
v 0.55474895 0.38494998 -0.20311296
v 0.56821942 0.39691600 0.09039487
v 0.56020296 0.31822726 0.12379730
v 0.53714699 0.30363140 0.07360041
v 0.54451841 0.23635340 0.07738330
v 0.49622279 0.32633093 -0.20123187
v 0.01974692 -0.29539967 -0.15646917
v -0.02997834 -0.31448480 -0.04803395
v -0.06096734 -0.29774460 -0.15217403
v -0.14233650 -0.24941903 -0.21390715
v 0.10160994 -0.24507314 -0.21729147
v -0.07387920 -0.20869710 -0.22663352
v -0.00690800 -0.18050112 -0.23518987
v 0.07879749 -0.31863567 -0.17961234
v 0.01827321 -0.35444236 -0.10104926
v 0.16214457 -0.33165351 -0.18675922
v 0.20362212 -0.25620484 -0.18011674
v 0.25822404 -0.35636765 -0.15041642
v -0.03574151 -0.16848724 -0.23088212
v -0.02302491 -0.15628016 -0.26624373
v 0.08085839 -0.41119435 -0.19351934
v 0.14246562 -0.49986839 -0.22292693
v 0.06973729 -0.52280807 -0.17803328
v 0.26992288 -0.48436028 -0.18458490
v 0.07569049 -0.61510462 -0.21058403
v 0.14399374 -0.60628253 -0.25191194
v 0.23422794 -0.59726202 -0.25741485
v 0.29336926 -0.57464868 -0.23004368
v 0.23409268 -0.64506876 -0.19924447
v 0.18995500 -0.65180004 -0.21292979
v 0.28619894 -0.68004173 -0.18993498
v 0.27901354 -0.75642890 -0.20393340
v 0.15044236 -0.77007926 -0.21086064
v 0.22334228 -0.81151658 -0.19110045
v 0.08438683 -0.65961027 -0.15167055
v 0.15681295 -0.81549525 -0.18095289
v 0.16246288 -0.98779786 -0.21783555
v 0.28121823 -0.97884864 -0.22507332
v 0.27628636 -0.79623151 -0.17949429
v 0.28724390 -1.00184166 -0.21352196
v 0.29732534 -0.64199919 -0.16290204
v 0.10684150 -0.99963957 -0.17088647
v 0.10050278 -0.78970498 -0.14438072
v 0.01438388 -0.42298552 -0.06641904
v 0.02320812 -0.62201023 -0.10147844
v 0.03188860 -0.54024553 -0.04237704
v 0.78995144 0.24190114 0.21176730
v 0.78457630 0.26164377 0.08787138
v 0.74328649 0.29398814 0.19287327
v 0.04710278 -0.26418296 -0.27103809
v 0.10160994 -0.24507314 -0.21729147
v -0.00690800 -0.18050112 -0.23518987
v 0.01718143 -0.21621859 -0.28370902
v -0.02302491 -0.15628016 -0.26624373
v -0.71618509 0.24034263 0.18818399
v -0.84036571 0.23976037 0.21426073
v -0.80253154 0.18280764 0.23823403
v -0.78677970 0.29645592 0.19119090
v -0.72911263 0.38422093 0.15061966
v -0.90620250 0.38113865 0.19954769
v -0.85022086 0.29123926 0.19885519
v -0.86015463 0.18921629 0.23273899
v -0.93750888 0.31753963 0.21551603
v -0.95858687 0.24284831 0.21832280
v -0.91688269 0.16498096 0.20931424
v -0.84433073 0.13145906 0.21168734
v -0.80565619 0.10855767 0.21226887
v 0.56217808 0.13085184 -0.06242187
v 0.54358906 0.17385131 -0.00408361
v 0.54232574 0.18921867 -0.16115770
v 0.56507641 0.16808236 -0.19196221
v 0.56448972 0.16007863 0.04771703
v 0.54451841 0.23635340 0.07738330
v 0.54360259 0.25002319 -0.20912477
v 0.59482425 0.21461691 0.11391570
v 0.56020296 0.31822726 0.12379730
v -0.22092426 0.54222864 -0.10470638
v -0.28081781 0.58862031 -0.10869338
v -0.23429506 0.68179911 -0.11174747
v -0.28123012 0.65487003 -0.09914511
v -0.27028096 0.55156100 -0.06631283
v -0.78677970 0.29645592 0.19119090
v -0.85022086 0.29123926 0.19885519
v -0.83103710 0.25458941 0.08701806
v 0.74328649 0.29398814 0.19287327
v 0.78457630 0.26164377 0.08787138
v 0.80732155 0.28843123 0.20117940
v -0.27028096 0.55156100 -0.06631283
v -0.27352494 0.65794230 -0.06162743
v -0.28081781 0.58862031 -0.10869338
v -0.28123012 0.65487003 -0.09914511
v -0.23241583 0.65570205 -0.00509328
v -0.21626116 0.52260143 -0.02482132
v -0.23533180 0.70291775 -0.07502645
v 0.55474895 0.38494998 -0.20311296
v 0.56919700 0.29918039 -0.25422037
v 0.54360259 0.25002319 -0.20912477
v 0.56507641 0.16808236 -0.19196221
v -0.83103710 0.25458941 0.08701806
v -0.85022086 0.29123926 0.19885519
v -0.84036571 0.23976037 0.21426073
v 0.78995144 0.24190114 0.21176730
v 0.80732155 0.28843123 0.20117940
v 0.78457630 0.26164377 0.08787138
v 0.17808472 0.53492880 -0.01302658
v 0.16916239 0.54208529 -0.10399625
v 0.23183566 0.55824614 -0.10016678
v -0.14233650 -0.24941903 -0.21390715
v -0.14064132 -0.25571433 -0.23430142
v -0.07387920 -0.20869710 -0.22663352
v -0.04271964 -0.19376694 -0.25517172
v -0.06512219 -0.22837503 -0.28289914
v -0.03574151 -0.16848724 -0.23088212
v -0.02302491 -0.15628016 -0.26624373
v -0.24991426 -0.25637525 -0.17954278
v -0.30313209 -0.26011935 -0.10931826
v -0.32029861 -0.24380271 -0.11819187
v -0.24987847 -0.24553113 -0.22180313
v -0.22528870 -0.24931036 -0.23935866
v -0.32179260 -0.25174567 -0.05295466
v -0.15862718 -0.25887963 -0.26779845
v -0.09242475 -0.22906469 0.17534652
v -0.14540526 -0.26959035 0.18530817
v -0.15788756 -0.25205934 0.15320268
v -0.08199318 -0.25111106 0.21935739
v -0.02231544 -0.15265341 0.19344459
v -0.13685624 -0.25500095 0.21148737
v -0.25670284 -0.26109731 0.15420000
v -0.23277691 -0.26216590 0.12116152
v -0.29474351 -0.24743444 0.10251309
v -0.29712963 -0.26887551 0.05811997
v -0.09861735 -0.08264151 0.21138874
v -0.09203345 0.02450123 0.22271074
v -0.10535948 -0.08779869 0.18498129
v -0.10980593 0.02630786 0.18144068
v -0.08450711 0.00771402 0.22728708
v -0.08555411 -0.09286936 0.22528149
v -0.07790459 -0.11753636 0.19260077
v 0.04703555 -0.09549484 0.21661560
v 0.05352850 0.03475567 0.18657988
v 0.03891430 0.02246088 0.22565845
v 0.05015340 -0.10625254 0.18634561
v 0.03685908 -0.07729057 0.22901820
v -0.00584632 -0.03266195 0.19737823
v 0.01572962 -0.00457414 0.21936512
v -0.08450711 0.00771402 0.22728708
v 0.03891430 0.02246088 0.22565845
v -0.06523480 -0.05685657 0.21644174
v -0.08555411 -0.09286936 0.22528149
v -0.09203345 0.02450123 0.22271074
v 0.03685908 -0.07729057 0.22901820
v -0.07790459 -0.11753636 0.19260077
v 0.05015340 -0.10625254 0.18634561
v 0.04703555 -0.09549484 0.21661560
v -0.24893855 -0.93552440 0.22952577
v -0.30279431 -0.98202151 0.25101480
v -0.23064196 -0.98429054 0.23073123
v -0.33313540 -0.91542673 0.21886721
v -0.38151786 -0.98322356 0.20572236
v -0.26954415 -0.90255952 0.09156530
v -0.20861453 -0.92449945 0.07979922
v -0.39722720 -0.92301941 0.08293694
v -0.26564676 -0.85174716 0.03381206
v -0.34173131 -0.83359462 -0.01301914
v -0.19426098 -0.86463642 0.00722887
v -0.59072101 0.24575219 -0.20625751
v -0.60638350 0.19596013 -0.21079886
v -0.60674322 0.25606045 -0.24677178
v -0.59067416 0.18411419 -0.14608113
v -0.59075612 0.31365043 -0.21197113
v -0.61471635 0.38731971 -0.21813902
v -0.09203345 0.02450123 0.22271074
v -0.03044036 0.04145459 0.20360659
v -0.10980593 0.02630786 0.18144068
v 0.05352850 0.03475567 0.18657988
v 0.03891430 0.02246088 0.22565845
v -0.83481562 0.12380452 0.11440632
v -0.84023005 0.17141117 0.08659771
v -0.83668470 0.18107325 0.04240414
v 0.24243271 -0.26014486 -0.13799669
v 0.20362212 -0.25620484 -0.18011674
v 0.25212401 -0.24549264 -0.16317566
v 0.13961497 -0.25889766 -0.25929645
v 0.28709513 -0.24118845 -0.05397657
v 0.10160994 -0.24507314 -0.21729147
v 0.04710278 -0.26418296 -0.27103809
v 0.26738825 -0.26204228 -0.04969927
v 0.26040602 -0.24457656 0.08631075
v 0.24157661 -0.26556280 0.07818456
v 0.20297793 -0.25685638 0.15800829
v 0.18047102 -0.26106000 0.11967840
v 0.11325774 -0.26797679 0.20327143
v 0.09653843 -0.25521162 0.15509194
v 0.05265776 -0.24174416 0.17604119
v 0.03430871 -0.24610436 0.22064450
v 0.19054967 -0.24027799 -0.23079352
v -0.02231544 -0.15265341 0.19344459
v -0.04051716 0.82710946 -0.27632841
v -0.10450228 0.64911193 -0.22949766
v -0.21962824 0.82364511 -0.23189519
v -0.01607127 0.64748824 -0.24778938
v -0.21294796 0.69995368 -0.20616755
v -0.19477576 0.53487837 -0.19243853
v -0.02082196 0.53041345 -0.23596644
v -0.01989975 0.50340569 -0.21654312
v -0.17417143 0.51042074 -0.17558697
v -0.12716150 0.45188639 -0.19065322
v 0.25212401 -0.24549264 -0.16317566
v 0.23969293 -0.09657469 -0.03505785
v 0.28709513 -0.24118845 -0.05397657
v 0.22343490 -0.09495299 -0.11615879
v 0.23207992 0.02331642 -0.05333856
v 0.25177842 -0.17066468 0.03559492
v 0.21880078 0.03592587 0.03974871
v 0.26040602 -0.24457656 0.08631075
v 0.20311512 -0.09352375 0.09131665
v 0.02565092 -0.34182444 0.04528643
v 0.01438388 -0.42298552 -0.06641904
v 0.03188860 -0.54024553 -0.04237704
v -0.00155229 -0.31956986 -0.03619178
v 0.01035670 -0.30298010 0.06247521
v 0.01827321 -0.35444236 -0.10104926
v 0.02827645 -0.62913787 -0.01750308
v 0.07039645 -0.49848282 0.07083511
v 0.03188860 -0.54024553 -0.04237704
v 0.02320812 -0.62201023 -0.10147844
v -0.00155229 -0.31956986 -0.03619178
v 0.01035670 -0.30298010 0.06247521
v -0.05698817 -0.30388111 0.05475923
v -0.08124531 -0.29811385 0.10111134
v 0.04793314 -0.30469066 0.10120291
v -0.02997834 -0.31448480 -0.04803395
v 0.01827321 -0.35444236 -0.10104926
vt 0.58953267 0.99637109
vt 0.66198260 0.99685818
vt 0.58428043 0.91876119
vt 0.67357802 0.93044841
vt 0.54688019 0.92617291
vt 0.53590423 0.97589254
vt 0.55084747 0.99685818
vt 0.68574041 0.99268425
vt 0.69636524 0.96978813
vt 0.68574816 0.94108003
vt 0.21148635 0.97441649
vt 0.20031579 0.89852434
vt 0.13075806 0.90639877
vt 0.25975880 0.91190356
vt 0.24524374 0.89811492
vt 0.15565762 0.97334909
vt 0.25456193 0.97441649
vt 0.12229531 0.97034556
vt 0.10593972 0.93530416
vt 0.26728722 0.95350021
vt 0.21058011 0.39980322
vt 0.26480058 0.41488218
vt 0.21718459 0.44011128
vt 0.22732785 0.36197627
vt 0.29644403 0.44586933
vt 0.30892000 0.42743945
vt 0.25880226 0.36136997
vt 0.15486108 0.44037569
vt 0.14113015 0.42254168
vt 0.16906960 0.35593879
vt 0.12707700 0.43038082
vt 0.18935749 0.31371844
vt 0.21372634 0.31524074
vt 0.24548827 0.31862503
vt 0.16617766 0.26278341
vt 0.22938272 0.29583389
vt 0.18415642 0.25807899
vt 0.24028698 0.27193773
vt 0.25661683 0.48250735
vt 0.21832369 0.49116898
vt 0.14030911 0.46516174
vt 0.10546916 0.47279716
vt 0.16635439 0.31016910
vt 0.10393578 0.43042278
vt 0.30910543 0.46101362
vt 0.29087439 0.35881495
vt 0.27815893 0.29720575
vt 0.26954296 0.26140559
vt 0.30037865 0.31506276
vt 0.29205567 0.26469195
vt 0.30925730 0.49630225
vt 0.33876151 0.46373200
vt 0.31839156 0.43499786
vt 0.34404156 0.48571479
vt 0.33875421 0.42070532
vt 0.34540841 0.44058466
vt 0.17358463 0.49765515
vt 0.24504885 0.49955118
vt 0.30122980 0.26643884
vt 0.13479207 0.49944139
vt 0.22086826 0.27459919
vt 0.21258122 0.25881243
vt 0.35190737 0.47207624
vt 0.40889576 0.44768208
vt 0.40759519 0.47174525
vt 0.42977074 0.46369624
vt 0.43040779 0.43770301
vt 0.40734321 0.42176855
vt 0.31570309 0.35777974
vt 0.14279696 0.35129845
vt 0.09692501 0.46600866
vt 0.06703119 0.45622182
vt 0.04668809 0.43017310
vt 0.04421379 0.45830560
vt 0.02676762 0.43430388
vt 0.02598312 0.47914374
vt 0.02475789 0.40929043
vt 0.08551644 0.49104941
vt 0.04481020 0.47884184
vt 0.02437943 0.48594105
vt 0.13851932 0.26079977
vt 0.13281994 0.31005448
vt 0.10038783 0.39936167
vt 0.11880869 0.39059293
vt 0.04697254 0.39754772
vt 0.09018372 0.49955118
vt 0.36748883 0.49914473
vt 0.11201848 0.34582138
vt 0.14103197 0.73363429
vt 0.12541972 0.78241664
vt 0.08022357 0.76045072
vt 0.08866335 0.72203660
vt 0.03996965 0.73723096
vt 0.04769839 0.71414447
vt 0.16719086 0.71333319
vt 0.02792553 0.77585387
vt 0.07494889 0.80340576
vt 0.04395057 0.81633651
vt 0.16228139 0.77840883
vt 0.12099081 0.83578396
vt 0.05475562 0.83617592
vt 0.17154656 0.82568228
vt 0.18210523 0.77274179
vt 0.10846228 0.70279205
vt 0.20728792 0.73250663
vt 0.20705101 0.83617592
vt 0.19935319 0.69883305
vt 0.21498227 0.77316499
vt 0.71604699 0.44388413
vt 0.74195045 0.49943483
vt 0.74241960 0.45594418
vt 0.74078310 0.40197873
vt 0.72474021 0.39383984
vt 0.70062393 0.43097711
vt 0.68042552 0.38031232
vt 0.71202749 0.49698031
vt 0.67420214 0.42495668
vt 0.76528704 0.47275555
vt 0.78780246 0.51395220
vt 0.77787769 0.46617997
vt 0.80976653 0.47317308
vt 0.81604612 0.51509196
vt 0.77777892 0.41915810
vt 0.80832911 0.41735697
vt 0.75144440 0.40988243
vt 0.75338441 0.51306427
vt 0.71843570 0.51123023
vt 0.75173783 0.54685241
vt 0.68860251 0.53968680
vt 0.68127507 0.50965726
vt 0.80142856 0.54802513
vt 0.74884814 0.38900936
vt 0.77639437 0.39347923
vt 0.79529876 0.39127880
vt 0.80501729 0.40568441
vt 0.73577440 0.38504982
vt 0.73846418 0.37671936
vt 0.72050476 0.37568498
vt 0.71342921 0.34874326
vt 0.69604665 0.35891473
vt 0.69937104 0.44397211
vt 0.68057281 0.49568844
vt 0.67711306 0.43698454
vt 0.81604612 0.38232589
vt 0.76974589 0.44929993
vt 0.76142079 0.43309629
vt 0.84583056 0.44660544
vt 0.87331289 0.45228016
vt 0.85158432 0.41354370
vt 0.84830457 0.48579895
vt 0.88597107 0.50392270
vt 0.90432882 0.51032317
vt 0.91889489 0.48094893
vt 0.92952126 0.44331002
vt 0.92337936 0.39028358
vt 0.85581219 0.38069558
vt 0.87861609 0.35812187
vt 0.92952126 0.35502696
vt 0.85126734 0.35891652
vt 0.83846253 0.46625543
vt 0.84440702 0.38198936
vt 0.82222581 0.35545558
vt 0.81896418 0.37820858
vt 0.83877540 0.41442841
vt 0.81281400 0.42080128
vt 0.83513826 0.44722277
vt 0.81161350 0.45865959
vt 0.72728437 0.80644053
vt 0.72579670 0.86421698
vt 0.75279063 0.84624892
vt 0.75860399 0.80785185
vt 0.77389824 0.88004291
vt 0.69246918 0.81639588
vt 0.69457263 0.79105186
vt 0.74200660 0.78217262
vt 0.77362525 0.82961720
vt 0.76682425 0.78507364
vt 0.78066576 0.81630409
vt 0.78658986 0.82983583
vt 0.80326325 0.81461036
vt 0.67672974 0.83965844
vt 0.67065603 0.86522102
vt 0.78512740 0.85370660
vt 0.67215973 0.82231587
vt 0.72452283 0.76795334
vt 0.80132818 0.83697850
vt 0.83289009 0.84909981
vt 0.83289009 0.83333248
vt 0.83156419 0.80619574
vt 0.81778967 0.79610330
vt 0.79962134 0.77963382
vt 0.67080313 0.77759790
vt 0.73113459 0.88251019
vt 0.68791366 0.87720346
vt 0.70763838 0.90260321
vt 0.67508483 0.90111989
vt 0.77620232 0.61442256
vt 0.75300175 0.62490553
vt 0.75494027 0.67565125
vt 0.77857929 0.67580491
vt 0.73448581 0.68029517
vt 0.73947054 0.62001580
vt 0.73828965 0.69139999
vt 0.80388200 0.62883902
vt 0.82775849 0.60968196
vt 0.80416274 0.66968882
vt 0.82841933 0.66380036
vt 0.82968813 0.61930621
vt 0.77357805 0.60113055
vt 0.77598834 0.55663669
vt 0.80738616 0.55188197
vt 0.83470184 0.54982048
vt 0.82718158 0.67715317
vt 0.77899319 0.68791497
vt 0.82823139 0.71691436
vt 0.79261142 0.72037703
vt 0.77119446 0.71845889
vt 0.88286835 0.60443372
vt 0.85636705 0.67041039
vt 0.85586339 0.68128359
vt 0.86691254 0.71847492
vt 0.88389671 0.68818498
vt 0.87842304 0.67614996
vt 0.88017607 0.61640072
vt 0.88696808 0.55939722
vt 0.86634129 0.61661786
vt 0.88696808 0.71759969
vt 0.38115147 0.85089266
vt 0.37915623 0.90859067
vt 0.35425282 0.86331737
vt 0.39740601 0.91196030
vt 0.42061999 0.84160250
vt 0.42964041 0.90623200
vt 0.44991136 0.84562498
vt 0.31856465 0.90720689
vt 0.36483154 0.82360864
vt 0.33010790 0.82458222
vt 0.29753596 0.84629768
vt 0.41440609 0.82582515
vt 0.39415249 0.92249477
vt 0.35932148 0.92218709
vt 0.39406306 0.94748652
vt 0.34101531 0.94748652
vt 0.31607834 0.91713762
vt 0.30001730 0.94211173
vt 0.28501773 0.82599962
vt 0.43098292 0.94203383
vt 0.43897232 0.91222811
vt 0.20987235 0.16783619
vt 0.22610827 0.20276964
vt 0.19972844 0.20204240
vt 0.24883644 0.16559559
vt 0.25349429 0.21864939
vt 0.27764022 0.16613245
vt 0.30713442 0.19658285
vt 0.27373910 0.23575699
vt 0.30898032 0.22634816
vt 0.32935452 0.19536424
vt 0.33967859 0.22052157
vt 0.30829787 0.17472738
vt 0.33700505 0.17638505
vt 0.34419015 0.20383042
vt 0.41605344 0.18345618
vt 0.39721733 0.22037441
vt 0.35504940 0.23172426
vt 0.42331561 0.22122169
vt 0.16783522 0.17025208
vt 0.16118167 0.20336998
vt 0.32352993 0.26077199
vt 0.18241455 0.22572064
vt 0.15481795 0.24098217
vt 0.11728503 0.21325594
vt 0.13080978 0.17691785
vt 0.23596218 0.22504312
vt 0.11465645 0.26077199
vt 0.08915602 0.23022866
vt 0.08028254 0.25382233
vt 0.28362492 0.26015198
vt 0.35425380 0.24777526
vt 0.26661319 0.24365109
vt 0.08694583 0.19779605
vt 0.20841180 0.21273988
vt 0.17961453 0.25019276
vt 0.16776459 0.23933762
vt 0.10887329 0.17584831
vt 0.21017976 0.24508214
vt 0.24675559 0.25208938
vt 0.24321511 0.13720709
vt 0.20350075 0.11050707
vt 0.23203018 0.10536224
vt 0.17584154 0.10715187
vt 0.25173792 0.10380703
vt 0.22677927 0.05761790
vt 0.25389344 0.05922359
vt 0.27058437 0.00053918
vt 0.23762231 0.00044882
vt 0.21279359 0.01151878
vt 0.20095827 0.04627556
vt 0.18381280 0.05888873
vt 0.18140747 0.01444477
vt 0.16402942 0.01393145
vt 0.17466325 0.06918329
vt 0.27411503 0.09664512
vt 0.13964075 0.06962824
vt 0.28144029 0.12517262
vt 0.12164303 0.01564097
vt 0.13748059 0.11188090
vt 0.39645684 0.14899111
vt 0.28811461 0.05628216
vt 0.42103356 0.15770119
vt 0.30064183 0.00420386
vt 0.07779597 0.23024118
vt 0.02651012 0.20467901
vt 0.03359559 0.24990362
vt 0.00940788 0.21246135
vt 0.01645011 0.25903797
vt 0.00044326 0.16479224
vt 0.11957783 0.07238591
vt 0.09721157 0.10640508
vt 0.07541355 0.15148431
vt 0.02109202 0.16368842
vt 0.30973729 0.09729660
vt 0.31292710 0.03134274
vt 0.33092335 0.06024241
vt 0.65078682 0.42365277
vt 0.62582082 0.41470790
vt 0.62907225 0.44593823
vt 0.64324731 0.37374407
vt 0.61215693 0.37664604
vt 0.65381259 0.47012913
vt 0.61703587 0.47385645
vt 0.67255473 0.43202126
vt 0.67686170 0.46875775
vt 0.67278379 0.37989080
vt 0.65954536 0.35301566
vt 0.62291282 0.34605026
vt 0.60385883 0.43754399
vt 0.59041095 0.36554414
vt 0.64020306 0.49196523
vt 0.58289009 0.46990412
vt 0.62085497 0.49283481
vt 0.64393431 0.53053576
vt 0.67686170 0.49581248
vt 0.67320329 0.53506106
vt 0.60685360 0.53310966
vt 0.65132809 0.55072314
vt 0.61852992 0.55543202
vt 0.62469453 0.58967662
vt 0.67149830 0.55102807
vt 0.66612440 0.62342906
vt 0.61434847 0.61424762
vt 0.58911538 0.60523623
vt 0.07593153 0.29666066
vt 0.02388000 0.33427513
vt 0.07568094 0.35045177
vt 0.02291125 0.29507351
vt 0.00915597 0.33991832
vt 0.00356164 0.29098475
vt 0.00044326 0.34357131
vt 0.07452261 0.36597908
vt 0.02059721 0.35727859
vt 0.09831513 0.33594513
vt 0.09884752 0.29962277
vt 0.08150052 0.37156320
vt 0.09884752 0.35127831
vt 0.09396442 0.39093357
vt 0.00129867 0.37175035
vt 0.06913787 0.38552439
vt 0.09246516 0.25987434
vt 0.46374458 0.18063104
vt 0.48096287 0.22324556
vt 0.49406281 0.18582845
vt 0.46844375 0.15066063
vt 0.50072581 0.15347195
vt 0.44525674 0.22832263
vt 0.44965291 0.15032685
vt 0.45612821 0.25901675
vt 0.49646568 0.24253446
vt 0.49345267 0.26559973
vt 0.52587545 0.19183832
vt 0.52696532 0.15551764
vt 0.51265746 0.26377892
vt 0.52977550 0.24072701
vt 0.54366314 0.19229084
vt 0.49415603 0.13131070
vt 0.55550462 0.15913522
vt 0.54077411 0.26808858
vt 0.52508157 0.13653880
vt 0.51089591 0.09603775
vt 0.47703883 0.09664649
vt 0.54696971 0.09856892
vt 0.46087489 0.13175702
vt 0.54256821 0.13699168
vt 0.54064953 0.08388406
vt 0.51360273 0.07983488
vt 0.55806738 0.01303917
vt 0.51826090 0.00850081
vt 0.48500457 0.04397482
vt 0.45131534 0.03142971
vt 0.42457274 0.00224417
vt 0.48175791 0.06982976
vt 0.40853423 0.00980085
vt 0.39937943 0.03786045
vt 0.46195671 0.26869762
vt 0.48137799 0.28479207
vt 0.51584774 0.26853967
vt 0.50279528 0.32246447
vt 0.47630003 0.32164907
vt 0.46644592 0.35424584
vt 0.49256372 0.36386955
vt 0.46245179 0.36515617
vt 0.52205819 0.37190998
vt 0.49298638 0.38736671
vt 0.44172037 0.26801878
vt 0.44005150 0.32140875
vt 0.54169405 0.32544041
vt 0.46618462 0.40990412
vt 0.42950824 0.42841434
vt 0.50301152 0.41322511
vt 0.42415610 0.35496694
vt 0.55806738 0.27526116
vt 0.51810366 0.41885126
vt 0.42012516 0.26604909
vt 0.55640215 0.43958223
vt 0.54859024 0.44928187
vt 0.45871541 0.09070987
vt 0.93735325 0.24360311
vt 0.96485943 0.21761793
vt 0.91727239 0.21932936
vt 0.97058743 0.25750768
vt 0.90362942 0.25721109
vt 0.93892199 0.26514882
vt 0.97296101 0.27600980
vt 0.93863648 0.29667062
vt 0.91868210 0.27796829
vt 0.92258620 0.26279020
vt 0.88472956 0.25161457
vt 0.89884919 0.27566469
vt 0.90528786 0.30206466
vt 0.87544328 0.26058924
vt 0.92470729 0.19833577
vt 0.96719271 0.19655168
vt 0.94233400 0.16472173
vt 0.97296101 0.16589606
vt 0.90738010 0.17559296
vt 0.88684034 0.19244146
vt 0.60242164 0.22218132
vt 0.63780409 0.25348294
vt 0.64736700 0.21086848
vt 0.61233526 0.25692916
vt 0.62602377 0.27119458
vt 0.67728186 0.24671292
vt 0.65902680 0.27161789
vt 0.61843842 0.29114628
vt 0.64864367 0.33580482
vt 0.68927306 0.32801843
vt 0.59613073 0.31692797
vt 0.57245708 0.34964097
vt 0.54210991 0.32929170
vt 0.54624963 0.34756136
vt 0.59646773 0.27950692
vt 0.58668691 0.26720607
vt 0.68292314 0.20410490
vt 0.68881673 0.26923239
vt 0.61034554 0.20076287
vt 0.65664428 0.18951935
vt 0.63133180 0.17540675
vt 0.60805374 0.16267866
vt 0.61340624 0.11038101
vt 0.56683218 0.10409182
vt 0.57744437 0.16882563
vt 0.55039591 0.10846186
vt 0.59921271 0.09552419
vt 0.63078374 0.08123875
vt 0.57745570 0.21460330
vt 0.66183668 0.15187937
vt 0.65021533 0.09353578
vt 0.68927306 0.18661475
vt 0.77062297 0.34420085
vt 0.73736316 0.34425497
vt 0.74433547 0.30742776
vt 0.77063954 0.30681831
vt 0.73865813 0.28566134
vt 0.76425040 0.29517841
vt 0.77409130 0.27444804
vt 0.75426966 0.22797847
vt 0.71024156 0.22877735
vt 0.71849954 0.30109942
vt 0.81155020 0.22666067
vt 0.80758679 0.25298011
vt 0.84660971 0.22856724
vt 0.71383244 0.34361035
vt 0.85809201 0.26111257
vt 0.80377716 0.30658233
vt 0.81040806 0.34425497
vt 0.79682595 0.28530747
vt 0.78884035 0.26929444
vt 0.69104612 0.30362034
vt 0.88342196 0.24547386
vt 0.37500307 0.64820153
vt 0.37916455 0.68894821
vt 0.33072025 0.66217428
vt 0.40738392 0.66219383
vt 0.40825275 0.69729805
vt 0.33354309 0.70759225
vt 0.30096826 0.67725587
vt 0.30194980 0.70701617
vt 0.29565603 0.63538516
vt 0.37542769 0.71497375
vt 0.40745619 0.72332358
vt 0.40556470 0.62102437
vt 0.36970800 0.62649065
vt 0.29990104 0.72576302
vt 0.42200190 0.64432538
vt 0.43008590 0.68062723
vt 0.46552709 0.65906525
vt 0.47041586 0.68958783
vt 0.42893961 0.70090210
vt 0.44178200 0.70970827
vt 0.48043039 0.67662454
vt 0.46685666 0.71361846
vt 0.48060390 0.70737040
vt 0.55658436 0.70093870
vt 0.52091473 0.66360438
vt 0.55675262 0.65209961
vt 0.51681572 0.63991868
vt 0.53214693 0.59157252
vt 0.55895388 0.57555705
vt 0.49680084 0.63785201
vt 0.47917727 0.63589704
vt 0.54546571 0.72576302
vt 0.54620582 0.53545779
vt 0.55433244 0.72243720
vt 0.93302530 0.97516912
vt 0.93308663 0.95550984
vt 0.89299768 0.98101443
vt 0.88740027 0.92318743
vt 0.93411058 0.93277180
vt 0.84884751 0.96192545
vt 0.91698009 0.91038990
vt 0.94376224 0.91135532
vt 0.86570925 0.90742457
vt 0.93967760 0.99596047
vt 0.94841796 0.93292212
vt 0.94798106 0.95929635
vt 0.96922463 0.93909395
vt 0.97207445 0.98463851
vt 0.97207445 0.90709156
vt 0.17759746 0.61762947
vt 0.13548210 0.61003780
vt 0.15571426 0.59304792
vt 0.09991262 0.56982332
vt 0.15270132 0.64503741
vt 0.13689527 0.54848075
vt 0.10167033 0.53063703
vt 0.07698970 0.54076856
vt 0.19398861 0.60277903
vt 0.18261671 0.57126540
vt 0.12773082 0.51660681
vt 0.20673548 0.61968517
vt 0.18772218 0.63730788
vt 0.23206873 0.65214682
vt 0.21127328 0.67435443
vt 0.16332498 0.66913182
vt 0.22483383 0.68362635
vt 0.24225554 0.68473691
vt 0.23107061 0.70960504
vt 0.26196808 0.66076714
vt 0.02795004 0.56458354
vt 0.02803132 0.59697437
vt 0.00132979 0.58312768
vt 0.01017081 0.56793720
vt 0.06571474 0.57379997
vt 0.05254407 0.54146671
vt 0.00245315 0.60225201
vt 0.01895772 0.52768564
vt 0.11350378 0.62136197
vt 0.01397892 0.65800196
vt 0.04324237 0.66362703
vt 0.02179197 0.70960504
vt 0.05379377 0.70921600
vt 0.05010391 0.60690600
vt 0.04576879 0.59189296
vt 0.08635058 0.69947582
vt 0.08549102 0.67297274
vt 0.76900303 0.03215975
vt 0.72459310 0.03223753
vt 0.73295516 0.07461941
vt 0.78597510 0.07514381
vt 0.72761285 0.01277637
vt 0.78075910 0.00918007
vt 0.79987651 0.02785426
vt 0.70103115 0.07401901
vt 0.81427306 0.07609385
vt 0.80810535 0.00852782
vt 0.74824607 0.08598661
vt 0.72271162 0.12276280
vt 0.76956779 0.11775643
vt 0.72014523 0.08709890
vt 0.76239842 0.15197945
vt 0.73577619 0.15088451
vt 0.69466370 0.15733445
vt 0.78514212 0.08516777
vt 0.78713918 0.12950641
vt 0.78008288 0.15823668
vt 0.79687852 0.17399257
vt 0.72184604 0.15609002
vt 0.69281918 0.17106563
vt 0.80539703 0.11963785
vt 0.81427306 0.18412745
vt 0.80924529 0.08523947
vt 0.79631066 0.21768403
vt 0.96124756 0.65449876
vt 0.91401184 0.67516541
vt 0.92664331 0.63920689
vt 0.95161581 0.62889785
vt 0.96739167 0.67134696
vt 0.92415148 0.71499103
vt 0.96437681 0.71499103
vt 0.90422392 0.70173955
vt 0.88876843 0.63827980
vt 0.92030042 0.62240851
vt 0.93897331 0.59999996
vt 0.89624053 0.60424221
vt 0.88342196 0.63014716
vt 0.97207445 0.62574351
vt 0.96136898 0.59919208
vt 0.60217178 0.82190990
vt 0.58645976 0.78648919
vt 0.56580693 0.82157457
vt 0.61536801 0.79894674
vt 0.57216406 0.85464031
vt 0.60442656 0.85412407
vt 0.62243629 0.85405445
vt 0.65859032 0.81432825
vt 0.63822383 0.78678781
vt 0.61810285 0.76766485
vt 0.54446870 0.83689904
vt 0.54375595 0.81979644
vt 0.50733840 0.82235283
vt 0.64477485 0.85461038
vt 0.52571130 0.80061865
vt 0.55150038 0.86179435
vt 0.50044328 0.83268929
vt 0.66799647 0.76346499
vt 0.64297891 0.76436740
vt 0.55435288 0.80950230
vt 0.56305951 0.78648978
vt 0.63006341 0.87022978
vt 0.59579819 0.89322037
vt 0.63969225 0.89452422
vt 0.58141971 0.86774701
vt 0.55977756 0.89152658
vt 0.66799647 0.87104529
vt 0.53324413 0.88053864
vt 0.50565028 0.79589635
vt 0.51875901 0.77215242
vt 0.77446663 0.93275195
vt 0.77771133 0.95909780
vt 0.72165042 0.95143890
vt 0.72485203 0.98515397
vt 0.77588904 0.99430281
vt 0.69991136 0.94746661
vt 0.70368981 0.99955118
vt 0.79868722 0.92306107
vt 0.71744549 0.92744881
vt 0.80133772 0.98161143
vt 0.80278015 0.94875854
vt 0.79424447 0.99607283
vt 0.70042259 0.91481876
vt 0.76472473 0.89834529
vt 0.78629607 0.88824058
vt 0.83807695 0.89884591
vt 0.83723068 0.99955118
vt 0.84530139 0.93779409
vt 0.84219813 0.96766603
vt 0.88819885 0.78924721
vt 0.86008632 0.82088500
vt 0.89558256 0.81582582
vt 0.92065603 0.80256474
vt 0.85706604 0.79865336
vt 0.91357225 0.85052001
vt 0.87597227 0.84954250
vt 0.91618609 0.76854247
vt 0.86631966 0.76845241
vt 0.85514921 0.85184294
vt 0.84614122 0.77835441
vt 0.86132073 0.74542683
vt 0.89372283 0.73025137
vt 0.86329466 0.86590451
vt 0.89598531 0.89602983
vt 0.86989987 0.89912385
vt 0.84433031 0.88582009
vt 0.92065603 0.89062977
vt 0.83932465 0.82176358
vt 0.85415417 0.73327059
vt 0.83053380 0.74432772
vt 0.83416635 0.79705995
vt 0.84024549 0.90260321
vt 0.82668442 0.87102509
vt 0.66286820 0.73073155
vt 0.63667017 0.67313874
vt 0.66795099 0.68854344
vt 0.63520730 0.73076141
vt 0.66055924 0.65085280
vt 0.63540256 0.63240576
vt 0.68780500 0.63854146
vt 0.70081586 0.68704551
vt 0.72823066 0.65851390
vt 0.73454231 0.64900303
vt 0.73440051 0.71563238
vt 0.70180762 0.73628771
vt 0.72626126 0.76258373
vt 0.69651967 0.76256162
vt 0.64961529 0.75862509
vt 0.77349293 0.73109740
vt 0.76944292 0.77692997
vt 0.63560820 0.74399298
vt 0.62238342 0.76358217
vt 0.71204805 0.77303106
vt 0.68102193 0.70784354
vt 0.67706221 0.72622645
vt 0.60109454 0.63251823
vt 0.58132190 0.74828833
vt 0.57842177 0.73691553
vt 0.57580465 0.69791591
vt 0.55718082 0.77692997
vt 0.56060487 0.63636947
vt 0.95523047 0.41760075
vt 0.95573741 0.47082585
vt 0.98980498 0.45966446
vt 0.98493785 0.40054333
vt 0.95670855 0.36719096
vt 0.98980498 0.33889633
vt 0.96145219 0.32809699
vt 0.38292387 0.10578245
vt 0.41977340 0.12061584
vt 0.40837941 0.08795100
vt 0.43748751 0.10141778
vt 0.38191777 0.08034110
vt 0.44902483 0.14491075
vt 0.35264528 0.11949229
vt 0.33249274 0.10090107
vt 0.33589274 0.14119625
vt 0.31959221 0.14628768
vt 0.32769817 0.15574503
vt 0.44071802 0.15574503
vt 0.03904529 0.14390373
vt 0.04436060 0.09239423
vt 0.01921002 0.08692855
vt 0.01300443 0.13812548
vt 0.02015543 0.03098911
vt 0.04318237 0.02200675
vt 0.01285461 0.01481152
vt 0.06514025 0.10775119
vt 0.06693263 0.02739441
vt 0.06693263 0.14676839
vt 0.96089226 0.10176241
vt 0.98875159 0.13062459
vt 0.99955672 0.10386556
vt 0.99955672 0.14179242
vt 0.94994682 0.14407539
vt 0.97964704 0.05949575
vt 0.93529040 0.08958668
vt 0.93395388 0.13500053
vt 0.95760494 0.04263914
vt 0.89505482 0.14269125
vt 0.83950204 0.14738631
vt 0.84710175 0.16821587
vt 0.90166312 0.17369837
vt 0.91928059 0.14271057
vt 0.90542889 0.10613477
vt 0.91976953 0.08960563
vt 0.85995680 0.11279172
vt 0.85757405 0.13316095
vt 0.86911857 0.08836627
vt 0.86952591 0.05255657
vt 0.91773218 0.05105454
vt 0.84806049 0.05443078
vt 0.84434456 0.08750558
vt 0.83008087 0.12542063
vt 0.81735659 0.06901008
vt 0.83309317 0.04199821
vt 0.81608534 0.09351242
vt 0.81338650 0.02316165
vt 0.84119093 0.00923610
vt 0.87278903 0.04115546
vt 0.87800515 0.00493717
vt 0.91976953 0.01735514
vt 0.39214286 0.39565873
vt 0.37589487 0.34455431
vt 0.35444814 0.38722336
vt 0.33571512 0.36370945
vt 0.38284409 0.41786355
vt 0.40913120 0.40612102
vt 0.40594107 0.35414684
vt 0.31338653 0.34298003
vt 0.35581291 0.33589947
vt 0.32298762 0.32533222
vt 0.35582507 0.32148236
vt 0.38043007 0.31397092
vt 0.40811124 0.30994916
vt 0.40385947 0.27503026
vt 0.36268058 0.30090201
vt 0.38579187 0.28769422
vt 0.39320213 0.25515801
vt 0.40913120 0.23653501
vt 0.41536102 0.77253926
vt 0.38528192 0.73155552
vt 0.41827685 0.73009384
vt 0.38009471 0.77135599
vt 0.35227773 0.73269516
vt 0.34477890 0.76992810
vt 0.32953647 0.79012620
vt 0.37801030 0.79445654
vt 0.41613558 0.78466505
vt 0.34820276 0.71588868
vt 0.33983651 0.80311817
vt 0.29564375 0.81732494
vt 0.26817375 0.81030387
vt 0.41045034 0.81732494
vt 0.42875412 0.75597388
vt 0.42623311 0.78634739
vt 0.46491632 0.76246709
vt 0.46858287 0.78495085
vt 0.46687090 0.72152323
vt 0.42798749 0.71849251
vt 0.48980495 0.72164309
vt 0.48848286 0.77727813
vt 0.47452611 0.86220896
vt 0.51817375 0.85067928
vt 0.49607718 0.83168763
vt 0.46951133 0.84064889
vt 0.44901678 0.85966468
vt 0.44193262 0.89041424
vt 0.45988333 0.90160275
vt 0.44254023 0.92388511
vt 0.46713623 0.93593919
vt 0.45200929 0.95066661
vt 0.48077407 0.95629644
vt 0.47887653 0.98125529
vt 0.51817375 0.97297931
vt 0.50294518 0.99326748
vt 0.27437943 0.60727108
vt 0.27437943 0.63509876
vt 0.23537233 0.62525123
vt 0.71044111 0.21831280
vt 0.71992540 0.18320966
vt 0.73020965 0.19998544
vt 0.73167843 0.22666067
vt 0.70237124 0.18433261
vt 0.69370568 0.22666067
vt 0.77260637 0.22469449
vt 0.77231658 0.17737877
vt 0.72745377 0.16023338
vt 0.35553914 0.96246237
vt 0.30166391 0.97268617
vt 0.31922299 0.94928187
vt 0.37528634 0.95319951
vt 0.39032730 0.99685818
vt 0.40203902 0.98189884
vt 0.28235817 0.97077137
vt 0.28618762 0.99685818
vt 0.45509496 0.81373429
vt 0.41356382 0.81373429
vt 0.43424883 0.78859967
vt 0.48182625 0.80379456
vt 0.48879573 0.44569123
vt 0.44604141 0.46255505
vt 0.45381561 0.47541463
vt 0.50808877 0.45918518
vt 0.43306738 0.48299086
vt 0.52882415 0.45002526
vt 0.54742908 0.47333443
vt 0.53211546 0.48441350
vt 0.53995699 0.50583482
vt 0.43894324 0.50583482
vt 0.46539381 0.53866869
vt 0.45398772 0.50324452
vt 0.48074818 0.51906765
vt 0.51341921 0.51141495
vt 0.47287300 0.57365823
vt 0.51250947 0.53587663
vt 0.50873917 0.55821246
vt 0.45082521 0.55764961
vt 0.44518793 0.52428555
vt 0.44074202 0.58499217
vt 0.46037012 0.60365236
vt 0.42777166 0.61624777
vt 0.51681119 0.55208367
vt 0.52171987 0.56418395
vt 0.42013240 0.55397141
vt 0.38712004 0.56810725
vt 0.38700369 0.53882480
vt 0.38710627 0.61135745
vt 0.35620156 0.53941447
vt 0.35247466 0.56376493
vt 0.35181448 0.59115851
vt 0.35494339 0.61162186
vt 0.32915398 0.59172338
vt 0.33146444 0.57571715
vt 0.31227010 0.60601163
vt 0.28693259 0.59509706
vt 0.29572794 0.54933763
vt 0.27097836 0.56964517
vt 0.34332424 0.53331542
vt 0.27616861 0.54243690
vt 0.20738110 0.53045845
vt 0.20007120 0.57748353
vt 0.27145684 0.59161597
vt 0.18927304 0.57727468
vt 0.32466948 0.61624777
vt 0.21211654 0.50190341
vt 0.29180640 0.51898408
vt 0.42758158 0.50928783
vt 0.36435157 0.50298983
vt 0.39381364 0.49416518
vt 0.86657804 0.53815079
vt 0.90913123 0.53815079
vt 0.87634695 0.51570916
vt 0.97207445 0.74681967
vt 0.99423760 0.73204666
vt 0.99423760 0.77669996
vt 0.97499758 0.76616591
vt 0.98835862 0.78859967
vt 0.22473404 0.74658388
vt 0.26031831 0.77036768
vt 0.23934972 0.78282189
vt 0.25478348 0.74316555
vt 0.25326940 0.70511669
vt 0.30363476 0.74054134
vt 0.27180961 0.75610125
vt 0.25765756 0.78966868
vt 0.30176795 0.76501745
vt 0.29541600 0.79045188
vt 0.27100864 0.80745065
vt 0.24432927 0.80642110
vt 0.22934069 0.80745065
vt 0.93484044 0.77560526
vt 0.94761419 0.79725534
vt 0.95978051 0.74554598
vt 0.95148247 0.73342627
vt 0.93774045 0.81387198
vt 0.96165651 0.82879853
vt 0.98005319 0.72935367
vt 0.94524413 0.84355706
vt 0.98005319 0.85502690
vt 0.29989874 0.52199280
vt 0.31738189 0.50312585
vt 0.34707448 0.52199280
vt 0.33983487 0.50449300
vt 0.29831561 0.50044882
vt 0.49689716 0.59107661
vt 0.51817375 0.58572710
vt 0.51817375 0.62612206
vt 0.87261486 0.25628364
vt 0.83909577 0.27782762
vt 0.87898934 0.27782762
vt 0.67615539 0.06236529
vt 0.67603481 0.02679646
vt 0.66090423 0.05023652
vt 0.66349232 0.02692693
vt 0.69902480 0.02611142
vt 0.69902480 0.07226211
vt 0.67770761 0.00673252
vt 0.68661350 0.14497304
vt 0.66710991 0.11555552
vt 0.68424809 0.09783953
vt 0.68661350 0.06867146
vt 0.87012410 0.52019751
vt 0.83361387 0.50314182
vt 0.82668442 0.52019751
vt 0.32668439 0.31822264
vt 0.31072694 0.31238317
vt 0.32668439 0.27513468
vt 0.07845744 0.65574509
vt 0.10948581 0.65574509
vt 0.10656284 0.63330340
vt 0.09063826 0.10289288
vt 0.08435261 0.10635430
vt 0.10096189 0.12830174
vt 0.09846873 0.14317077
vt 0.08266575 0.13784993
vt 0.11037234 0.14463460
vt 0.10440089 0.15664274
vt 0.08512152 0.06476736
vt 0.09878960 0.03797293
vt 0.09156302 0.03327858
vt 0.07169551 0.07107806
vt 0.07047872 0.08136642
vt 0.11037233 0.02109516
vt 0.07156650 0.10611343
vt 0.57498962 0.45366263
vt 0.56195551 0.47174203
vt 0.57273728 0.47852957
vt 0.55912036 0.44736409
vt 0.58909577 0.42055655
vt 0.55363476 0.46580333
vt 0.56098771 0.51009554
vt 0.57435662 0.50641078
vt 0.57285279 0.52910000
vt 0.58909577 0.53366250
vt 0.28966039 0.93227839
vt 0.28359950 0.89497620
vt 0.29920211 0.93372566
vt 0.29920211 0.89362657
vt 0.28147164 0.90105569
vt 0.28373176 0.93625444
vt 0.29396185 0.94479352
vt 0.17660326 0.55249333
vt 0.18661347 0.50763017
vt 0.17263310 0.51193476
vt 0.18661347 0.55610412
vt 0.17154256 0.54623866
vt 0.50458997 0.93579453
vt 0.49587867 0.94531381
vt 0.52986962 0.95167464
vt 0.48713160 0.95438844
vt 0.52433866 0.92856508
vt 0.53235817 0.91630942
vt 0.53235817 0.95825851
vt 0.49031764 0.91885668
vt 0.53074211 0.90163267
vt 0.48625886 0.89901257
vt 0.48699409 0.91068125
vt 0.97958362 0.55630660
vt 0.96549314 0.57701266
vt 0.98980498 0.57070148
vt 0.95053858 0.55468231
vt 0.93521982 0.57854581
vt 0.96733105 0.50848466
vt 0.98941135 0.50554329
vt 0.92331558 0.51170391
vt 0.96616781 0.48210418
vt 0.93987787 0.46723521
vt 0.98980498 0.47463965
vt 0.37609056 0.13916141
vt 0.36075088 0.13049304
vt 0.38462564 0.12612212
vt 0.34884751 0.15125674
vt 0.39890724 0.14569795
vt 0.42420211 0.15125674
vt 0.85847294 0.52703601
vt 0.83748472 0.53549671
vt 0.86480498 0.54084378
vt 0.80895388 0.54084378
vt 0.81374580 0.52648115
vt 0.29742908 0.70691204
vt 0.29033688 0.68932903
vt 0.29742908 0.67549372
vt 0.13265321 0.86679476
vt 0.11884480 0.88020265
vt 0.12314034 0.86301118
vt 0.09389742 0.90350240
vt 0.15721336 0.84551126
vt 0.10910671 0.91573852
vt 0.09086879 0.93491924
vt 0.16074775 0.85463452
vt 0.20458694 0.84156191
vt 0.20406422 0.85146451
vt 0.23370813 0.85187221
vt 0.22522250 0.86425817
vt 0.25984037 0.87339324
vt 0.24714330 0.88561529
vt 0.25916076 0.89752352
vt 0.27526596 0.89696431
vt 0.10072875 0.88399398
vt 0.27254435 0.93491924
vt 0.01321567 0.97824889
vt 0.04291345 0.91918308
vt 0.07491387 0.98249549
vt 0.01285461 0.91579419
vt 0.07845744 0.93962044
vt 0.07845744 0.88301528
vt 0.01872761 0.87629271
vt 0.02083996 0.86627960
vt 0.07392309 0.87314773
vt 0.05913845 0.85233390
vt 0.65558511 0.00673252
vt 0.60416883 0.04965341
vt 0.65558511 0.04407036
vt 0.60314041 0.02188855
vt 0.56365997 0.04264224
vt 0.62928510 0.07430100
vt 0.55806738 0.07443267
vt 0.65425491 0.09212434
vt 0.60017037 0.09290844
vt 0.90334821 0.33438063
vt 0.86328650 0.31011128
vt 0.83023047 0.33438063
vt 0.89955658 0.30458176
vt 0.91799647 0.33355892
vt 0.87943476 0.29039496
vt 0.45242044 0.03904849
vt 0.39760637 0.03982460
vt 0.43298459 0.06418312
vt 0.46675533 0.06418312
vt 0.69149303 0.56910074
vt 0.68775827 0.60323936
vt 0.71032000 0.60041064
vt 0.71852839 0.61624777
vt 0.67508864 0.61624777
vt 0.70114112 0.56534380
vt 0.68416798 0.54533213
f 698/698 695/695 681/681
f 678/678 681/681 695/695
f 686/686 683/683 678/678
f 687/687 677/677 685/685
f 687/687 681/681 677/677
f 677/677 681/681 678/678
f 677/677 678/678 679/679
f 683/683 679/679 678/678
f 677/677 684/684 685/685
f 686/686 678/678 695/695
f 688/688 687/687 685/685
f 681/681 687/687 698/698
f 686/686 690/690 683/683
f 688/688 685/685 684/684
f 682/682 683/683 690/690
f 679/679 683/683 682/682
f 677/677 679/679 680/680
f 677/677 680/680 684/684
f 682/682 680/680 679/679
f 177/177 180/180 191/191
f 700/700 690/690 686/686
f 693/693 692/692 690/690
f 689/689 688/688 684/684
f 691/691 690/690 692/692
f 174/174 175/175 185/185
f 175/175 171/171 177/177
f 687/687 688/688 697/697
f 693/693 690/690 700/700
f 692/692 693/693 699/699
f 688/688 696/696 697/697
f 689/689 696/696 688/688
f 691/691 682/682 690/690
f 236/236 239/239 232/232
f 236/236 230/230 237/237
f 236/236 228/228 230/230
f 175/175 174/174 168/168
f 171/171 175/175 168/168
f 177/177 178/178 180/180
f 180/180 189/189 190/190
f 237/237 238/238 246/246
f 691/691 694/694 682/682
f 239/239 234/234 232/232
f 177/177 171/171 178/178
f 933/933 935/935 936/936
f 935/935 933/933 934/934
f 934/934 933/933 931/931
f 232/232 228/228 236/236
f 188/188 189/189 180/180
f 936/936 937/937 933/933
f 619/619 618/618 617/617
f 617/617 618/618 614/614
f 931/931 933/933 932/932
f 230/230 238/238 237/237
f 186/186 188/188 180/180
f 171/171 168/168 170/170
f 186/186 180/180 179/179
f 178/178 171/171 176/176
f 180/180 178/178 179/179
f 184/184 174/174 192/192
f 927/927 932/932 933/933
f 614/614 618/618 620/620
f 931/931 932/932 929/929
f 234/234 233/233 232/232
f 188/188 186/186 187/187
f 174/174 184/184 173/173
f 174/174 173/173 168/168
f 937/937 928/928 933/933
f 179/179 178/178 176/176
f 970/970 971/971 972/972
f 232/232 231/231 228/228
f 1048/1048 1049/1049 1050/1050
f 176/176 171/171 170/170
f 933/933 928/928 927/927
f 183/183 186/186 176/176
f 928/928 937/937 938/938
f 170/170 183/183 176/176
f 168/168 173/173 169/169
f 844/844 845/845 846/846
f 953/953 954/954 955/955
f 232/232 233/233 231/231
f 187/187 186/186 183/183
f 181/181 173/173 184/184
f 173/173 181/181 169/169
f 168/168 169/169 170/170
f 614/614 613/613 617/617
f 929/929 930/930 931/931
f 228/228 229/229 230/230
f 796/796 790/790 795/795
f 926/926 927/927 928/928
f 614/614 620/620 621/621
f 238/238 230/230 235/235
f 228/228 231/231 229/229
f 794/794 795/795 790/790
f 927/927 926/926 929/929
f 790/790 792/792 794/794
f 613/613 614/614 615/615
f 170/170 172/172 183/183
f 791/791 790/790 796/796
f 790/790 791/791 792/792
f 929/929 926/926 930/930
f 614/614 621/621 615/615
f 169/169 181/181 182/182
f 169/169 182/182 194/194
f 170/170 169/169 172/172
f 616/616 613/613 615/615
f 230/230 229/229 235/235
f 193/193 169/169 194/194
f 169/169 193/193 172/172
f 792/792 791/791 793/793
f 867/867 864/864 866/866
f 864/864 865/865 866/866
f 235/235 229/229 244/244
f 241/241 244/244 229/229
f 802/802 801/801 791/791
f 801/801 798/798 791/791
f 791/791 798/798 793/793
f 616/616 615/615 622/622
f 248/248 247/247 231/231
f 622/622 615/615 625/625
f 231/231 247/247 240/240
f 621/621 625/625 615/615
f 229/229 231/231 240/240
f 241/241 229/229 240/240
f 626/626 616/616 623/623
f 193/193 194/194 195/195
f 800/800 798/798 801/801
f 798/798 797/797 793/793
f 244/244 243/243 245/245
f 241/241 243/243 244/244
f 802/802 803/803 801/801
f 194/194 196/196 195/195
f 616/616 622/622 623/623
f 242/242 240/240 247/247
f 240/240 242/242 241/241
f 626/626 623/623 627/627
f 624/624 622/622 625/625
f 243/243 241/241 242/242
f 801/801 803/803 805/805
f 805/805 803/803 807/807
f 801/801 805/805 800/800
f 800/800 799/799 798/798
f 797/797 798/798 799/799
f 622/622 624/624 623/623
f 807/807 806/806 805/805
f 804/804 805/805 806/806
f 805/805 804/804 800/800
f 799/799 800/800 804/804
f 1040/1040 1038/1038 1037/1037
f 1037/1037 1038/1038 1039/1039
f 1037/1037 1039/1039 1041/1041
f 1041/1041 1039/1039 1042/1042
f 861/861 860/860 859/859
f 857/857 863/863 862/862
f 860/860 856/856 859/859
f 857/857 862/862 858/858
f 856/856 857/857 858/858
f 859/859 856/856 858/858
f 358/358 359/359 357/357
f 358/358 357/357 356/356
f 359/359 367/367 357/357
f 590/590 586/586 591/591
f 367/367 361/361 357/357
f 313/313 315/315 317/317
f 67/67 66/66 64/64
f 315/315 314/314 316/316
f 354/354 356/356 357/357
f 317/317 321/321 313/313
f 67/67 64/64 68/68
f 64/64 66/66 65/65
f 595/595 591/591 592/592
f 315/315 313/313 314/314
f 591/591 586/586 592/592
f 590/590 587/587 586/586
f 361/361 354/354 357/357
f 313/313 312/312 314/314
f 64/64 56/56 68/68
f 360/360 354/354 361/361
f 589/589 592/592 586/586
f 355/355 354/354 360/360
f 63/63 64/64 65/65
f 593/593 588/588 587/587
f 356/356 354/354 353/353
f 321/321 320/320 313/313
f 64/64 63/63 56/56
f 594/594 592/592 589/589
f 586/586 588/588 589/589
f 586/586 587/587 588/588
f 361/361 368/368 360/360
f 400/400 399/399 397/397
f 399/399 400/400 402/402
f 397/397 399/399 398/398
f 313/313 281/281 312/312
f 588/588 593/593 599/599
f 596/596 603/603 589/589
f 588/588 596/596 589/589
f 599/599 596/596 588/588
f 399/399 402/402 403/403
f 398/398 395/395 397/397
f 373/373 372/372 374/374
f 313/313 320/320 281/281
f 52/52 56/56 63/63
f 281/281 276/276 312/312
f 63/63 87/87 54/54
f 312/312 276/276 277/277
f 589/589 603/603 611/611
f 396/396 397/397 395/395
f 389/389 395/395 390/390
f 395/395 401/401 390/390
f 389/389 390/390 385/385
f 385/385 388/388 389/389
f 388/388 385/385 374/374
f 374/374 381/381 388/388
f 381/381 374/374 372/372
f 373/373 370/370 372/372
f 376/376 370/370 373/373
f 353/353 354/354 355/355
f 52/52 63/63 54/54
f 596/596 598/598 603/603
f 1033/1033 1029/1029 1031/1031
f 399/399 401/401 398/398
f 395/395 398/398 401/401
f 394/394 389/389 391/391
f 395/395 389/389 394/394
f 390/390 401/401 426/426
f 389/389 388/388 391/391
f 374/374 385/385 373/373
f 388/388 381/381 393/393
f 381/381 380/380 386/386
f 372/372 380/380 381/381
f 355/355 362/362 353/353
f 353/353 362/362 363/363
f 364/364 362/362 355/355
f 353/353 363/363 369/369
f 355/355 360/360 364/364
f 285/285 281/281 320/320
f 360/360 368/368 364/364
f 55/55 56/56 52/52
f 603/603 604/604 611/611
f 603/603 598/598 604/604
f 596/596 599/599 597/597
f 3/3 2/2 4/4
f 9/9 10/10 4/4
f 1030/1030 1027/1027 1029/1029
f 396/396 395/395 394/394
f 390/390 392/392 385/385
f 373/373 385/385 392/392
f 376/376 373/373 392/392
f 381/381 386/386 393/393
f 372/372 371/371 380/380
f 370/370 371/371 372/372
f 378/378 380/380 371/371
f 53/53 52/52 45/45
f 272/272 276/276 281/281
f 611/611 604/604 609/609
f 3/3 5/5 1/1
f 1034/1034 1035/1035 1033/1033
f 1034/1034 1033/1033 1031/1031
f 346/346 344/344 342/342
f 349/349 344/344 346/346
f 392/392 390/390 426/426
f 393/393 391/391 388/388
f 557/557 560/560 549/549
f 380/380 384/384 386/386
f 375/375 371/371 370/370
f 377/377 378/378 371/371
f 405/405 406/406 379/379
f 404/404 405/405 379/379
f 365/365 362/362 364/364
f 366/366 365/365 364/364
f 52/52 53/53 55/55
f 275/275 277/277 276/276
f 596/596 597/597 598/598
f 351/351 350/350 348/348
f 349/349 348/348 350/350
f 561/561 560/560 562/562
f 333/333 330/330 343/343
f 557/557 551/551 558/558
f 384/384 380/380 378/378
f 379/379 382/382 378/378
f 377/377 379/379 378/378
f 991/991 988/988 987/987
f 377/377 404/404 379/379
f 405/405 407/407 406/406
f 285/285 272/272 281/281
f 52/52 54/54 51/51
f 272/272 275/275 276/276
f 5/5 6/6 1/1
f 1026/1026 1029/1029 1027/1027
f 566/566 562/562 568/568
f 344/344 343/343 342/342
f 560/560 561/561 549/549
f 551/551 554/554 558/558
f 384/384 378/378 383/383
f 377/377 371/371 375/375
f 378/378 382/382 383/383
f 405/405 404/404 414/414
f 405/405 414/414 408/408
f 407/407 405/405 408/408
f 417/417 419/419 413/413
f 411/411 417/417 413/413
f 413/413 422/422 412/412
f 419/419 422/422 413/413
f 418/418 417/417 411/411
f 422/422 425/425 424/424
f 45/45 52/52 51/51
f 4/4 2/2 8/8
f 4/4 8/8 9/9
f 346/346 348/348 349/349
f 566/566 565/565 562/562
f 563/563 561/561 562/562
f 339/339 342/342 343/343
f 339/339 343/343 330/330
f 549/549 551/551 557/557
f 330/330 333/333 332/332
f 383/383 382/382 387/387
f 404/404 377/377 414/414
f 989/989 986/986 988/988
f 986/986 987/987 988/988
f 416/416 421/421 406/406
f 415/415 414/414 423/423
f 408/408 414/414 415/415
f 406/406 407/407 416/416
f 408/408 409/409 407/407
f 409/409 410/410 407/407
f 413/413 412/412 410/410
f 411/411 413/413 410/410
f 412/412 422/422 424/424
f 26/26 53/53 25/25
f 272/272 285/285 273/273
f 45/45 25/25 53/53
f 273/273 268/268 272/272
f 598/598 597/597 600/600
f 959/959 960/960 961/961
f 960/960 962/962 961/961
f 1026/1026 1027/1027 1028/1028
f 563/563 562/562 565/565
f 330/330 332/332 325/325
f 334/334 328/328 332/332
f 554/554 555/555 559/559
f 1001/1001 1002/1002 1000/1000
f 416/416 407/407 412/412
f 408/408 415/415 409/409
f 407/407 410/410 412/412
f 410/410 409/409 411/411
f 46/46 69/69 26/26
f 600/600 604/604 598/598
f 950/950 949/949 951/951
f 118/118 120/120 145/145
f 965/965 962/962 960/960
f 963/963 965/965 960/960
f 1/1 2/2 3/3
f 1029/1029 1026/1026 1031/1031
f 549/549 561/561 553/553
f 554/554 551/551 552/552
f 328/328 325/325 332/332
f 1000/1000 999/999 1001/1001
f 989/989 990/990 986/986
f 319/319 318/318 304/304
f 307/307 319/319 304/304
f 420/420 411/411 409/409
f 418/418 411/411 420/420
f 275/275 272/272 271/271
f 597/597 601/601 600/600
f 952/952 949/949 948/948
f 960/960 959/959 963/963
f 119/119 110/110 126/126
f 1031/1031 1026/1026 1032/1032
f 1032/1032 1036/1036 1031/1031
f 1034/1034 1031/1031 1036/1036
f 566/566 567/567 565/565
f 346/346 345/345 347/347
f 330/330 325/325 327/327
f 334/334 335/335 328/328
f 990/990 979/979 986/986
f 285/285 307/307 273/273
f 26/26 27/27 46/46
f 267/267 268/268 273/273
f 146/146 123/123 125/125
f 959/959 964/964 963/963
f 948/948 949/949 950/950
f 119/119 121/121 120/120
f 118/118 119/119 120/120
f 111/111 110/110 118/118
f 122/122 121/121 119/119
f 110/110 119/119 118/118
f 126/126 110/110 127/127
f 126/126 128/128 119/119
f 460/460 458/458 459/459
f 458/458 457/457 459/459
f 348/348 346/346 347/347
f 563/563 564/564 561/561
f 342/342 339/339 341/341
f 330/330 331/331 339/339
f 553/553 550/550 549/549
f 549/549 550/550 551/551
f 550/550 552/552 551/551
f 552/552 555/555 554/554
f 999/999 1000/1000 995/995
f 59/59 47/47 50/50
f 306/306 304/304 318/318
f 69/69 46/46 49/49
f 39/39 45/45 51/51
f 606/606 609/609 604/604
f 602/602 601/601 597/597
f 136/136 113/113 112/112
f 132/132 112/112 125/125
f 112/112 111/111 125/125
f 113/113 109/109 112/112
f 114/114 109/109 113/113
f 120/120 121/121 123/123
f 112/112 109/109 111/111
f 109/109 110/110 111/111
f 116/116 110/110 109/109
f 127/127 110/110 116/116
f 122/122 119/119 128/128
f 128/128 126/126 127/127
f 131/131 122/122 128/128
f 129/129 128/128 127/127
f 451/451 461/461 454/454
f 451/451 462/462 461/461
f 342/342 345/345 346/346
f 447/447 462/462 450/450
f 561/561 564/564 553/553
f 328/328 326/326 325/325
f 992/992 980/980 990/990
f 980/980 979/979 990/990
f 335/335 336/336 328/328
f 556/556 555/555 552/552
f 47/47 59/59 49/49
f 307/307 291/291 273/273
f 22/22 27/27 26/26
f 273/273 291/291 267/267
f 272/272 268/268 271/271
f 605/605 604/604 600/600
f 602/602 607/607 601/601
f 132/132 125/125 133/133
f 125/125 134/134 133/133
f 136/136 112/112 132/132
f 124/124 135/135 123/123
f 134/134 123/123 135/135
f 125/125 123/123 134/134
f 115/115 114/114 113/113
f 124/124 123/123 121/121
f 114/114 141/141 109/109
f 141/141 116/116 109/109
f 130/130 129/129 127/127
f 455/455 454/454 457/457
f 458/458 455/455 457/457
f 327/327 331/331 330/330
f 325/325 326/326 327/327
f 301/301 304/304 306/306
f 49/49 34/34 47/47
f 22/22 26/26 25/25
f 58/58 39/39 51/51
f 609/609 606/606 610/610
f 608/608 607/607 602/602
f 136/136 132/132 137/137
f 746/746 744/744 745/745
f 743/743 745/745 744/744
f 115/115 117/117 114/114
f 114/114 117/117 141/141
f 1074/1074 1073/1073 1070/1070
f 127/127 116/116 130/130
f 130/130 116/116 142/142
f 1/1 6/6 7/7
f 351/351 348/348 352/352
f 454/454 455/455 453/453
f 454/454 453/453 451/451
f 348/348 347/347 352/352
f 451/451 450/450 462/462
f 464/464 452/452 453/453
f 341/341 345/345 342/342
f 341/341 339/339 331/331
f 553/553 577/577 550/550
f 329/329 328/328 336/336
f 995/995 994/994 999/999
f 998/998 999/999 994/994
f 49/49 46/46 34/34
f 39/39 25/25 45/45
f 137/137 139/139 138/138
f 604/604 605/605 606/606
f 138/138 136/136 137/137
f 117/117 143/143 141/141
f 141/141 142/142 116/116
f 143/143 142/142 141/141
f 1069/1069 1070/1070 1071/1071
f 222/222 221/221 227/227
f 102/102 103/103 106/106
f 101/101 98/98 97/97
f 455/455 456/456 453/453
f 456/456 464/464 453/453
f 326/326 337/337 327/327
f 552/552 550/550 577/577
f 326/326 328/328 329/329
f 47/47 48/48 50/50
f 301/301 302/302 304/304
f 304/304 291/291 307/307
f 291/291 304/304 302/302
f 291/291 289/289 267/267
f 271/271 268/268 270/270
f 284/284 271/271 270/270
f 140/140 138/138 139/139
f 742/742 743/743 744/744
f 144/144 134/134 135/135
f 226/226 224/224 218/218
f 1071/1071 1070/1070 1073/1073
f 222/222 223/223 220/220
f 103/103 108/108 106/106
f 222/222 220/220 221/221
f 90/90 102/102 100/100
f 101/101 97/97 100/100
f 451/451 453/453 448/448
f 448/448 450/450 451/451
f 463/463 449/449 452/452
f 450/450 448/448 447/447
f 327/327 337/337 331/331
f 329/329 337/337 326/326
f 34/34 46/46 27/27
f 743/743 742/742 740/740
f 1070/1070 1075/1075 1074/1074
f 226/226 219/219 224/224
f 224/224 219/219 223/223
f 220/220 223/223 219/219
f 100/100 97/97 90/90
f 453/453 452/452 448/448
f 448/448 452/452 449/449
f 447/447 448/448 449/449
f 449/449 463/463 478/478
f 331/331 337/337 340/340
f 471/471 475/475 465/465
f 552/552 577/577 573/573
f 573/573 556/556 552/552
f 998/998 994/994 996/996
f 48/48 47/47 38/38
f 47/47 34/34 38/38
f 218/218 225/225 212/212
f 1070/1070 1069/1069 1072/1072
f 96/96 97/97 98/98
f 102/102 90/90 99/99
f 465/465 447/447 449/449
f 478/478 466/466 449/449
f 467/467 466/466 476/476
f 556/556 573/573 574/574
f 980/980 992/992 983/983
f 994/994 993/993 996/996
f 979/979 980/980 981/981
f 993/993 994/994 995/995
f 301/301 299/299 302/302
f 268/268 267/267 251/251
f 270/270 268/268 251/251
f 1078/1078 1077/1077 1076/1076
f 1076/1076 1074/1074 1075/1075
f 1076/1076 1077/1077 1074/1074
f 102/102 99/99 103/103
f 465/465 475/475 447/447
f 465/465 468/468 471/471
f 469/469 467/467 476/476
f 476/476 477/477 469/469
f 468/468 470/470 471/471
f 471/471 470/470 472/472
f 477/477 474/474 469/469
f 329/329 336/336 338/338
f 574/574 573/573 569/569
f 981/981 980/980 982/982
f 301/301 300/300 299/299
f 1009/1009 1003/1003 1005/1005
f 1003/1003 1009/1009 1008/1008
f 1003/1003 1004/1004 1005/1005
f 1004/1004 1006/1006 1005/1005
f 1007/1007 1003/1003 1008/1008
f 1004/1004 1003/1003 1007/1007
f 1043/1043 1044/1044 1045/1045
f 284/284 270/270 283/283
f 226/226 208/208 219/219
f 466/466 465/465 449/449
f 466/466 467/467 465/465
f 465/465 467/467 468/468
f 468/468 467/467 469/469
f 982/982 980/980 983/983
f 24/24 34/34 27/27
f 1020/1020 1019/1019 1017/1017
f 27/27 22/22 24/24
f 289/289 249/249 267/267
f 270/270 251/251 282/282
f 282/282 283/283 270/270
f 58/58 40/40 39/39
f 218/218 212/212 205/205
f 218/218 205/205 226/226
f 469/469 470/470 468/468
f 984/984 981/981 982/982
f 1019/1019 1015/1015 1017/1017
f 267/267 249/249 251/251
f 282/282 286/286 283/283
f 742/742 736/736 740/740
f 208/208 207/207 219/219
f 91/91 97/97 96/96
f 473/473 469/469 474/474
f 469/469 473/473 470/470
f 982/982 983/983 985/985
f 883/883 890/890 884/884
f 996/996 993/993 997/997
f 34/34 36/36 38/38
f 25/25 23/23 22/22
f 25/25 39/39 23/23
f 1072/1072 1075/1075 1070/1070
f 219/219 207/207 220/220
f 213/213 220/220 207/207
f 213/213 215/215 220/220
f 220/220 215/215 221/221
f 1103/1103 1098/1098 1100/1100
f 984/984 982/982 985/985
f 300/300 298/298 299/299
f 1017/1017 1018/1018 1021/1021
f 1047/1047 1044/1044 1043/1043
f 22/22 21/21 24/24
f 21/21 22/22 23/23
f 39/39 40/40 23/23
f 610/610 606/606 612/612
f 205/205 208/208 226/226
f 90/90 97/97 91/91
f 878/878 879/879 880/880
f 1101/1101 1100/1100 1099/1099
f 878/878 880/880 881/881
f 569/569 576/576 574/574
f 890/890 891/891 884/884
f 298/298 293/293 299/299
f 1023/1023 1024/1024 1020/1020
f 1020/1020 1022/1022 1019/1019
f 1015/1015 1019/1019 1022/1022
f 1015/1015 1016/1016 1017/1017
f 1017/1017 1016/1016 1018/1018
f 289/289 288/288 249/249
f 282/282 274/274 286/286
f 740/740 736/736 738/738
f 211/211 205/205 212/212
f 207/207 208/208 204/204
f 103/103 105/105 108/108
f 1098/1098 1103/1103 1104/1104
f 1098/1098 1099/1099 1100/1100
f 882/882 878/878 881/881
f 881/881 883/883 882/882
f 924/924 921/921 923/923
f 923/923 925/925 924/924
f 572/572 576/576 569/569
f 297/297 293/293 298/298
f 36/36 34/34 33/33
f 34/34 24/24 33/33
f 249/249 250/250 251/251
f 250/250 282/282 251/251
f 250/250 274/274 282/282
f 274/274 287/287 286/286
f 736/736 737/737 738/738
f 727/727 724/724 719/719
f 204/204 206/206 207/207
f 96/96 93/93 91/91
f 99/99 90/90 89/89
f 1088/1088 1089/1089 1090/1090
f 1091/1091 1093/1093 1089/1089
f 1088/1088 1091/1091 1089/1089
f 1088/1088 1092/1092 1091/1091
f 886/886 879/879 878/878
f 582/582 570/570 583/583
f 1101/1101 1099/1099 1102/1102
f 570/570 569/569 573/573
f 1066/1066 1068/1068 1065/1065
f 1020/1020 1024/1024 1025/1025
f 1020/1020 1025/1025 1022/1022
f 1022/1022 1016/1016 1015/1015
f 1046/1046 1044/1044 1047/1047
f 249/249 288/288 252/252
f 208/208 205/205 204/204
f 726/726 728/728 723/723
f 213/213 207/207 206/206
f 214/214 215/215 213/213
f 838/838 837/837 839/839
f 1096/1096 1097/1097 1094/1094
f 917/917 915/915 894/894
f 878/878 885/885 886/886
f 882/882 885/885 878/878
f 569/569 570/570 571/571
f 571/571 572/572 569/569
f 883/883 884/884 882/882
f 61/61 36/36 37/37
f 37/37 36/36 33/33
f 1022/1022 1018/1018 1016/1016
f 32/32 33/33 24/24
f 249/249 252/252 250/250
f 250/250 253/253 274/274
f 214/214 213/213 206/206
f 214/214 216/216 215/215
f 95/95 105/105 103/103
f 92/92 91/91 93/93
f 838/838 836/836 837/837
f 838/838 839/839 840/840
f 837/837 836/836 835/835
f 841/841 840/840 839/839
f 584/584 581/581 579/579
f 916/916 917/917 894/894
f 1094/1094 1095/1095 1096/1096
f 585/585 579/579 582/582
f 915/915 892/892 894/894
f 915/915 886/886 892/892
f 570/570 582/582 579/579
f 1014/1014 1010/1010 1012/1012
f 1010/1010 1013/1013 1011/1011
f 1010/1010 1011/1011 1012/1012
f 23/23 40/40 41/41
f 819/819 820/820 814/814
f 99/99 89/89 103/103
f 103/103 89/89 95/95
f 89/89 90/90 91/91
f 916/916 894/894 896/896
f 885/885 892/892 886/886
f 921/921 922/922 923/923
f 293/293 297/297 296/296
f 24/24 21/21 30/30
f 288/288 289/289 290/290
f 23/23 28/28 21/21
f 23/23 41/41 28/28
f 210/210 205/205 211/211
f 91/91 92/92 89/89
f 481/481 492/492 488/488
f 479/479 480/480 481/481
f 482/482 479/479 481/481
f 481/481 480/480 492/492
f 579/579 578/578 570/570
f 578/578 575/575 570/570
f 571/571 570/570 575/575
f 1066/1066 1065/1065 1063/1063
f 62/62 61/61 37/37
f 290/290 293/293 292/292
f 32/32 24/24 30/30
f 250/250 252/252 253/253
f 280/280 287/287 274/274
f 819/819 814/814 818/818
f 205/205 197/197 204/204
f 206/206 204/204 200/200
f 702/702 726/726 723/723
f 482/482 481/481 483/483
f 483/483 484/484 482/482
f 481/481 488/488 483/483
f 580/580 579/579 581/581
f 894/894 893/893 896/896
f 885/885 882/882 887/887
f 293/293 294/294 292/292
f 21/21 29/29 30/30
f 253/253 280/280 274/274
f 738/738 737/737 739/739
f 719/719 724/724 718/718
f 718/718 724/724 725/725
f 704/704 718/718 725/725
f 210/210 209/209 205/205
f 725/725 726/726 702/702
f 197/197 205/205 209/209
f 204/204 197/197 200/200
f 206/206 200/200 214/214
f 486/486 483/483 487/487
f 483/483 488/488 487/487
f 488/488 492/492 498/498
f 893/893 897/897 896/896
f 894/894 892/892 893/893
f 887/887 892/892 885/885
f 1065/1065 1064/1064 1063/1063
f 303/303 292/292 294/294
f 288/288 290/290 292/292
f 253/253 256/256 280/280
f 41/41 40/40 57/57
f 280/280 278/278 287/287
f 715/715 719/719 718/718
f 214/214 217/217 216/216
f 95/95 89/89 92/92
f 17/17 14/14 11/11
f 485/485 484/484 483/483
f 907/907 913/913 914/914
f 907/907 914/914 904/904
f 842/842 840/840 841/841
f 842/842 841/841 843/843
f 579/579 580/580 578/578
f 35/35 33/33 32/32
f 254/254 252/252 288/288
f 29/29 21/21 28/28
f 280/280 256/256 278/278
f 737/737 747/747 741/741
f 739/739 737/737 741/741
f 725/725 702/702 704/704
f 197/197 198/198 199/199
f 197/197 199/199 200/200
f 214/214 200/200 203/203
f 702/702 723/723 706/706
f 907/907 908/908 913/913
f 486/486 485/485 483/483
f 489/489 485/485 486/486
f 482/482 494/494 479/479
f 906/906 901/901 904/904
f 835/835 836/836 830/830
f 834/834 835/835 830/830
f 893/893 892/892 887/887
f 749/749 752/752 750/750
f 1056/1056 1057/1057 1054/1054
f 752/752 753/753 754/754
f 1062/1062 1063/1063 1064/1064
f 293/293 296/296 295/295
f 35/35 37/37 33/33
f 293/293 295/295 294/294
f 30/30 43/43 32/32
f 255/255 256/256 253/253
f 713/713 720/720 714/714
f 717/717 713/713 716/716
f 701/701 715/715 718/718
f 209/209 202/202 197/197
f 197/197 202/202 198/198
f 200/200 199/199 203/203
f 107/107 105/105 95/95
f 92/92 93/93 94/94
f 20/20 14/14 17/17
f 490/490 485/485 489/489
f 759/759 761/761 760/760
f 485/485 496/496 484/484
f 484/484 496/496 482/482
f 482/482 496/496 494/494
f 494/494 495/495 479/479
f 887/887 882/882 888/888
f 1052/1052 1056/1056 1054/1054
f 35/35 32/32 43/43
f 294/294 309/309 303/303
f 305/305 292/292 303/303
f 288/288 292/292 305/305
f 252/252 254/254 253/253
f 818/818 814/814 815/815
f 714/714 715/715 712/712
f 712/712 715/715 701/701
f 701/701 718/718 704/704
f 713/713 711/711 716/716
f 201/201 198/198 202/202
f 199/199 198/198 201/201
f 203/203 199/199 201/201
f 735/735 733/733 734/734
f 729/729 730/730 731/731
f 732/732 729/729 731/731
f 104/104 92/92 94/94
f 92/92 104/104 95/95
f 490/490 489/489 491/491
f 485/485 497/497 496/496
f 900/900 901/901 897/897
f 833/833 834/834 830/830
f 893/893 898/898 897/897
f 1062/1062 1061/1061 1063/1063
f 309/309 294/294 295/295
f 70/70 82/82 43/43
f 43/43 30/30 70/70
f 269/269 278/278 256/256
f 976/976 977/977 978/978
f 712/712 713/713 714/714
f 701/701 704/704 702/702
f 711/711 713/713 712/712
f 701/701 702/702 703/703
f 711/711 712/712 708/708
f 709/709 711/711 708/708
f 705/705 703/703 702/702
f 706/706 705/705 702/702
f 734/734 733/733 732/732
f 905/905 909/909 908/908
f 490/490 491/491 493/493
f 758/758 759/759 760/760
f 907/907 905/905 908/908
f 748/748 750/750 751/751
f 749/749 753/753 752/752
f 322/322 303/303 309/309
f 322/322 305/305 303/303
f 305/305 254/254 288/288
f 813/813 811/811 814/814
f 813/813 812/812 811/811
f 701/701 703/703 722/722
f 708/708 703/703 705/705
f 709/709 708/708 705/705
f 709/709 705/705 707/707
f 705/705 706/706 707/707
f 710/710 709/709 707/707
f 733/733 729/729 732/732
f 18/18 16/16 13/13
f 499/499 493/493 491/491
f 907/907 904/904 905/905
f 897/897 898/898 900/900
f 899/899 898/898 893/893
f 899/899 893/893 895/895
f 893/893 887/887 895/895
f 749/749 756/756 753/753
f 889/889 887/887 888/888
f 1067/1067 1053/1053 1054/1054
f 1053/1053 1052/1052 1054/1054
f 43/43 81/81 35/35
f 43/43 82/82 81/81
f 295/295 311/311 309/309
f 88/88 82/82 70/70
f 30/30 29/29 70/70
f 253/253 254/254 255/255
f 814/814 811/811 815/815
f 908/908 909/909 911/911
f 16/16 11/11 13/13
f 18/18 13/13 19/19
f 851/851 847/847 852/852
f 748/748 749/749 750/750
f 505/505 513/513 507/507
f 1060/1060 1061/1061 1062/1062
f 309/309 311/311 323/323
f 1085/1085 1087/1087 1080/1080
f 667/667 676/676 674/674
f 675/675 665/665 673/673
f 305/305 260/260 254/254
f 254/254 260/260 255/255
f 256/256 255/255 257/257
f 60/60 41/41 57/57
f 257/257 269/269 256/256
f 809/809 811/811 812/812
f 817/817 809/809 812/812
f 721/721 712/712 722/722
f 712/712 721/721 708/708
f 703/703 708/708 721/721
f 763/763 758/758 760/760
f 759/759 758/758 762/762
f 847/847 848/848 849/849
f 850/850 847/847 849/849
f 904/904 903/903 905/905
f 904/904 901/901 903/903
f 901/901 902/902 903/903
f 912/912 902/902 900/900
f 902/902 901/901 900/900
f 830/830 832/832 833/833
f 895/895 887/887 889/889
f 756/756 749/749 755/755
f 1051/1051 1052/1052 1053/1053
f 1060/1060 1059/1059 1061/1061
f 1080/1080 1079/1079 1082/1082
f 309/309 323/323 324/324
f 1080/1080 1082/1082 1083/1083
f 1085/1085 1080/1080 1083/1083
f 676/676 667/667 668/668
f 675/675 676/676 668/668
f 668/668 665/665 675/675
f 667/667 674/674 669/669
f 29/29 84/84 70/70
f 672/672 673/673 665/665
f 28/28 31/31 29/29
f 31/31 28/28 41/41
f 721/721 722/722 703/703
f 11/11 14/14 15/15
f 849/849 853/853 850/850
f 830/830 831/831 832/832
f 749/749 748/748 755/755
f 505/505 507/507 506/506
f 84/84 29/29 31/31
f 808/808 815/815 811/811
f 910/910 905/905 903/903
f 900/900 898/898 912/912
f 748/748 757/757 755/755
f 508/508 512/512 502/502
f 506/506 502/502 505/505
f 508/508 502/502 506/506
f 1053/1053 1055/1055 1051/1051
f 1058/1058 1051/1051 1055/1055
f 1059/1059 1060/1060 1058/1058
f 1081/1081 1080/1080 1084/1084
f 257/257 258/258 259/259
f 60/60 42/42 41/41
f 764/764 758/758 763/763
f 909/909 905/905 910/910
f 847/847 851/851 848/848
f 522/522 521/521 517/517
f 849/849 854/854 853/853
f 912/912 898/898 899/899
f 512/512 500/500 502/502
f 1055/1055 1059/1059 1058/1058
f 1079/1079 1080/1080 1081/1081
f 1086/1086 1081/1081 1084/1084
f 261/261 255/255 260/260
f 31/31 41/41 42/42
f 258/258 257/257 255/255
f 808/808 816/816 815/815
f 811/811 809/809 808/808
f 11/11 15/15 12/12
f 11/11 12/12 13/13
f 531/531 522/522 523/523
f 765/765 762/762 758/758
f 517/517 520/520 522/522
f 517/517 521/521 519/519
f 510/510 504/504 518/518
f 510/510 509/509 501/501
f 505/505 501/501 509/509
f 502/502 501/501 505/505
f 667/667 669/669 662/662
f 659/659 667/667 662/662
f 668/668 667/667 659/659
f 672/672 665/665 658/658
f 658/658 671/671 672/672
f 258/258 255/255 261/261
f 815/815 816/816 821/821
f 533/533 531/531 523/523
f 520/520 523/523 522/522
f 523/523 520/520 524/524
f 529/529 524/524 520/520
f 526/526 524/524 529/529
f 530/530 529/529 520/520
f 848/848 855/855 849/849
f 849/849 855/855 854/854
f 518/518 515/515 519/519
f 511/511 500/500 512/512
f 500/500 501/501 502/502
f 668/668 659/659 665/665
f 659/659 658/658 665/665
f 31/31 44/44 83/83
f 31/31 83/83 84/84
f 31/31 42/42 44/44
f 279/279 269/269 259/259
f 259/259 269/269 257/257
f 766/766 764/764 763/763
f 764/764 765/765 758/758
f 517/517 516/516 520/520
f 530/530 520/520 516/516
f 515/515 516/516 517/517
f 517/517 519/519 515/515
f 516/516 515/515 514/514
f 515/515 518/518 503/503
f 504/504 503/503 518/518
f 514/514 515/515 503/503
f 503/503 511/511 514/514
f 510/510 501/501 504/504
f 500/500 503/503 501/501
f 71/71 44/44 42/42
f 261/261 262/262 258/258
f 258/258 262/262 259/259
f 532/532 528/528 527/527
f 525/525 523/523 524/524
f 526/526 525/525 524/524
f 511/511 503/503 500/500
f 503/503 504/504 501/501
f 265/265 259/259 262/262
f 78/78 71/71 42/42
f 86/86 78/78 42/42
f 808/808 809/809 810/810
f 528/528 525/525 527/527
f 526/526 527/527 525/525
f 808/808 823/823 816/816
f 822/822 823/823 808/808
f 808/808 810/810 822/822
f 827/827 822/822 810/810
f 259/259 265/265 279/279
f 671/671 658/658 666/666
f 44/44 71/71 72/72
f 261/261 263/263 262/262
f 71/71 78/78 72/72
f 662/662 661/661 659/659
f 85/85 83/83 44/44
f 265/265 262/262 264/264
f 827/827 826/826 822/822
f 658/658 659/659 660/660
f 44/44 72/72 73/73
f 78/78 79/79 72/72
f 658/658 660/660 666/666
f 262/262 263/263 264/264
f 823/823 824/824 825/825
f 823/823 822/822 824/824
f 826/826 824/824 822/822
f 659/659 661/661 660/660
f 73/73 85/85 44/44
f 308/308 263/263 261/261
f 73/73 72/72 74/74
f 74/74 72/72 79/79
f 77/77 85/85 73/73
f 666/666 660/660 663/663
f 75/75 77/77 73/73
f 308/308 310/310 263/263
f 73/73 74/74 75/75
f 263/263 266/266 264/264
f 79/79 80/80 74/74
f 824/824 829/829 825/825
f 661/661 663/663 660/660
f 663/663 670/670 666/666
f 824/824 828/828 829/829
f 826/826 828/828 824/824
f 661/661 664/664 663/663
f 75/75 74/74 76/76
f 872/872 877/877 870/870
f 939/939 941/941 942/942
f 939/939 940/940 941/941
f 939/939 943/943 940/940
f 944/944 940/940 943/943
f 941/941 945/945 942/942
f 966/966 967/967 968/968
f 876/876 874/874 875/875
f 874/874 871/871 875/875
f 873/873 871/871 874/874
f 872/872 870/870 869/869
f 868/868 869/869 870/870
f 871/871 868/868 870/870
f 944/944 943/943 946/946
f 967/967 969/969 968/968
f 946/946 947/947 944/944
f 868/868 871/871 873/873
f 650/650 652/652 653/653
f 545/545 547/547 546/546
f 445/445 441/441 443/443
f 165/165 164/164 163/163
f 650/650 651/651 649/649
f 167/167 166/166 165/165
f 545/545 546/546 544/544
f 444/444 443/443 442/442
f 442/442 443/443 441/441
f 546/546 548/548 544/544
f 544/544 548/548 541/541
f 161/161 159/159 162/162
f 166/166 167/167 160/160
f 161/161 162/162 163/163
f 163/163 164/164 161/161
f 164/164 165/165 166/166
f 653/653 652/652 643/643
f 643/643 655/655 653/653
f 654/654 649/649 651/651
f 650/650 649/649 633/633
f 633/633 652/652 650/650
f 634/634 633/633 649/649
f 535/535 543/543 545/545
f 445/445 446/446 441/441
f 159/159 161/161 156/156
f 160/160 147/147 166/166
f 164/164 166/166 147/147
f 633/633 632/632 652/652
f 632/632 643/643 652/652
f 634/634 649/649 641/641
f 543/543 535/535 534/534
f 429/429 441/441 446/446
f 545/545 544/544 535/535
f 538/538 535/535 544/544
f 429/429 428/428 441/441
f 428/428 442/442 441/441
f 541/541 538/538 544/544
f 161/161 149/149 156/156
f 164/164 149/149 161/161
f 147/147 149/149 164/164
f 644/644 643/643 638/638
f 429/429 446/446 437/437
f 540/540 538/538 541/541
f 159/159 156/156 157/157
f 147/147 160/160 150/150
f 643/643 632/632 638/638
f 633/633 634/634 628/628
f 427/427 428/428 429/429
f 156/156 149/149 155/155
f 150/150 148/148 147/147
f 147/147 148/148 149/149
f 640/640 644/644 638/638
f 632/632 628/628 630/630
f 630/630 638/638 632/632
f 628/628 632/632 633/633
f 534/534 535/535 536/536
f 429/429 437/437 431/431
f 431/431 427/427 429/429
f 156/156 155/155 157/157
f 634/634 635/635 631/631
f 634/634 641/641 635/635
f 428/428 427/427 430/430
f 150/150 151/151 148/148
f 630/630 639/639 638/638
f 634/634 631/631 628/628
f 537/537 536/536 535/535
f 535/535 538/538 537/537
f 427/427 431/431 436/436
f 540/540 537/537 538/538
f 638/638 639/639 640/640
f 956/956 957/957 958/958
f 155/155 158/158 157/157
f 437/437 440/440 438/438
f 628/628 629/629 630/630
f 630/630 647/647 639/639
f 431/431 437/437 438/438
f 918/918 919/919 920/920
f 540/540 542/542 537/537
f 151/151 152/152 148/148
f 149/149 154/154 155/155
f 148/148 154/154 149/149
f 639/639 642/642 640/640
f 642/642 656/656 640/640
f 631/631 635/635 636/636
f 629/629 647/647 630/630
f 639/639 647/647 642/642
f 647/647 629/629 648/648
f 436/436 431/431 438/438
f 536/536 537/537 539/539
f 973/973 974/974 975/975
f 436/436 435/435 432/432
f 432/432 430/430 427/427
f 642/642 647/647 648/648
f 438/438 435/435 436/436
f 430/430 432/432 433/433
f 154/154 148/148 153/153
f 656/656 642/642 657/657
f 636/636 635/635 645/645
f 435/435 434/434 432/432
f 434/434 433/433 432/432
f 148/148 152/152 153/153
f 631/631 629/629 628/628
f 785/785 782/782 783/783
f 631/631 636/636 637/637
f 780/780 782/782 784/784
f 785/785 783/783 786/786
f 438/438 439/439 435/435
f 631/631 637/637 629/629
f 646/646 636/636 645/645
f 434/434 435/435 439/439
f 539/539 537/537 542/542
f 789/789 788/788 778/778
f 788/788 787/787 778/778
f 770/770 771/771 767/767
f 781/781 780/780 784/784
f 779/779 782/782 780/780
f 782/782 779/779 783/783
f 637/637 636/636 646/646
f 777/777 783/783 779/779
f 767/767 775/775 768/768
f 777/777 787/787 783/783
f 786/786 783/783 787/787
f 788/788 786/786 787/787
f 767/767 768/768 769/769
f 767/767 769/769 770/770
f 787/787 777/777 778/778
f 773/773 777/777 772/772
f 777/777 773/773 778/778
f 772/772 767/767 771/771
f 773/773 772/772 771/771
f 774/774 781/781 775/775
f 768/768 775/775 781/781
f 767/767 772/772 774/774
f 776/776 774/774 772/772
f 777/777 776/776 772/772
f 774/774 780/780 781/781
f 780/780 774/774 776/776
f 780/780 776/776 779/779
f 777/777 779/779 776/776
f 774/774 775/775 767/767

