# https://github.com/mikedh/trimesh
mtllib material.mtl

o tmpot7bns46.ply
usemtl material_0
v 0.14524655 -1.00150132 -0.01645940
v 0.35849610 -1.00061476 -0.04074157
v 0.36793262 -1.00185657 0.14506866
v 0.17217958 -1.00076568 0.19153036
v 0.16099744 -1.00176084 -0.18801165
v 0.33288786 -1.00171041 -0.17941546
v 0.30102271 -0.99803430 0.20464773
v 0.12572706 -0.99465656 -0.10613712
v 0.22364405 -0.99369055 -0.21170549
v 0.19959477 -0.98534590 0.23375313
v 0.38721269 -0.98565811 0.07874694
v -0.39783621 -0.99530786 -0.09448387
v -0.39370576 -1.00156868 -0.04560015
v -0.41302735 -1.00089765 0.00048966
v -0.36203310 -1.00188816 -0.19077308
v -0.39007702 -0.99596357 -0.15463288
v -0.17902660 -1.00168550 -0.14167537
v -0.21236867 -1.00157249 -0.19058792
v -0.20694515 -1.00050974 0.14418308
v -0.23456778 -1.00127578 0.21908955
v -0.40784103 -1.00026500 0.16626985
v -0.30949792 -0.99173075 -0.21348791
v -0.34693816 -0.98892927 0.20643041
v -0.43401045 -0.98549330 0.09047522
v -0.16392496 0.23211293 -0.26503345
v 0.07616995 0.30748573 -0.26751634
v 0.13080299 0.23794742 -0.26562867
v -0.19374290 0.30794123 -0.26458552
v 0.19040340 0.32182094 -0.25607935
v -0.28189251 0.31384531 -0.24495699
v -0.07841185 0.36840165 -0.24749684
v 0.09160965 0.41195652 -0.22838213
v -0.22605672 0.40529126 -0.22577582
v -0.31337357 0.43052503 -0.21115373
v -0.09956177 0.41013965 -0.22975193
v 0.24210259 0.35690868 -0.23896891
v -0.41847172 0.30537277 -0.21577321
v -0.45649698 0.34472039 -0.20022856
v -0.52668631 0.29032412 -0.21736044
v -0.58429360 0.36402085 -0.17253698
v 0.16094600 0.43365401 -0.20841771
v 0.26357821 0.43745208 -0.20463070
v -0.60885197 0.29189971 -0.21616542
v 0.35845685 0.30860838 -0.21636774
v 0.41194481 0.37060547 -0.18973133
v 0.54462355 0.34115124 -0.19114701
v 0.54025644 0.27069893 -0.21303390
v 0.58273262 0.32076928 -0.21238749
v 0.57020849 0.23262890 -0.21271063
v 0.68963391 0.23176698 -0.21466836
v 0.47703677 0.22548071 -0.19974642
v 0.28586656 0.27026817 -0.21228051
v 0.08224868 0.13940236 -0.23969515
v -0.05173679 0.04970825 -0.21860723
v 0.05639229 0.03613506 -0.21437460
v -0.00317948 -0.02214297 -0.24108990
v -0.15326501 0.00576864 -0.21226251
v -0.05541608 -0.06191948 -0.23557949
v -0.16480167 -0.07348875 -0.20589179
v -0.52209228 0.22565305 -0.19959526
v -0.35166544 0.24516222 -0.19213718
v 0.11998319 -0.02514401 -0.21479309
v 0.01636582 -0.08653671 -0.21886837
v 0.15164478 -0.06878889 -0.19554754
v 0.04425956 -0.19717045 -0.21698165
v -0.11281344 -0.21469641 -0.21227936
v -0.18918458 -0.21196197 -0.19643269
v 0.09198127 -0.23622537 -0.20238505
v -0.60774177 0.21074884 -0.18795873
v -0.72558147 0.22213423 -0.20234387
v -0.70987540 0.28663093 -0.22045505
v -0.62307078 0.38129085 -0.18924583
v -0.13497896 -0.24072902 -0.19992709
v -0.23302937 -0.41414571 -0.20694341
v -0.16996939 -0.52647614 -0.22046454
v -0.27541858 -0.59503442 -0.23555146
v -0.20209189 -0.68346578 -0.24238098
v -0.27947190 -0.67285281 -0.25287190
v -0.17591976 0.04958196 -0.19256613
v -0.18985391 0.16341437 -0.23280044
v 0.17601006 -0.13810991 -0.17897157
v 0.17744021 -0.36355591 -0.20265554
v 0.11336789 -0.43652564 -0.21061704
v 0.20752683 -0.50926071 -0.22045109
v 0.14099272 -0.68400252 -0.23927833
v 0.24113637 -0.66810900 -0.24890126
v 0.18538521 0.18336347 -0.22372989
v 0.56888086 0.36267951 -0.19827312
v 0.66887450 0.34063128 -0.20613743
v -0.31649464 0.27285591 -0.21889795
v 0.29506499 -0.66679275 -0.22207275
v -0.72304463 0.38767797 -0.16289450
v 0.15525495 0.03605008 -0.17230433
v -0.81564295 0.26350132 -0.26066256
v -0.80573428 0.35257149 -0.22942826
v -0.89056224 0.32117963 -0.22256771
v -0.89317936 0.24380852 -0.24950014
v 0.04424031 -0.29031953 -0.17134109
v 0.03550448 -0.24173851 -0.18543299
v 0.75045359 0.27046028 -0.25888047
v 0.75367618 0.31938967 -0.24381013
v 0.83046252 0.25532535 -0.25161135
v 0.83767915 0.20693618 -0.22771147
v 0.83028930 0.32776040 -0.22202908
v -0.35832059 -0.65695703 -0.20374954
v -0.32118687 -0.52766585 -0.18692836
v -0.28061056 -0.35189939 -0.16432649
v -0.26186374 -0.18712184 -0.14375295
v -0.87197340 0.19899862 -0.21928130
v -0.28507400 0.19170935 -0.17932172
v 0.06769904 -0.48738223 -0.17855692
v -0.21882318 -0.07064962 -0.16977890
v 0.23072596 -0.34426308 -0.16595460
v 0.27306592 -0.51626736 -0.18433994
v -0.23631217 0.00706073 -0.14838941
v -0.12782976 -0.68465018 -0.19233654
v -0.10098604 -0.34861121 -0.17518878
v -0.07407261 -0.24384515 -0.17746295
v -0.11701863 -0.51469380 -0.18137170
v 0.78034270 0.37729433 -0.19810994
v -0.11421242 0.45135194 -0.19371304
v -0.25304013 0.45321172 -0.18325460
v -0.23034851 0.04018554 -0.13318820
v 0.19685970 0.00253006 -0.13390090
v -0.08356752 0.00915681 0.18660022
v 0.02190373 -0.07845002 0.18663286
v 0.02230511 0.00801456 0.18775567
v -0.08450621 -0.07649940 0.18437441
v -0.00826255 0.03790827 0.17049748
v 0.04601258 0.02782772 0.15528587
v 0.07643615 0.11280996 0.16099073
v -0.02210271 0.10650971 0.18534316
v 0.09193204 0.23736630 0.18102092
v -0.02294563 0.22873515 0.20673136
v 0.13190939 0.02968409 0.12161627
v 0.05070686 -0.07762901 0.15289329
v 0.12538728 -0.08352192 0.12671810
v 0.08426976 -0.18279055 0.13498957
v 0.15248382 -0.22501563 0.11248386
v 0.12655577 -0.41885316 0.10938112
v 0.20465508 -0.46153444 0.09315167
v 0.13862438 -0.54991746 0.09441665
v 0.22662008 -0.68485433 0.07244956
v 0.17240909 0.24933401 0.14662595
v -0.02273814 -0.10145126 0.15646493
v -0.00848884 -0.20010649 0.13848758
v 0.15822828 -0.69045103 0.07469726
v 0.25252897 -0.47505265 0.06478216
v 0.29169697 -0.67792469 0.03848732
v 0.20572692 -0.21632503 0.07986335
v -0.12665929 -0.17876197 0.13386035
v -0.09380050 -0.08144786 0.15625244
v -0.08700655 0.03246574 0.15576874
v -0.18888876 0.23748271 0.16695696
v -0.02430004 0.30446020 0.17697419
v 0.05426250 -0.35548982 0.09513786
v 0.03523922 -0.23502196 0.10789846
v -0.08866862 -0.23058888 0.11132897
v -0.14840305 -0.34311813 0.11445389
v -0.17650217 -0.10242762 0.12501596
v -0.14434077 -0.07697661 0.13671453
v -0.23647149 -0.43265265 0.09923115
v -0.17610733 -0.47986549 0.10451069
v -0.28239074 -0.68460494 0.06963971
v -0.19415168 -0.69375890 0.07311311
v -0.12862737 -0.53447765 0.07538889
v -0.07704484 -0.23700918 0.09824840
v 0.10649594 -0.69217759 0.05431384
v 0.06646156 -0.47921273 0.07652813
v -0.20898278 0.00740894 0.10969420
v -0.09920696 0.00484296 0.15772329
v -0.30366814 -0.47829151 0.06119413
v -0.34399769 -0.67494017 0.03712013
v -0.21452405 0.15729599 0.12520793
v -0.17685901 0.02715814 0.11579379
v -0.12819599 0.36472687 0.11675160
v 0.08623395 0.36687210 0.11386949
v 0.18983231 0.39427176 0.05552256
v -0.10295550 -0.68614972 -0.01158634
v -0.26715574 0.30856064 0.08649435
v 0.22266564 0.28267905 0.08990809
v 0.26163006 0.34757975 0.03509514
v 0.23405604 0.42009631 0.02405315
v 0.35757890 0.35972327 0.00928869
v 0.30613026 0.32078010 0.01600457
v 0.25233349 0.26973143 0.01858974
v 0.34210697 0.25831485 -0.00461554
v 0.37796128 0.32752213 0.01546566
v 0.54429817 0.23668353 0.00772914
v 0.54296464 0.32158810 0.01827292
v 0.43260860 0.38643116 -0.05293542
v 0.60385883 0.31472948 0.05555518
v 0.57612449 0.20034833 0.00878690
v 0.64621729 0.21363159 0.02476951
v 0.27841404 0.45876732 -0.03739819
v 0.01182562 0.38281220 0.10393695
v -0.08358407 0.38939160 0.09769903
v -0.01252600 0.44870445 0.11611497
v 0.07334159 0.46267921 0.08628094
v 0.09330013 0.41483006 0.06178040
v -0.08547948 0.41413236 0.09072319
v -0.09098237 0.45804670 0.10956666
v -0.15319015 0.40282628 0.07175387
v -0.13320200 0.46211818 0.05965478
v -0.25838822 0.40806073 0.03499719
v 0.60424703 0.37920752 0.02457617
v 0.12412050 0.43907526 0.01752611
v 0.54228562 0.36176625 -0.02467611
v 0.00872997 0.95303071 -0.00763056
v -0.06887875 0.95553821 -0.10885896
v -0.17529894 0.93374693 -0.05118443
v -0.07863989 0.92920852 0.09505954
v -0.16103531 0.92591995 0.04833512
v -0.18013050 0.92565632 -0.19271259
v -0.08208977 0.93265319 -0.21696627
v 0.12870227 0.93739557 -0.10626112
v 0.02426692 0.93276137 -0.21763484
v 0.13273944 0.92649162 -0.18996848
v 0.12076627 0.91136718 0.10602209
v -0.00505598 0.88804674 0.18065335
v -0.17573321 0.88595122 0.14888164
v 0.11951157 0.88445568 0.15765683
v -0.21128313 0.86592597 0.12314229
v -0.24669752 0.86612815 -0.14298429
v -0.23006572 0.85396916 0.07857217
v -0.24511479 0.86055398 -0.05656625
v 0.19954917 0.85613704 -0.04742388
v 0.20042843 0.86459965 -0.13587935
v 0.17710109 0.85433739 0.09475839
v 0.11939558 0.85919738 -0.26539767
v -0.07143377 0.87172359 -0.27657828
v 0.01065963 0.85403901 -0.28471947
v -0.16595265 0.85723251 -0.26514322
v 0.18540142 0.83937067 -0.21221155
v 0.15271321 0.82118934 -0.25081965
v 0.03526077 -0.54583246 -0.00412229
v 0.02110063 -0.41090280 0.00940954
v 0.02687869 -0.44609803 -0.08831424
v -0.00251276 -0.27546236 -0.08598683
v -0.00403811 -0.26626456 0.01961543
v 0.03498600 -0.60137266 -0.07138118
v 0.05205283 -0.68657744 -0.02194793
v 0.04739657 -0.68310189 -0.09977277
v 0.04995845 -0.66422987 -0.13192777
v 0.06769904 -0.48738223 -0.17855692
v 0.04424031 -0.29031953 -0.17134109
v 0.07648318 -0.68411404 -0.18148491
v 0.03550448 -0.24173851 -0.18543299
v 0.14099272 -0.68400252 -0.23927833
v 0.06646156 -0.47921273 0.07652813
v 0.05426250 -0.35548982 0.09513786
v 0.03523922 -0.23502196 0.10789846
v 0.10649594 -0.69217759 0.05431384
v 0.65697318 0.40327451 -0.05982127
v 0.67484236 0.38399377 -0.16375272
v 0.57176024 0.40584427 -0.11726375
v 0.73147124 0.41791579 -0.00748048
v 0.81043458 0.42605761 -0.01913996
v 0.78034270 0.37729433 -0.19810994
v 0.84611988 0.40033150 -0.10158966
v 0.70004684 0.41608214 0.21685503
v 0.86661541 0.42026615 0.12259372
v 0.62281758 0.39851806 0.14055079
v 0.60424703 0.37920752 0.02457617
v 0.89014071 0.41199735 0.06758758
v 0.82293212 0.37193629 -0.18724458
v 0.56888086 0.36267951 -0.19827312
v 0.81701356 0.39236042 0.23492660
v 0.54228562 0.36176625 -0.02467611
v 0.54050583 0.37337595 -0.13780665
v 0.43567404 0.39203736 -0.11660391
v 0.43260860 0.38643116 -0.05293542
v 0.41194481 0.37060547 -0.18973133
v 0.54462355 0.34115124 -0.19114701
v 0.27841404 0.45876732 -0.03739819
v 0.25633213 0.46021748 -0.16260205
v 0.26357821 0.43745208 -0.20463070
v 0.15935092 0.47316799 -0.06196713
v 0.12666313 0.47893846 -0.15469900
v 0.16094600 0.43365401 -0.20841771
v 0.10702048 0.43014270 -0.20712951
v 0.09160965 0.41195652 -0.22838213
v -0.09956177 0.41013965 -0.22975193
v 0.23405604 0.42009631 0.02405315
v 0.12412050 0.43907526 0.01752611
v 0.66887450 0.34063128 -0.20613743
v 0.75367618 0.31938967 -0.24381013
v -0.11421242 0.45135194 -0.19371304
v 0.83028930 0.32776040 -0.22202908
v 0.08426967 0.49199879 -0.17643841
v 0.61781365 0.37923238 0.16408896
v -0.72304463 0.38767797 -0.16289450
v -0.70359254 0.40315449 -0.04026124
v -0.62103373 0.40603781 -0.07855678
v -0.62307078 0.38129085 -0.18924583
v -0.81528270 0.42542553 0.00714687
v -0.87529123 0.39390856 -0.13755111
v -0.92218095 0.42546892 0.04268214
v -0.81455338 0.42079529 0.19756162
v -0.74177510 0.41185766 0.22276305
v -0.66264719 0.38871205 0.15803197
v -0.61437559 0.37516624 0.01795858
v -0.66224557 0.38031167 0.02902134
v -0.58429360 0.36402085 -0.17253698
v -0.80573428 0.35257149 -0.22942826
v -0.93504763 0.39964345 0.11571542
v -0.92938566 0.39326945 -0.05242891
v -0.86058098 0.39085564 0.23403753
v -0.58679748 0.36310425 -0.02630675
v -0.49255776 0.38635534 -0.06090929
v -0.46595341 0.38444272 -0.16023764
v -0.36767104 0.43838686 -0.04268054
v -0.31685612 0.46855584 -0.10405774
v -0.29071042 0.45054081 -0.00441826
v -0.21057954 0.45400378 -0.02801024
v -0.31337357 0.43052503 -0.21115373
v -0.25304013 0.45321172 -0.18325460
v -0.19448471 0.48484048 -0.08312934
v -0.16789934 0.48031583 -0.15598068
v -0.89056224 0.32117963 -0.22256771
v -0.11421242 0.45135194 -0.19371304
v -0.44908223 0.34612086 0.00662134
v -0.45649698 0.34472039 -0.20022856
v -0.35467061 0.40010500 0.00913012
v -0.25838822 0.40806073 0.03499719
v -0.15319015 0.40282628 0.07175387
v -0.59140301 0.30456963 0.02330030
v -0.07377681 0.49557364 -0.19283552
v -0.64811391 0.32370317 0.05177408
v -0.33588693 -0.46134824 -0.00144412
v -0.33400056 -0.46917105 -0.10446174
v -0.38160780 -0.66138101 -0.04666881
v -0.37977186 -0.64978683 -0.14492986
v -0.30679670 -0.32637006 -0.07185849
v -0.30313134 -0.36552894 0.03885827
v -0.28909346 -0.24866743 0.02054941
v -0.26186374 -0.18712184 -0.14375295
v -0.25319079 -0.08858620 -0.00266701
v -0.24796176 -0.07770328 -0.12178337
v -0.28061056 -0.35189939 -0.16432649
v -0.32118687 -0.52766585 -0.18692836
v -0.35832059 -0.65695703 -0.20374954
v -0.21882318 -0.07064962 -0.16977890
v -0.25685668 -0.20310824 0.07420800
v -0.23962903 -0.07944866 0.05732800
v -0.26492259 -0.04253082 -0.03586718
v -0.23631217 0.00706073 -0.14838941
v -0.25751993 0.00592091 -0.00709284
v -0.23034851 0.04018554 -0.13318820
v -0.24383530 0.04581243 -0.05023989
v -0.23073520 0.03064368 0.04490982
v -0.27195638 0.24460760 0.06305927
v -0.20898278 0.00740894 0.10969420
v -0.30366814 -0.47829151 0.06119413
v -0.34399769 -0.67494017 0.03712013
v -0.29518545 0.20647803 -0.06416864
v -0.28507400 0.19170935 -0.17932172
v -0.21452405 0.15729599 0.12520793
v -0.26715574 0.30856064 0.08649435
v -0.18888876 0.23748271 0.16695696
v -0.17685901 0.02715814 0.11579379
v -0.32682657 0.33656192 0.02280767
v -0.32900387 0.26136827 -0.00693022
v -0.17650217 -0.10242762 0.12501596
v -0.23647149 -0.43265265 0.09923115
v -0.25838822 0.40806073 0.03499719
v -0.35467061 0.40010500 0.00913012
v 0.89860839 0.25917524 0.16721927
v 0.92920125 0.25386018 0.00231700
v 0.89014071 0.41199735 0.06758758
v 0.90134144 0.36272824 -0.01581246
v 0.90876520 0.21499215 0.10395085
v 0.86661541 0.42026615 0.12259372
v 0.81701356 0.39236042 0.23492660
v 0.85015237 0.25647572 0.23500060
v 0.89714634 0.24362361 -0.09415731
v 0.87251878 0.37353289 -0.10056973
v 0.87951767 0.24843113 -0.13255782
v 0.85862952 0.28108510 -0.20964880
v 0.83767915 0.20693618 -0.22771147
v 0.84611988 0.40033150 -0.10158966
v 0.82293212 0.37193629 -0.18724458
v 0.83028930 0.32776040 -0.22202908
v 0.83046252 0.25532535 -0.25161135
v 0.82369101 0.19985284 0.21900728
v -0.07177866 -0.43933031 -0.07920780
v -0.11701863 -0.51469380 -0.18137170
v -0.06480463 -0.34831133 -0.10556145
v -0.09110095 -0.68212861 -0.08100788
v -0.10098604 -0.34861121 -0.17518878
v -0.06500572 -0.26285180 -0.14098811
v -0.07407261 -0.24384515 -0.17746295
v -0.04621689 -0.26621535 -0.11323586
v -0.03975081 -0.27119440 0.00491119
v -0.09790582 -0.67669123 -0.13286434
v -0.12782976 -0.68465018 -0.19233654
v -0.07574914 -0.45997813 0.01228924
v -0.10295550 -0.68614972 -0.01158634
v -0.07704484 -0.23700918 0.09824840
v -0.12862737 -0.53447765 0.07538889
v 0.22472279 -0.17624941 0.01802785
v 0.25324258 -0.30289662 0.01345638
v 0.24277027 -0.26226786 -0.08500296
v 0.21058495 -0.14013161 -0.12501203
v 0.27757007 -0.42760667 -0.09720296
v 0.28432313 -0.43479139 -0.03122789
v 0.33055937 -0.63953477 -0.14178467
v 0.30450523 -0.53181285 -0.01197584
v 0.32911810 -0.66601872 -0.02216939
v 0.20389824 -0.08065584 -0.11395957
v 0.19594444 -0.08321910 0.04599599
v 0.27369696 -0.43524367 0.02660234
v 0.23072596 -0.34426308 -0.16595460
v 0.27306592 -0.51626736 -0.18433994
v 0.31583974 -0.66040617 -0.19747105
v 0.15164478 -0.06878889 -0.19554754
v 0.17601006 -0.13810991 -0.17897157
v 0.20572692 -0.21632503 0.07986335
v 0.21812634 -0.01330738 -0.03650488
v 0.19685970 0.00253006 -0.13390090
v 0.19526310 0.03773291 -0.06498992
v 0.18178204 0.04394905 0.05010965
v 0.19243351 -0.01247839 0.07352234
v 0.15525495 0.03605008 -0.17230433
v 0.23693839 0.18824400 -0.05177579
v 0.23570172 0.17927493 -0.15463640
v 0.22266564 0.28267905 0.08990809
v 0.25252897 -0.47505265 0.06478216
v 0.29169697 -0.67792469 0.03848732
v 0.13190939 0.02968409 0.12161627
v 0.17240909 0.24933401 0.14662595
v 0.12538728 -0.08352192 0.12671810
v 0.29506499 -0.66679275 -0.22207275
v 0.25233349 0.26973143 0.01858974
v 0.26163006 0.34757975 0.03509514
v 0.18538521 0.18336347 -0.22372989
v 0.03800231 0.62488234 0.18903835
v 0.07405494 0.73859805 0.15841086
v -0.02433248 0.73401469 0.17883277
v 0.09889651 0.64647377 0.16946186
v 0.12334290 0.77271414 0.12700707
v -0.02299530 0.60902053 0.23343107
v 0.08316138 0.47451186 0.15142448
v 0.03002781 0.46677467 0.16682301
v -0.02590720 0.57732648 0.19457580
v -0.02145565 0.45975408 0.18343416
v -0.07408090 0.62749124 0.19302629
v -0.14370674 0.64368814 0.16885725
v -0.14448141 0.74098408 0.15267241
v -0.13707174 0.56986451 0.16260852
v -0.06682569 0.46079126 0.16994178
v -0.13883537 0.47586393 0.14309205
v 0.57469761 0.17763577 -0.09677749
v 0.69068789 0.19009046 -0.14903335
v 0.74166763 0.19236867 -0.02671479
v 0.78618783 0.18648861 -0.05911999
v 0.83767915 0.20693618 -0.22771147
v 0.84391433 0.20378147 -0.01211803
v 0.76534688 0.18484715 0.09579176
v 0.88417476 0.18951079 0.08980298
v 0.76520336 0.18233028 0.16771898
v 0.82369101 0.19985284 0.21900728
v 0.57612449 0.20034833 0.00878690
v 0.64621729 0.21363159 0.02476951
v 0.54895908 0.19937146 -0.15573433
v 0.74246460 0.19891898 0.16619506
v 0.63813472 0.22665079 0.11204164
v 0.54780066 0.19109069 -0.07831082
v 0.47701746 0.18811104 -0.15203972
v 0.44446144 0.18789940 -0.09978583
v 0.47297871 0.19384098 -0.04828577
v 0.30740550 0.21358681 -0.14665563
v 0.27962112 0.22478378 -0.04901490
v 0.89714634 0.24362361 -0.09415731
v 0.87951767 0.24843113 -0.13255782
v 0.23570172 0.17927493 -0.15463640
v 0.57020849 0.23262890 -0.21271063
v 0.68963391 0.23176698 -0.21466836
v 0.54429817 0.23668353 0.00772914
v 0.47703677 0.22548071 -0.19974642
v 0.28586656 0.27026817 -0.21228051
v 0.68132418 0.16468111 0.18994433
v 0.69312227 0.19619359 0.24790199
v 0.76109469 0.23011051 0.22665787
v 0.23693839 0.18824400 -0.05177579
v 0.54025644 0.27069893 -0.21303390
v 0.90876520 0.21499215 0.10395085
v 0.34210697 0.25831485 -0.00461554
v 0.25233349 0.26973143 0.01858974
v 0.92920125 0.25386018 0.00231700
v 0.18538521 0.18336347 -0.22372989
v -0.97491586 0.23735054 0.08263783
v -0.96747971 0.26365739 -0.03460056
v -0.96521145 0.21696202 0.02405869
v -0.93504763 0.39964345 0.11571542
v -0.94356877 0.39203337 0.00326062
v -0.92938566 0.39326945 -0.05242891
v -0.92218095 0.42546892 0.04268214
v -0.93554449 0.25289962 0.18606660
v -0.92315221 0.24477875 -0.15336750
v -0.89056224 0.32117963 -0.22256771
v -0.89317936 0.24380852 -0.24950014
v -0.87529123 0.39390856 -0.13755111
v -0.86058098 0.39085564 0.23403753
v -0.92823344 0.21812302 -0.05887605
v -0.87197340 0.19899862 -0.21928130
v -0.89167023 0.24768977 0.23556313
v -0.88602269 0.19799837 0.21291415
v -0.22246253 -0.91480118 0.04949411
v -0.27576753 -0.90576190 0.09151021
v -0.26564488 -0.93026042 0.21499066
v -0.27781507 -0.85346031 -0.01119613
v -0.23792034 -0.96347189 0.22894189
v -0.22481246 -0.85637164 -0.01909411
v -0.38736543 -0.93747813 0.17826518
v -0.39286664 -0.91538161 0.05901285
v -0.33274034 -0.85662299 -0.02989889
v -0.42887211 -0.95843756 0.12719716
v -0.39187178 -0.92689067 -0.04134735
v -0.37854496 -0.86983371 -0.09789389
v -0.41473156 -0.97735304 -0.00812294
v -0.43401045 -0.98549330 0.09047522
v -0.39783621 -0.99530786 -0.09448387
v -0.39007702 -0.99596357 -0.15463288
v -0.36091614 -0.96961135 -0.20032448
v -0.34933731 -0.84909600 -0.18145949
v -0.34909427 -0.68245876 -0.12881643
v -0.34950212 -0.69118130 -0.02859437
v -0.22481246 -0.85637164 -0.01909411
v -0.19873427 -0.93233365 -0.02149890
v -0.18600482 -0.88750046 -0.09589268
v -0.22246253 -0.91480118 0.04949411
v -0.20694515 -1.00050974 0.14418308
v -0.23792034 -0.96347189 0.22894189
v -0.17902660 -1.00168550 -0.14167537
v -0.18377432 -0.83895612 -0.14653902
v -0.23456778 -1.00127578 0.21908955
v -0.14466269 -0.69338048 -0.04786464
v -0.14889841 -0.69462752 -0.14537628
v -0.21745992 -0.76350880 -0.00432510
v -0.16847356 -0.69404435 0.00165034
v -0.74230361 0.19838026 0.06042006
v -0.82053363 0.19076872 0.00564118
v -0.68399400 0.21223412 0.02229124
v -0.79487705 0.19163761 0.16291407
v -0.91450131 0.18447334 0.11817589
v -0.69226807 0.21634121 0.11826839
v -0.88602269 0.19799837 0.21291415
v -0.92823344 0.21812302 -0.05887605
v -0.96521145 0.21696202 0.02405869
v -0.84331220 0.18814091 -0.06285696
v -0.69526124 0.18871011 -0.03741964
v -0.77870232 0.18890609 -0.14590360
v -0.62944388 0.18471700 -0.14891097
v -0.87197340 0.19899862 -0.21928130
v -0.62526214 0.17736804 -0.09260171
v -0.61696202 0.20693661 0.00950795
v -0.56854206 0.18876839 -0.06754194
v -0.79132473 0.21395610 0.22215798
v -0.92315221 0.24477875 -0.15336750
v -0.72558147 0.22213423 -0.20234387
v -0.58949691 0.22264622 -0.01060769
v -0.52798712 0.23512188 0.00877648
v -0.41271022 0.20338158 -0.07487086
v -0.52226114 0.18906248 -0.15342574
v -0.60774177 0.21074884 -0.18795873
v -0.37407508 0.22238237 -0.16599931
v -0.29518545 0.20647803 -0.06416864
v -0.28507400 0.19170935 -0.17932172
v -0.32900387 0.26136827 -0.00693022
v -0.72900760 0.16436471 0.18961005
v -0.72875279 0.18902445 0.23811956
v -0.52209228 0.22565305 -0.19959526
v -0.35166544 0.24516222 -0.19213718
v -0.97491586 0.23735054 0.08263783
v -0.59140301 0.30456963 0.02330030
v 0.34522307 -0.92694753 -0.04480265
v 0.29625612 -0.85866797 -0.02863811
v 0.33602035 -0.90893513 0.05085271
v 0.33613324 -0.92014754 -0.10966241
v 0.37621972 -0.94996995 0.13835810
v 0.38721269 -0.98565811 0.07874694
v 0.34653881 -0.93406707 0.17208095
v 0.35849610 -1.00061476 -0.04074157
v 0.33288786 -1.00171041 -0.17941546
v 0.31476846 -0.96517843 -0.19661656
v 0.32383451 -0.81314242 -0.13610333
v 0.30880275 -0.68340182 -0.06094536
v 0.28592411 -0.68128878 -0.16821325
v 0.36793262 -1.00185657 0.14506866
v 0.29014355 -0.85751379 -0.18658616
v 0.28426722 -0.74591094 -0.01979678
v 0.29021865 -0.69407237 -0.01268984
v 0.22239634 -0.89670837 0.06316905
v 0.23515362 -0.93151867 0.21354304
v 0.33602035 -0.90893513 0.05085271
v 0.34653881 -0.93406707 0.17208095
v 0.29625612 -0.85866797 -0.02863811
v 0.17295429 -0.85619199 -0.02029951
v 0.17574336 -0.92091346 0.06162357
v 0.18031102 -0.96610159 0.21046506
v 0.19959477 -0.98534590 0.23375313
v 0.16241029 -0.94660652 -0.18658653
v 0.17995931 -0.84814698 -0.18518765
v 0.29014355 -0.85751379 -0.18658616
v 0.20340353 -0.69711107 -0.20900424
v 0.12428255 -0.69693094 -0.18724331
v 0.22364405 -0.99369055 -0.21170549
v 0.31476846 -0.96517843 -0.19661656
v 0.16099744 -1.00176084 -0.18801165
v 0.33288786 -1.00171041 -0.17941546
v 0.28592411 -0.68128878 -0.16821325
v -0.21416441 0.65804291 0.03617289
v -0.23071635 0.67833441 -0.00580897
v -0.20632967 0.56289774 -0.00948445
v -0.19814613 0.63554817 0.08478328
v -0.19609213 0.52975410 0.03449237
v -0.18610230 0.63018376 0.11818959
v -0.13883537 0.47586393 0.14309205
v -0.18832564 0.72888368 0.10734031
v -0.24179757 0.70907384 0.01326945
v -0.23454064 0.75511980 0.07448363
v -0.24511479 0.86055398 -0.05656625
v -0.24915375 0.72868341 -0.05534598
v -0.23006572 0.85396916 0.07857217
v -0.22441939 0.76192021 0.10242926
v -0.21128313 0.86592597 0.12314229
v -0.24669752 0.86612815 -0.14298429
v -0.24146095 0.68993926 -0.11517230
v -0.22370906 0.69686401 -0.19360450
v -0.23409797 0.84833956 -0.20682824
v -0.21426652 0.58290130 -0.11308701
v -0.18253030 0.52781993 -0.02991394
v -0.16599075 0.48477542 0.00544121
v -0.16397068 0.54669350 -0.22035840
v -0.17083068 0.52715874 -0.14718534
v -0.16789934 0.48031583 -0.15598068
v -0.19448471 0.48484048 -0.08312934
v -0.13320200 0.46211818 0.05965478
v -0.21057954 0.45400378 -0.02801024
v -0.27743450 0.68308270 -0.09072658
v -0.26319858 0.57526112 -0.07726284
v -0.13707174 0.56986451 0.16260852
v -0.14370674 0.64368814 0.16885725
v -0.14448141 0.74098408 0.15267241
v -0.16870686 0.76794821 0.12410881
v -0.17991991 0.79649240 0.15226611
v -0.15319015 0.40282628 0.07175387
v -0.17125374 0.68200475 -0.25048277
v -0.18460749 0.81055737 -0.26065776
v -0.18013050 0.92565632 -0.19271259
v -0.16595265 0.85723251 -0.26514322
v 0.61781365 0.37923238 0.16408896
v 0.68271452 0.27448949 0.25059685
v 0.67466146 0.33146495 0.20458719
v 0.73123723 0.28879723 0.18775721
v 0.76109469 0.23011051 0.22665787
v 0.69312227 0.19619359 0.24790199
v 0.71605504 0.35873038 0.23239708
v 0.70004684 0.41608214 0.21685503
v 0.81701356 0.39236042 0.23492660
v 0.85015237 0.25647572 0.23500060
v 0.82369101 0.19985284 0.21900728
v 0.14582261 -0.82320172 -0.04170020
v 0.13373302 -0.85040247 -0.10162829
v 0.13934250 -0.93273294 -0.06712081
v 0.09186593 -0.69502807 -0.08016937
v 0.10482682 -0.69306451 -0.02241839
v 0.12068303 -0.77424669 -0.14308658
v 0.14628880 -0.86713654 -0.15404935
v 0.12428255 -0.69693094 -0.18724331
v 0.12572706 -0.99465656 -0.10613712
v 0.15189458 -0.95826823 0.01084816
v 0.14524655 -1.00150132 -0.01645940
v 0.17217958 -1.00076568 0.19153036
v 0.18031102 -0.96610159 0.21046506
v 0.17295429 -0.85619199 -0.02029951
v 0.17574336 -0.92091346 0.06162357
v 0.19959477 -0.98534590 0.23375313
v 0.16241029 -0.94660652 -0.18658653
v 0.16099744 -1.00176084 -0.18801165
v 0.13553877 -0.69407552 0.01006820
v 0.17995931 -0.84814698 -0.18518765
v -0.03975081 -0.27119440 0.00491119
v -0.00251276 -0.27546236 -0.08598683
v -0.00403811 -0.26626456 0.01961543
v -0.07704484 -0.23700918 0.09824840
v 0.03523922 -0.23502196 0.10789846
v -0.04621689 -0.26621535 -0.11323586
v 0.03550448 -0.24173851 -0.18543299
v -0.07407261 -0.24384515 -0.17746295
v -0.00848884 -0.20010649 0.13848758
v -0.08866862 -0.23058888 0.11132897
v -0.34933731 -0.84909600 -0.18145949
v -0.28088316 -0.79407406 -0.20330024
v -0.30090258 -0.86824971 -0.19088621
v -0.32457915 -0.68867815 -0.17739668
v -0.36091614 -0.96961135 -0.20032448
v -0.23092291 -0.88056242 -0.18394916
v -0.19716457 -0.69982374 -0.19871622
v -0.30422843 -0.67999691 -0.20283046
v -0.30949792 -0.99173075 -0.21348791
v -0.21236867 -1.00157249 -0.19058792
v -0.36203310 -1.00188816 -0.19077308
v -0.18377432 -0.83895612 -0.14653902
v -0.17902660 -1.00168550 -0.14167537
v -0.14889841 -0.69462752 -0.14537628
v -0.39007702 -0.99596357 -0.15463288
v -0.34909427 -0.68245876 -0.12881643
v -0.69831604 0.26277107 0.23551075
v -0.73613423 0.33724341 0.21975535
v -0.75319952 0.25993344 0.25438046
v -0.66264719 0.38871205 0.15803197
v -0.74177510 0.41185766 0.22276305
v -0.72875279 0.18902445 0.23811956
v -0.81451434 0.31775445 0.23216443
v -0.86058098 0.39085564 0.23403753
v -0.89167023 0.24768977 0.23556313
v -0.79132473 0.21395610 0.22215798
v -0.88602269 0.19799837 0.21291415
v -0.76322204 0.30477327 0.17601697
v -0.65875137 0.24115270 0.18380181
v -0.27781507 -0.85346031 -0.01119613
v -0.21745992 -0.76350880 -0.00432510
v -0.29676133 -0.73474574 0.00154978
v -0.22481246 -0.85637164 -0.01909411
v -0.33274034 -0.85662299 -0.02989889
v -0.25001878 -0.69474572 0.03042005
v -0.16847356 -0.69404435 0.00165034
v -0.34950212 -0.69118130 -0.02859437
v -0.37854496 -0.86983371 -0.09789389
v 0.29021865 -0.69407237 -0.01268984
v 0.21446224 -0.78444332 0.00023068
v 0.28426722 -0.74591094 -0.01979678
v 0.19991268 -0.69689208 0.02746149
v 0.29625612 -0.85866797 -0.02863811
v 0.17295429 -0.85619199 -0.02029951
v 0.13553877 -0.69407552 0.01006820
v 0.14582261 -0.82320172 -0.04170020
v 0.59628600 0.30477524 0.14136879
v 0.60385883 0.31472948 0.05555518
v 0.63813472 0.22665079 0.11204164
v 0.61981571 0.23458885 0.19687369
v 0.64621729 0.21363159 0.02476951
v 0.68132418 0.16468111 0.18994433
v 0.69312227 0.19619359 0.24790199
v 0.62281758 0.39851806 0.14055079
v 0.60424703 0.37920752 0.02457617
v 0.61781365 0.37923238 0.16408896
v 0.68271452 0.27448949 0.25059685
v 0.34653881 -0.93406707 0.17208095
v 0.23515362 -0.93151867 0.21354304
v 0.30102271 -0.99803430 0.20464773
v 0.19959477 -0.98534590 0.23375313
v 0.36793262 -1.00185657 0.14506866
v -0.06682569 0.46079126 0.16994178
v -0.01252600 0.44870445 0.11611497
v -0.02145565 0.45975408 0.18343416
v -0.09098237 0.45804670 0.10956666
v -0.13883537 0.47586393 0.14309205
v -0.13320200 0.46211818 0.05965478
v 0.03002781 0.46677467 0.16682301
v 0.07334159 0.46267921 0.08628094
v 0.08316138 0.47451186 0.15142448
v -0.14466269 -0.69338048 -0.04786464
v -0.14889841 -0.69462752 -0.14537628
v -0.09110095 -0.68212861 -0.08100788
v -0.10295550 -0.68614972 -0.01158634
v -0.16847356 -0.69404435 0.00165034
v -0.19415168 -0.69375890 0.07311311
v -0.25001878 -0.69474572 0.03042005
v -0.28239074 -0.68460494 0.06963971
v -0.34950212 -0.69118130 -0.02859437
v -0.09790582 -0.67669123 -0.13286434
v -0.12782976 -0.68465018 -0.19233654
v -0.19716457 -0.69982374 -0.19871622
v -0.34399769 -0.67494017 0.03712013
v -0.20209189 -0.68346578 -0.24238098
v -0.27947190 -0.67285281 -0.25287190
v -0.30422843 -0.67999691 -0.20283046
v -0.35832059 -0.65695703 -0.20374954
v -0.32457915 -0.68867815 -0.17739668
v -0.37977186 -0.64978683 -0.14492986
v -0.34909427 -0.68245876 -0.12881643
v -0.38160780 -0.66138101 -0.04666881
v 0.23032895 0.65199333 -0.10140868
v 0.21078505 0.57148427 -0.06634153
v 0.16029721 0.57227272 -0.09784172
v 0.19743697 0.69803768 -0.11258570
v 0.14995472 0.57106733 -0.18863969
v 0.15827943 0.56199127 -0.00492835
v 0.18148802 0.67408782 -0.00519612
v 0.15804455 0.72381234 0.08807531
v 0.14575680 0.52346873 0.04507667
v 0.14435494 0.66527212 0.11417911
v 0.08316138 0.47451186 0.15142448
v 0.09889651 0.64647377 0.16946186
v 0.20365281 0.71363389 -0.03569050
v 0.19008581 0.74035239 0.06412964
v 0.19954917 0.85613704 -0.04742388
v 0.17710109 0.85433739 0.09475839
v 0.16287217 0.79359341 0.12983681
v 0.12334290 0.77271414 0.12700707
v 0.11951157 0.88445568 0.15765683
v 0.20042843 0.86459965 -0.13587935
v 0.18540142 0.83937067 -0.21221155
v 0.13243407 0.51609087 -0.02921205
v 0.16710989 0.68095934 -0.20501685
v 0.12931019 0.53278053 -0.14584845
v 0.11392762 0.48889682 0.03827717
v 0.12412050 0.43907526 0.01752611
v 0.15935092 0.47316799 -0.06196713
v 0.07334159 0.46267921 0.08628094
v 0.09330013 0.41483006 0.06178040
v 0.12666313 0.47893846 -0.15469900
v 0.09593567 0.53768522 -0.22547847
v 0.08426967 0.49199879 -0.17643841
v 0.12847689 0.65435183 -0.23928028
v 0.13273944 0.92649162 -0.18996848
v -0.21426652 0.58290130 -0.11308701
v -0.20632967 0.56289774 -0.00948445
v -0.26319858 0.57526112 -0.07726284
v 0.28592411 -0.68128878 -0.16821325
v 0.29506499 -0.66679275 -0.22207275
v 0.31583974 -0.66040617 -0.19747105
v 0.30880275 -0.68340182 -0.06094536
v 0.20340353 -0.69711107 -0.20900424
v 0.24113637 -0.66810900 -0.24890126
v 0.14099272 -0.68400252 -0.23927833
v 0.32911810 -0.66601872 -0.02216939
v 0.29021865 -0.69407237 -0.01268984
v 0.29169697 -0.67792469 0.03848732
v 0.10649594 -0.69217759 0.05431384
v 0.10482682 -0.69306451 -0.02241839
v 0.13553877 -0.69407552 0.01006820
v 0.05205283 -0.68657744 -0.02194793
v 0.09186593 -0.69502807 -0.08016937
v 0.15822828 -0.69045103 0.07469726
v 0.19991268 -0.69689208 0.02746149
v 0.04739657 -0.68310189 -0.09977277
v 0.07648318 -0.68411404 -0.18148491
v 0.12428255 -0.69693094 -0.18724331
v 0.22662008 -0.68485433 0.07244956
v 0.29169697 -0.67792469 0.03848732
v 0.29021865 -0.69407237 -0.01268984
v 0.14099272 -0.68400252 -0.23927833
v 0.20340353 -0.69711107 -0.20900424
v -0.75319952 0.25993344 0.25438046
v -0.73613423 0.33724341 0.21975535
v -0.76322204 0.30477327 0.17601697
v -0.79132473 0.21395610 0.22215798
v 0.21078505 0.57148427 -0.06634153
v 0.15827943 0.56199127 -0.00492835
v 0.16029721 0.57227272 -0.09784172
v -0.34693816 -0.98892927 0.20643041
v -0.23456778 -1.00127578 0.21908955
v -0.23792034 -0.96347189 0.22894189
v -0.26564488 -0.93026042 0.21499066
v -0.38736543 -0.93747813 0.17826518
v -0.40784103 -1.00026500 0.16626985
v -0.42887211 -0.95843756 0.12719716
v -0.43401045 -0.98549330 0.09047522
v -0.08450621 -0.07649940 0.18437441
v -0.09380050 -0.08144786 0.15625244
v 0.02190373 -0.07845002 0.18663286
v -0.02273814 -0.10145126 0.15646493
v 0.05070686 -0.07762901 0.15289329
v 0.16287217 0.79359341 0.12983681
v 0.08054214 0.76232922 0.18424791
v 0.12334290 0.77271414 0.12700707
v 0.07405494 0.73859805 0.15841086
v -0.02433248 0.73401469 0.17883277
v -0.16870686 0.76794821 0.12410881
v -0.14448141 0.74098408 0.15267241
v -0.17991991 0.79649240 0.15226611
v -0.08845588 0.76381177 0.19224383
v -0.02433248 0.73401469 0.17883277
v 0.08054214 0.76232922 0.18424791
v -0.17573321 0.88595122 0.14888164
v -0.00505598 0.88804674 0.18065335
v 0.11951157 0.88445568 0.15765683
v -0.21128313 0.86592597 0.12314229
v 0.16287217 0.79359341 0.12983681
v -0.17125374 0.68200475 -0.25048277
v -0.07888976 0.82015836 -0.28037921
v 0.03290999 0.61720842 -0.25566500
v -0.02721657 0.51686209 -0.23911341
v 0.06692491 0.70262045 -0.26481968
v 0.01065963 0.85403901 -0.28471947
v -0.18460749 0.81055737 -0.26065776
v -0.16397068 0.54669350 -0.22035840
v -0.16595265 0.85723251 -0.26514322
v -0.07143377 0.87172359 -0.27657828
v 0.09593567 0.53768522 -0.22547847
v 0.11939558 0.85919738 -0.26539767
v 0.12847689 0.65435183 -0.23928028
v 0.15271321 0.82118934 -0.25081965
v 0.08426967 0.49199879 -0.17643841
v 0.16710989 0.68095934 -0.20501685
v 0.14995472 0.57106733 -0.18863969
v -0.07377681 0.49557364 -0.19283552
v -0.11421242 0.45135194 -0.19371304
v -0.16789934 0.48031583 -0.15598068
v 0.18540142 0.83937067 -0.21221155
v -0.52798712 0.23512188 0.00877648
v -0.43670896 0.29464549 0.01439083
v -0.59140301 0.30456963 0.02330030
v -0.32900387 0.26136827 -0.00693022
v -0.32682657 0.33656192 0.02280767
v -0.44908223 0.34612086 0.00662134
v -0.35467061 0.40010500 0.00913012
v -0.43401045 -0.98549330 0.09047522
v -0.41473156 -0.97735304 -0.00812294
v -0.41302735 -1.00089765 0.00048966
v -0.39783621 -0.99530786 -0.09448387
v -0.64811391 0.32370317 0.05177408
v -0.64262664 0.30564278 0.14118546
v -0.65875137 0.24115270 0.18380181
v -0.66264719 0.38871205 0.15803197
v -0.69831604 0.26277107 0.23551075
v -0.68898708 0.23864162 0.06703304
v -0.68399400 0.21223412 0.02229124
v -0.69226807 0.21634121 0.11826839
v -0.59140301 0.30456963 0.02330030
v -0.61696202 0.20693661 0.00950795
v -0.58949691 0.22264622 -0.01060769
v -0.72900760 0.16436471 0.18961005
v -0.72875279 0.18902445 0.23811956
v -0.66224557 0.38031167 0.02902134
v -0.74230361 0.19838026 0.06042006
v -0.61437559 0.37516624 0.01795858
v -0.64811391 0.32370317 0.05177408
v -0.59140301 0.30456963 0.02330030
v -0.58679748 0.36310425 -0.02630675
vt 0.23887868 0.98072332
vt 0.23569895 0.90442497
vt 0.16957806 0.91130173
vt 0.16395819 0.98266667
vt 0.29858103 0.96577406
vt 0.28607401 0.90581882
vt 0.15222077 0.93809313
vt 0.27160090 0.98266667
vt 0.30347595 0.94245291
vt 0.14750445 0.97534907
vt 0.19189447 0.90088886
vt 0.35281539 0.51849294
vt 0.37000066 0.51505953
vt 0.38713938 0.52007723
vt 0.31718269 0.50960559
vt 0.33114421 0.51813185
vt 0.32733175 0.44279957
vt 0.31128907 0.45656061
vt 0.42996418 0.44133329
vt 0.45766488 0.44814110
vt 0.44580844 0.51165086
vt 0.30704099 0.49193335
vt 0.45766488 0.48851836
vt 0.41995820 0.52399999
vt 0.39306304 0.32285625
vt 0.30826029 0.35051066
vt 0.28871113 0.32600462
vt 0.40408778 0.34924674
vt 0.26699209 0.35604227
vt 0.43632951 0.35109162
vt 0.36382136 0.37294549
vt 0.30259091 0.39048576
vt 0.41766030 0.38587046
vt 0.44986689 0.39444983
vt 0.37187535 0.38903487
vt 0.24728750 0.36918664
vt 0.48741761 0.34824568
vt 0.50119752 0.36345249
vt 0.52684760 0.34490633
vt 0.54530573 0.37581182
vt 0.27672791 0.40059483
vt 0.23825149 0.40189821
vt 0.55613697 0.34697521
vt 0.20081319 0.35249937
vt 0.17975612 0.37892181
vt 0.12665129 0.36919963
vt 0.12760203 0.33951658
vt 0.10925215 0.35975325
vt 0.11575527 0.32296664
vt 0.06539589 0.32069159
vt 0.15241821 0.32022333
vt 0.22862342 0.33603090
vt 0.30478281 0.28913152
vt 0.35293195 0.25518680
vt 0.31327438 0.25056672
vt 0.33524463 0.22925389
vt 0.38838091 0.23686063
vt 0.35251772 0.21592700
vt 0.39036268 0.20891273
vt 0.52657610 0.32123858
vt 0.46511951 0.32302737
vt 0.29324147 0.22700387
vt 0.32821503 0.20612311
vt 0.28148428 0.21204281
vt 0.31828392 0.16871297
vt 0.37121472 0.16125649
vt 0.39804485 0.16099167
vt 0.30149212 0.15466613
vt 0.55669892 0.31688422
vt 0.59697223 0.32295954
vt 0.59279412 0.34673238
vt 0.55997205 0.37962079
vt 0.37890086 0.15072536
vt 0.41314664 0.09183514
vt 0.39213526 0.05347198
vt 0.42770162 0.03016120
vt 0.40320799 0.00044447
vt 0.42932913 0.00352991
vt 0.39978054 0.25257504
vt 0.40337625 0.29651731
vt 0.27225879 0.18857223
vt 0.27108905 0.11201179
vt 0.29207972 0.08662909
vt 0.25971487 0.06270605
vt 0.28075513 0.00336027
vt 0.24720003 0.00893182
vt 0.26644972 0.30387282
vt 0.11644153 0.37757432
vt 0.07421731 0.37260842
vt 0.45046794 0.33478022
vt 0.22735272 0.01173329
vt 0.59442109 0.38742697
vt 0.27489883 0.24795711
vt 0.63003641 0.33804631
vt 0.62696439 0.36811519
vt 0.65552586 0.35791153
vt 0.65432298 0.33013141
vt 0.31947756 0.13515198
vt 0.32117245 0.15097952
vt 0.03634862 0.34055018
vt 0.03486109 0.36167336
vt 0.00350083 0.33178747
vt 0.00245326 0.30824959
vt 0.00044563 0.36540896
vt 0.45941800 0.01267660
vt 0.44620985 0.05589080
vt 0.43242490 0.11473906
vt 0.42823437 0.17000723
vt 0.64501119 0.31213903
vt 0.44344330 0.30099308
vt 0.31090546 0.06970680
vt 0.41217759 0.20849872
vt 0.24997386 0.12049484
vt 0.23453593 0.06336182
vt 0.42402291 0.23273921
vt 0.37324372 0.00111461
vt 0.36535534 0.11386555
vt 0.35705829 0.14789039
vt 0.37009448 0.05800807
vt 0.01899212 0.39158130
vt 0.37836179 0.40844440
vt 0.42872980 0.40844440
vt 0.42748350 0.24404049
vt 0.25574338 0.23646176
vt 0.33256704 0.59598958
vt 0.31219152 0.56043041
vt 0.33833814 0.56535262
vt 0.30717137 0.59176701
vt 0.34879246 0.57575357
vt 0.34876227 0.55542493
vt 0.37940893 0.55186170
vt 0.37132642 0.58452964
vt 0.42033428 0.55707824
vt 0.40982264 0.59169400
vt 0.35574159 0.52438897
vt 0.31422612 0.54676706
vt 0.31698161 0.51885223
vt 0.27759808 0.52698737
vt 0.26783675 0.49724662
vt 0.19502014 0.48967361
vt 0.18636698 0.45720303
vt 0.14856136 0.47311449
vt 0.10739421 0.42883837
vt 0.43172807 0.53074729
vt 0.30119589 0.57243174
vt 0.26481131 0.56041485
vt 0.09914282 0.45304036
vt 0.18602918 0.43593997
vt 0.11579313 0.40271306
vt 0.27604562 0.47528899
vt 0.26455030 0.60684949
vt 0.30391237 0.60013282
vt 0.34237069 0.60269874
vt 0.40498197 0.64490288
vt 0.43383113 0.59664518
vt 0.21001485 0.52256674
vt 0.25205621 0.54057878
vt 0.24451053 0.58867264
vt 0.19608428 0.60975379
vt 0.29201344 0.63011712
vt 0.30221495 0.61913365
vt 0.15577401 0.64304680
vt 0.13827640 0.61612445
vt 0.04630679 0.65392774
vt 0.04590018 0.61609668
vt 0.11568380 0.59233207
vt 0.24165727 0.58159173
vt 0.09221775 0.47258329
vt 0.16571644 0.50716949
vt 0.32723108 0.64504588
vt 0.33183840 0.60540754
vt 0.13271730 0.67355829
vt 0.04680417 0.68400002
vt 0.37551549 0.65254825
vt 0.33512422 0.63498819
vt 0.45213738 0.63492119
vt 0.46597600 0.56596619
vt 0.48848650 0.53338808
vt 0.04603485 0.56288105
vt 0.43063751 0.67890400
vt 0.45377505 0.51362312
vt 0.48418841 0.50486994
vt 0.50294328 0.52133441
vt 0.50222379 0.47748274
vt 0.48292309 0.48688734
vt 0.46038899 0.49552137
vt 0.46902123 0.46698588
vt 0.49548334 0.46604550
vt 0.48911288 0.40491432
vt 0.51483995 0.41493487
vt 0.52839231 0.45955908
vt 0.51962245 0.39302361
vt 0.48174292 0.39224553
vt 0.49230087 0.37288892
vt 0.52743995 0.51198947
vt 0.47004414 0.59159696
vt 0.46607980 0.62377954
vt 0.48968506 0.60449177
vt 0.50118303 0.57796264
vt 0.48868528 0.56509060
vt 0.47477055 0.62692082
vt 0.49001101 0.62831748
vt 0.46706387 0.64842993
vt 0.48662242 0.64752895
vt 0.46622798 0.68400002
vt 0.53787881 0.40236914
vt 0.50506806 0.55610293
vt 0.53067690 0.42417753
vt 0.85333103 0.76119608
vt 0.82684934 0.72660142
vt 0.78952461 0.74694079
vt 0.82316935 0.79759395
vt 0.79428810 0.78160036
vt 0.78640455 0.69667679
vt 0.82193148 0.68845785
vt 0.89521629 0.72744757
vt 0.85925901 0.68858689
vt 0.89860469 0.69748443
vt 0.89317846 0.80216479
vt 0.84925586 0.83155555
vt 0.78699398 0.81996721
vt 0.89518297 0.82269549
vt 0.77052355 0.81213892
vt 0.75400198 0.71504289
vt 0.76012129 0.79642701
vt 0.75356507 0.74712199
vt 0.93181819 0.75085789
vt 0.93181819 0.71826094
vt 0.92182177 0.80205417
vt 0.89588654 0.65979403
vt 0.82478458 0.65756744
vt 0.85582638 0.65111113
vt 0.78905469 0.65938306
vt 0.92629814 0.67056841
vt 0.91462761 0.65442204
vt 0.68896288 0.87389594
vt 0.64043254 0.87393004
vt 0.65655398 0.84035093
vt 0.59505820 0.83538336
vt 0.58810860 0.87228346
vt 0.71092349 0.85225016
vt 0.73956317 0.87303263
vt 0.74114794 0.84540075
vt 0.73573959 0.83338565
vt 0.67624897 0.80760133
vt 0.60610056 0.80230033
vt 0.74556482 0.81478310
vt 0.58894140 0.79629326
vt 0.75000000 0.78444445
vt 0.66397250 0.90336335
vt 0.61962193 0.90594375
vt 0.57620323 0.90622222
vt 0.74098784 0.90622222
vt 0.66824901 0.09422207
vt 0.63175166 0.09756070
vt 0.65666920 0.12636387
vt 0.67906135 0.06482601
vt 0.66853404 0.04009414
vt 0.61100268 0.06619519
vt 0.63735831 0.03570455
vt 0.75534761 0.05485249
vt 0.70954138 0.00900024
vt 0.73746824 0.08757311
vt 0.70130551 0.10576850
vt 0.68902248 0.00577778
vt 0.60987169 0.05128002
vt 0.62824231 0.13542700
vt 0.75195849 0.01422727
vt 0.69191533 0.13162571
vt 0.65207851 0.14269233
vt 0.66959739 0.17898536
vt 0.69241047 0.17294490
vt 0.64353818 0.19286323
vt 0.62937683 0.14630717
vt 0.71661949 0.23093027
vt 0.67436290 0.25184745
vt 0.65650004 0.25188267
vt 0.72050011 0.27635002
vt 0.69052887 0.29795504
vt 0.66170937 0.29037380
vt 0.66487867 0.31089389
vt 0.65483046 0.31825614
vt 0.66189581 0.39257669
vt 0.74762887 0.23812020
vt 0.75534761 0.27901632
vt 0.61267471 0.10525739
vt 0.59046346 0.08257550
vt 0.68389064 0.39600003
vt 0.59062022 0.05140877
vt 0.69261295 0.31688988
vt 0.74780071 0.08940935
vt 0.84881312 0.18373078
vt 0.80482870 0.19120222
vt 0.81944019 0.21892577
vt 0.85825294 0.21898347
vt 0.78697264 0.15093714
vt 0.83960491 0.12949562
vt 0.77396798 0.11296076
vt 0.71932095 0.15228212
vt 0.71011275 0.17836213
vt 0.73377299 0.20760715
vt 0.78524810 0.22528136
vt 0.78025115 0.20845425
vt 0.85311973 0.23482978
vt 0.87560165 0.15422273
vt 0.74617195 0.10711110
vt 0.80983454 0.10904348
vt 0.70365417 0.13473964
vt 0.80132365 0.23730612
vt 0.81549424 0.27177465
vt 0.85287631 0.27801698
vt 0.81373227 0.32066286
vt 0.83621907 0.33891386
vt 0.80284339 0.34771544
vt 0.80974275 0.37537903
vt 0.87513721 0.33322692
vt 0.86679727 0.35709614
vt 0.83210194 0.38184178
vt 0.85869730 0.38944948
vt 0.87923354 0.12212366
vt 0.87923354 0.40558857
vt 0.78552729 0.28451848
vt 0.87306464 0.27552015
vt 0.79076314 0.32239497
vt 0.78241116 0.35721433
vt 0.76894236 0.39484382
vt 0.77469039 0.23358214
vt 0.86951816 0.42533332
vt 0.76091284 0.21953893
vt 0.72557133 0.69857693
vt 0.68929029 0.70339769
vt 0.71443117 0.77174956
vt 0.67941588 0.76993531
vt 0.69786257 0.65156150
vt 0.73815966 0.66226441
vt 0.72854900 0.62152350
vt 0.66918838 0.60188162
vt 0.71713847 0.56409121
vt 0.67431420 0.56298405
vt 0.66379899 0.66027063
vt 0.65972137 0.72403884
vt 0.65718943 0.77171648
vt 0.65474504 0.56100357
vt 0.74749625 0.60246009
vt 0.73929393 0.55848515
vt 0.70390713 0.54832584
vt 0.66257507 0.53449696
vt 0.71240950 0.53014922
vt 0.66624135 0.52281088
vt 0.69569814 0.51617187
vt 0.73185343 0.51727462
vt 0.72570485 0.43779325
vt 0.75660390 0.52535647
vt 0.75106412 0.70073634
vt 0.74736124 0.77200001
vt 0.68091232 0.45692277
vt 0.64126557 0.46922767
vt 0.75666589 0.46867132
vt 0.73434734 0.41475165
vt 0.77406418 0.44027221
vt 0.76406854 0.51577938
vt 0.70414114 0.40254331
vt 0.69359356 0.42919588
vt 0.77310866 0.56158149
vt 0.77406418 0.67913359
vt 0.72710323 0.37555552
vt 0.69181806 0.38067698
vt 0.07126850 0.52977645
vt 0.07855350 0.47111285
vt 0.01953294 0.49143016
vt 0.03913827 0.46306586
vt 0.08967986 0.50955814
vt 0.01381462 0.51246983
vt 0.01787538 0.55709052
vt 0.06821569 0.55890441
vt 0.08088759 0.43484175
vt 0.03408548 0.43186665
vt 0.07831296 0.41981304
vt 0.06533080 0.39221728
vt 0.09135472 0.38188887
vt 0.02101639 0.42897516
vt 0.03019006 0.39667660
vt 0.04697095 0.38483107
vt 0.07321870 0.37377775
vt 0.09135472 0.56133336
vt 0.82739067 0.06517035
vt 0.85711551 0.10288155
vt 0.79519594 0.07602507
vt 0.91395968 0.06230223
vt 0.79823506 0.10376459
vt 0.76602805 0.09087479
vt 0.76027560 0.10444444
vt 0.76535475 0.07922912
vt 0.76549876 0.03736645
vt 0.91331917 0.08098501
vt 0.91755795 0.10444444
vt 0.83361560 0.03211462
vt 0.91483879 0.03729528
vt 0.75445634 0.00133336
vt 0.86166537 0.00428009
vt 0.38536188 0.76223415
vt 0.33969355 0.76117539
vt 0.35386965 0.72642839
vt 0.39802223 0.71160263
vt 0.29436928 0.72315693
vt 0.29176444 0.74649751
vt 0.21767089 0.70929581
vt 0.25705585 0.75395346
vt 0.20887980 0.75120091
vt 0.41940197 0.71481878
vt 0.42032811 0.77242130
vt 0.29281336 0.76718724
vt 0.32617894 0.69675374
vt 0.26378885 0.69179702
vt 0.21060421 0.68915874
vt 0.42386979 0.68125081
vt 0.40010029 0.68949252
vt 0.37313119 0.78575045
vt 0.44442299 0.74115402
vt 0.44799715 0.70705748
vt 0.46456936 0.72982180
vt 0.46758750 0.77363080
vt 0.44614613 0.77987427
vt 0.45954785 0.68824667
vt 0.52221072 0.73295808
vt 0.51824671 0.69627208
vt 0.55729920 0.78426796
vt 0.28067675 0.78413713
vt 0.20721926 0.77678025
vt 0.46182951 0.80524176
vt 0.54258418 0.81022221
vt 0.42374632 0.81022221
vt 0.21034798 0.67758423
vt 0.55452138 0.75579232
vt 0.58333331 0.76194245
vt 0.51210028 0.66622221
vt 0.40386948 0.93188143
vt 0.44694740 0.92058331
vt 0.44027823 0.95569879
vt 0.41279402 0.90850556
vt 0.46568626 0.89999998
vt 0.39857864 0.95366633
vt 0.34700602 0.91082370
vt 0.34370127 0.93184167
vt 0.38571134 0.95441222
vt 0.34090909 0.95291984
vt 0.40309778 0.97159117
vt 0.40886727 0.99774665
vt 0.44337109 0.99866664
vt 0.38156098 0.99597907
vt 0.34123319 0.97032565
vt 0.34634033 0.99866664
vt 0.14272217 0.16819632
vt 0.16486487 0.12787199
vt 0.12218546 0.10586882
vt 0.13558190 0.09123743
vt 0.19741534 0.07782632
vt 0.12085091 0.06831276
vt 0.07899050 0.09245509
vt 0.08582693 0.05204898
vt 0.05435751 0.08860272
vt 0.04050098 0.06586647
vt 0.10447934 0.16406143
vt 0.09989695 0.13849139
vt 0.16468312 0.17997742
vt 0.05118180 0.09885722
vt 0.06860144 0.13907623
vt 0.13493919 0.17860150
vt 0.15986067 0.20610654
vt 0.14110503 0.21648443
vt 0.12400472 0.20540178
vt 0.15397151 0.26901042
vt 0.11609012 0.27448881
vt 0.15236039 0.04768437
vt 0.16608681 0.05341333
vt 0.15134297 0.29754788
vt 0.18890484 0.17294514
vt 0.19256070 0.13080955
vt 0.09946119 0.18017161
vt 0.18074185 0.20909405
vt 0.18532088 0.27824736
vt 0.03615417 0.12077504
vt 0.01827095 0.10832971
vt 0.02983834 0.08515292
vt 0.11861835 0.29334867
vt 0.19741534 0.18691850
vt 0.08194001 0.03982824
vt 0.09785333 0.25142288
vt 0.08696685 0.28034520
vt 0.12052882 0.03066665
vt 0.16957574 0.31955552
vt 0.42654663 0.88774991
vt 0.46789485 0.87753862
vt 0.44803712 0.89518607
vt 0.41451263 0.82832521
vt 0.45447904 0.83151400
vt 0.47490487 0.82954425
vt 0.44055113 0.81733334
vt 0.38831380 0.87912405
vt 0.51333404 0.88127136
vt 0.53877443 0.85194296
vt 0.54946524 0.87940550
vt 0.51045370 0.82298404
vt 0.36497328 0.82643050
vt 0.48102787 0.89645016
vt 0.54252738 0.89911109
vt 0.36510131 0.87912321
vt 0.36940891 0.89911109
vt 0.85046858 0.93884844
vt 0.86532378 0.91943640
vt 0.90964836 0.92790985
vt 0.82444656 0.91444618
vt 0.91577542 0.94266665
vt 0.81975663 0.93252808
vt 0.90252078 0.88343388
vt 0.86006904 0.87587249
vt 0.82073176 0.89454174
vt 0.88885462 0.86352527
vt 0.82629228 0.86188978
vt 0.79989469 0.87420201
vt 0.84376889 0.84689820
vt 0.87878639 0.85101020
vt 0.81595755 0.83263916
vt 0.79600245 0.82533336
vt 0.77514958 0.82969308
vt 0.76782531 0.87238431
vt 0.76797241 0.93416137
vt 0.80248243 0.94266665
vt 0.05788441 0.92262131
vt 0.03003919 0.92769670
vt 0.04810533 0.95386273
vt 0.03520904 0.90095538
vt 0.00132000 0.87083930
vt 0.01369678 0.83866668
vt 0.00806190 0.97229397
vt 0.06485671 0.97251922
vt 0.00044563 0.84263021
vt 0.11987522 0.94137847
vt 0.11684464 0.97555554
vt 0.09045167 0.91609842
vt 0.11987522 0.92198622
vt 0.48920378 0.21737999
vt 0.50885886 0.24448997
vt 0.50165057 0.19587165
vt 0.45259336 0.23509425
vt 0.46934235 0.27653253
vt 0.47015861 0.19891304
vt 0.43658715 0.26852274
vt 0.53117496 0.28387880
vt 0.50185066 0.29691386
vt 0.53341126 0.25234848
vt 0.52432454 0.19998580
vt 0.56296200 0.22941798
vt 0.56359082 0.17684799
vt 0.58868092 0.26275289
vt 0.54396665 0.17489451
vt 0.50636119 0.17210418
vt 0.53615731 0.15391988
vt 0.43037602 0.23693234
vt 0.56542075 0.28666806
vt 0.58620101 0.21052659
vt 0.51185411 0.15973616
vt 0.50521195 0.13707006
vt 0.54020649 0.09700906
vt 0.56675249 0.13796842
vt 0.57977253 0.16865689
vt 0.57515907 0.08369619
vt 0.53825665 0.05407059
vt 0.57970601 0.04933333
vt 0.50937742 0.06477100
vt 0.44081569 0.21122956
vt 0.42379680 0.21560597
vt 0.58747107 0.13784283
vt 0.58868092 0.07739806
vt 0.48039183 0.30444443
vt 0.47991508 0.16015387
vt 0.96195412 0.22745353
vt 0.93202108 0.23228759
vt 0.95344204 0.26075041
vt 0.95890355 0.20348305
vt 0.97200638 0.29106647
vt 0.98582822 0.27171201
vt 0.96218467 0.30355555
vt 0.98834634 0.22885168
vt 0.98885918 0.17914349
vt 0.97567397 0.17157501
vt 0.92069197 0.19099998
vt 0.87121212 0.21259689
vt 0.87330389 0.17346859
vt 0.98885918 0.29674309
vt 0.93645394 0.16933334
vt 0.89132041 0.23229241
vt 0.87249720 0.23139870
vt 0.16868123 0.54486096
vt 0.11348618 0.54673070
vt 0.16924037 0.58592230
vt 0.12535773 0.58711112
vt 0.20276292 0.57296318
vt 0.20276292 0.52932227
vt 0.16679162 0.52620804
vt 0.11245619 0.52399999
vt 0.10026738 0.52704650
vt 0.64100438 0.70042896
vt 0.63033503 0.73496169
vt 0.59084076 0.72682691
vt 0.61555803 0.78795987
vt 0.64393938 0.79155558
vt 0.62119168 0.68078226
vt 0.58674139 0.68712729
vt 0.64393938 0.68071705
vt 0.58155078 0.67333335
vt 0.58445138 0.79025370
vt 0.12053818 0.79917252
vt 0.12410044 0.78216797
vt 0.08454946 0.78979403
vt 0.11570661 0.81836027
vt 0.07519173 0.80854428
vt 0.11592265 0.83085221
vt 0.06323811 0.85513127
vt 0.14993936 0.82241124
vt 0.13711353 0.78487253
vt 0.15798935 0.80186552
vt 0.18401434 0.74935371
vt 0.13754949 0.75950545
vt 0.19184311 0.79605711
vt 0.16263765 0.81075788
vt 0.19919786 0.81147778
vt 0.18034762 0.71872896
vt 0.12066773 0.74047863
vt 0.11778025 0.71257997
vt 0.16800177 0.69865799
vt 0.08455809 0.74610633
vt 0.06504100 0.78417939
vt 0.05165561 0.80437541
vt 0.06072904 0.70945680
vt 0.05691446 0.73695362
vt 0.03882370 0.73579377
vt 0.04415293 0.76522285
vt 0.04705908 0.82979083
vt 0.03317185 0.78752053
vt 0.11908834 0.75282419
vt 0.08769523 0.76252401
vt 0.09746805 0.85644442
vt 0.12356450 0.85309744
vt 0.15665281 0.84408498
vt 0.16436283 0.83076555
vt 0.17871253 0.83052021
vt 0.02272727 0.83495241
vt 0.10520372 0.68815255
vt 0.15011169 0.67626619
vt 0.19919786 0.68541759
vt 0.16708396 0.66711110
vt 0.78208554 0.28666663
vt 0.72548944 0.29438043
vt 0.75272524 0.30312264
vt 0.73435766 0.31782633
vt 0.71168637 0.32544082
vt 0.69545883 0.29991210
vt 0.75860649 0.32523715
vt 0.78208554 0.32618690
vt 0.75836539 0.36311114
vt 0.70984638 0.35798788
vt 0.69385028 0.34212470
vt 0.27516475 0.83344370
vt 0.29685262 0.84331077
vt 0.28288344 0.87292635
vt 0.29181841 0.78572077
vt 0.27111387 0.78533334
vt 0.31284460 0.81614381
vt 0.31602111 0.85089564
vt 0.33044949 0.79036975
vt 0.29623771 0.89589638
vt 0.25454479 0.88231194
vt 0.26441786 0.89757293
vt 0.19046742 0.89911109
vt 0.18305498 0.88687414
vt 0.26323208 0.84483540
vt 0.23507938 0.86849010
vt 0.17245990 0.89405233
vt 0.32750922 0.87978947
vt 0.32732040 0.89911109
vt 0.25581586 0.78857666
vt 0.33288771 0.84609723
vt 0.22769074 0.19937539
vt 0.24156539 0.23141146
vt 0.24047051 0.19384670
vt 0.21423857 0.16417348
vt 0.25445634 0.16061461
vt 0.22571328 0.24131131
vt 0.25445634 0.26888889
vt 0.21526586 0.26522541
vt 0.23849125 0.14444447
vt 0.20989305 0.15915668
vt 0.70303267 0.98046547
vt 0.68079329 0.95791256
vt 0.70838982 0.96247745
vt 0.64616019 0.98049134
vt 0.74589103 0.98180944
vt 0.71097660 0.93644935
vt 0.64448464 0.93163943
vt 0.64126557 0.96987402
vt 0.75363362 0.96316266
vt 0.75441086 0.92776066
vt 0.75777310 0.98314267
vt 0.69479710 0.91567153
vt 0.75154191 0.90739846
vt 0.64306039 0.90622222
vt 0.75802141 0.99955553
vt 0.64490008 0.99955553
vt 0.97219962 0.07353508
vt 0.94464588 0.08549905
vt 0.97411162 0.09412199
vt 0.92268491 0.05478770
vt 0.91934049 0.09055603
vt 0.99955440 0.08294785
vt 0.95641273 0.11269027
vt 0.93105608 0.13078767
vt 0.98029596 0.14177775
vt 0.99474019 0.10742211
vt 0.99955440 0.14074117
vt 0.96503413 0.08625388
vt 0.98143625 0.05022222
vt 0.95223135 0.63207304
vt 0.93820119 0.66927195
vt 0.96840781 0.67442244
vt 0.93378961 0.63417417
vt 0.97290355 0.62550515
vt 0.95308596 0.69446808
vt 0.92647058 0.69822222
vt 0.99331552 0.68388444
vt 0.99331552 0.61199999
vt 0.65463459 0.24922240
vt 0.62457931 0.27928829
vt 0.65165395 0.26726282
vt 0.61946595 0.24666667
vt 0.65463459 0.30711114
vt 0.61050481 0.30630708
vt 0.59581107 0.24716127
vt 0.59727001 0.29619157
vt 0.57280618 0.43879747
vt 0.56920546 0.47010118
vt 0.60484189 0.44820845
vt 0.60098511 0.41770512
vt 0.60985577 0.48044443
vt 0.63146168 0.41720694
vt 0.62081051 0.39415568
vt 0.53966135 0.43548447
vt 0.54498529 0.48044443
vt 0.54662716 0.42741197
vt 0.59082180 0.39244443
vt 0.22415330 0.85902995
vt 0.22415327 0.81632429
vt 0.20008913 0.83995783
vt 0.20416439 0.80222225
vt 0.20059919 0.87066668
vt 0.79291642 0.39515245
vt 0.80974925 0.41725945
vt 0.80966145 0.39244443
vt 0.78155971 0.41573417
vt 0.76608276 0.40104926
vt 0.76426023 0.43155557
vt 0.82719249 0.40059400
vt 0.83888990 0.43155557
vt 0.84536541 0.40836680
vt 0.94601804 0.38703376
vt 0.91099548 0.38186359
vt 0.93209553 0.40577781
vt 0.95789683 0.40349787
vt 0.96446478 0.37994909
vt 0.99064171 0.37213802
vt 0.97628421 0.35144126
vt 0.99064171 0.34002149
vt 0.95605189 0.31656659
vt 0.91308188 0.40196604
vt 0.89297599 0.38777256
vt 0.89438480 0.36211777
vt 0.97975743 0.31750613
vt 0.87803233 0.35882342
vt 0.87655973 0.33062351
vt 0.89514619 0.32394582
vt 0.89623356 0.30353856
vt 0.90547210 0.31948715
vt 0.91716778 0.29644442
vt 0.92226386 0.31204593
vt 0.95140576 0.30081809
vt 0.87451619 0.51124436
vt 0.86288404 0.48800647
vt 0.87837923 0.48120415
vt 0.88554132 0.52408612
vt 0.90927881 0.47696221
vt 0.83823973 0.48405254
vt 0.84414232 0.52242774
vt 0.81206417 0.54442918
vt 0.81723118 0.47170705
vt 0.79987842 0.52465910
vt 0.77139038 0.45831174
vt 0.77430111 0.51966751
vt 0.85892504 0.53433353
vt 0.82607651 0.55040842
vt 0.87140244 0.58375382
vt 0.82170445 0.59141117
vt 0.80516410 0.57279718
vt 0.79387808 0.56243783
vt 0.79466981 0.60755557
vt 0.90309054 0.58237249
vt 0.92972428 0.56856805
vt 0.84532249 0.46057904
vt 0.91839153 0.51302922
vt 0.89456308 0.46000612
vt 0.81523675 0.45355159
vt 0.82167989 0.43310595
vt 0.85701084 0.43947887
vt 0.79082179 0.44470894
vt 0.80043304 0.42533332
vt 0.89441699 0.43894982
vt 0.92669272 0.45837975
vt 0.91107833 0.44047439
vt 0.93538326 0.49972057
vt 0.93455857 0.60755557
vt 0.56105167 0.89377779
vt 0.56105167 0.93199998
vt 0.54233509 0.90564364
vt 0.95820755 0.48060560
vt 0.94452035 0.49641383
vt 0.94162208 0.48464131
vt 0.96992868 0.44155800
vt 0.97889280 0.50864071
vt 0.95721155 0.51467514
vt 0.99242425 0.52933335
vt 0.96870041 0.42509294
vt 0.98532069 0.42919147
vt 0.99242425 0.41200000
vt 0.92084455 0.93707323
vt 0.93153507 0.91166431
vt 0.93694794 0.92677569
vt 0.91399288 0.90415829
vt 0.93570048 0.89084345
vt 0.93500102 0.95126301
vt 0.95572251 0.94182152
vt 0.92386198 0.87795490
vt 0.94547224 0.85537463
vt 0.96212924 0.86042833
vt 0.95800120 0.96044445
vt 0.98455322 0.95874220
vt 0.99153298 0.94175196
vt 0.97531599 0.84577775
vt 0.99153298 0.86476976
vt 0.20608360 0.64339620
vt 0.17513369 0.64311111
vt 0.18092899 0.66444445
vt 0.21880570 0.66444445
vt 0.95677364 0.90977776
vt 0.95249254 0.88133335
vt 0.93538326 0.90977776
vt 0.23322430 0.42367166
vt 0.19295900 0.42711115
vt 0.19403483 0.41311228
vt 0.20517981 0.40133333
vt 0.25028452 0.40483034
vt 0.25922790 0.42711115
vt 0.27400598 0.41114533
vt 0.28743315 0.42047119
vt 0.33199644 0.00582862
vt 0.32126856 0.00222224
vt 0.33199644 0.04515898
vt 0.31773618 0.02857381
vt 0.32005644 0.05555558
vt 0.34909296 0.86444443
vt 0.34090909 0.82657498
vt 0.35606059 0.84920084
vt 0.35305026 0.82495993
vt 0.35606059 0.78888887
vt 0.47315335 0.93933940
vt 0.48906013 0.93272871
vt 0.47726452 0.95440453
vt 0.51219988 0.94273341
vt 0.53404164 0.93022221
vt 0.57172847 0.94191903
vt 0.47940347 0.98711109
vt 0.54126775 0.98711109
vt 0.58652079 0.98655730
vt 0.46301249 0.98062772
vt 0.60650623 0.95478427
vt 0.63354838 0.57844079
vt 0.60449409 0.63076788
vt 0.55980378 0.56174290
vt 0.57842290 0.52546418
vt 0.54980403 0.59265971
vt 0.57358420 0.64545494
vt 0.64215684 0.62366056
vt 0.62744415 0.52932495
vt 0.63699871 0.64090085
vt 0.60364532 0.64933336
vt 0.53542781 0.53309375
vt 0.53423566 0.64933336
vt 0.52570981 0.57580030
vt 0.52066171 0.63617569
vt 0.53665024 0.50836098
vt 0.50692219 0.58483624
vt 0.50825113 0.54455131
vt 0.59423381 0.50765562
vt 0.60827351 0.49111110
vt 0.62997520 0.49511778
vt 0.50222814 0.64187455
vt 0.96088123 0.73954934
vt 0.96891767 0.77785832
vt 0.99331552 0.72755557
vt 0.94251335 0.80948502
vt 0.96861607 0.81999999
vt 0.98767525 0.78065377
vt 0.99331552 0.81929302
vt 0.88992870 0.62425035
vt 0.85400611 0.62355554
vt 0.85742396 0.63244444
vt 0.82308376 0.63244444
vt 0.04778263 0.23588139
vt 0.03182985 0.20761228
vt 0.04059224 0.18099695
vt 0.00490196 0.22306204
vt 0.01706259 0.16870308
vt 0.07114238 0.21116161
vt 0.08769267 0.21967119
vt 0.06603198 0.19197172
vt 0.05924573 0.25644445
vt 0.09313726 0.24333334
vt 0.09091248 0.25644445
vt 0.06996591 0.15829283
vt 0.05412893 0.14711112
vt 0.03744877 0.25557601
vt 0.09046449 0.19759178
vt 0.96431977 0.56340754
vt 0.98885918 0.55777776
vt 0.98434931 0.58088887
vt 0.95677364 0.58088887
f 492/492 493/493 494/494
f 492/492 495/495 493/493
f 494/494 493/493 505/505
f 495/495 492/492 499/499
f 496/496 493/493 495/495
f 496/496 497/497 493/493
f 575/575 550/550 546/546
f 500/500 505/505 493/493
f 497/497 500/500 493/493
f 495/495 498/498 496/496
f 575/575 546/546 548/548
f 492/492 508/508 499/499
f 500/500 497/497 501/501
f 496/496 498/498 497/497
f 549/549 546/546 550/550
f 499/499 508/508 507/507
f 500/500 501/501 502/502
f 504/504 495/495 499/499
f 555/555 551/551 560/560
f 560/560 551/551 549/549
f 500/500 502/502 506/506
f 499/499 507/507 504/504
f 503/503 501/501 497/497
f 307/307 298/298 297/297
f 298/298 306/306 299/299
f 549/549 543/543 546/546
f 546/546 543/543 545/545
f 297/297 305/305 320/320
f 308/308 299/299 306/306
f 543/543 549/549 551/551
f 97/97 94/94 109/109
f 718/718 716/716 717/717
f 298/298 296/296 297/297
f 298/298 299/299 296/296
f 546/546 545/545 548/548
f 97/97 96/96 94/94
f 96/96 95/95 94/94
f 551/551 555/555 553/553
f 718/718 720/720 719/719
f 718/718 719/719 716/716
f 717/717 716/716 714/714
f 297/297 296/296 292/292
f 305/305 297/297 292/292
f 559/559 548/548 545/545
f 716/716 719/719 721/721
f 716/716 711/711 714/714
f 308/308 300/300 299/299
f 545/545 543/543 542/542
f 545/545 571/571 559/559
f 555/555 561/561 553/553
f 94/94 70/70 109/109
f 851/851 848/848 850/850
f 711/711 716/716 721/721
f 551/551 553/553 552/552
f 571/571 572/572 559/559
f 715/715 712/712 719/719
f 94/94 95/95 71/71
f 299/299 300/300 296/296
f 552/552 543/543 551/551
f 547/547 571/571 545/545
f 545/545 542/542 547/547
f 95/95 92/92 71/71
f 296/296 293/293 292/292
f 553/553 561/561 554/554
f 543/543 552/552 544/544
f 542/542 543/543 544/544
f 70/70 94/94 71/71
f 848/848 849/849 850/850
f 300/300 293/293 296/296
f 553/553 554/554 552/552
f 921/921 923/923 930/930
f 710/710 712/712 715/715
f 710/710 711/711 712/712
f 713/713 714/714 711/711
f 928/928 927/927 918/918
f 921/921 930/930 922/922
f 923/923 918/918 927/927
f 715/715 722/722 710/710
f 921/921 918/918 923/923
f 71/71 92/92 72/72
f 711/711 710/710 713/713
f 300/300 301/301 293/293
f 544/544 552/552 557/557
f 70/70 71/71 43/43
f 918/918 917/917 920/920
f 71/71 72/72 43/43
f 917/917 919/919 920/920
f 293/293 303/303 302/302
f 301/301 303/303 293/293
f 554/554 556/556 552/552
f 561/561 566/566 554/554
f 916/916 921/921 922/922
f 921/921 916/916 918/918
f 916/916 917/917 918/918
f 916/916 919/919 917/917
f 919/919 916/916 929/929
f 292/292 294/294 295/295
f 552/552 556/556 557/557
f 43/43 69/69 70/70
f 925/925 924/924 922/922
f 922/922 924/924 916/916
f 303/303 329/329 302/302
f 302/302 294/294 293/293
f 292/292 293/293 294/294
f 931/931 932/932 933/933
f 558/558 554/554 566/566
f 556/556 554/554 558/558
f 556/556 558/558 562/562
f 557/557 556/556 562/562
f 925/925 926/926 924/924
f 43/43 72/72 40/40
f 295/295 294/294 304/304
f 304/304 294/294 309/309
f 302/302 309/309 294/294
f 933/933 934/934 931/931
f 566/566 573/573 565/565
f 60/60 69/69 43/43
f 304/304 309/309 310/310
f 562/562 563/563 576/576
f 43/43 40/40 39/39
f 566/566 565/565 558/558
f 43/43 39/39 60/60
f 309/309 327/327 322/322
f 309/309 322/322 310/310
f 558/558 563/563 562/562
f 905/905 906/906 907/907
f 906/906 910/910 907/907
f 39/39 40/40 38/38
f 304/304 310/310 311/311
f 558/558 564/564 563/563
f 60/60 39/39 61/61
f 323/323 304/304 311/311
f 39/39 38/38 37/37
f 558/558 565/565 564/564
f 39/39 37/37 61/61
f 573/573 567/567 565/565
f 567/567 573/573 574/574
f 565/565 567/567 564/564
f 908/908 906/906 905/905
f 310/310 312/312 311/311
f 14/14 21/21 24/24
f 912/912 913/913 914/914
f 860/860 861/861 862/862
f 516/516 521/521 518/518
f 521/521 522/522 518/518
f 570/570 563/563 564/564
f 906/906 911/911 910/910
f 322/322 324/324 310/310
f 12/12 13/13 14/14
f 914/914 913/913 915/915
f 860/860 859/859 861/861
f 516/516 519/519 521/521
f 516/516 518/518 515/515
f 14/14 13/13 20/20
f 14/14 20/20 21/21
f 523/523 521/521 519/519
f 860/860 855/855 859/859
f 523/523 519/519 524/524
f 520/520 524/524 519/519
f 517/517 519/519 516/516
f 906/906 909/909 911/911
f 324/324 312/312 310/310
f 311/311 312/312 313/313
f 12/12 16/16 15/15
f 13/13 12/12 15/15
f 708/708 698/698 704/704
f 524/524 520/520 525/525
f 515/515 510/510 516/516
f 520/520 519/519 517/517
f 37/37 90/90 61/61
f 34/34 37/37 38/38
f 311/311 316/316 323/323
f 13/13 15/15 17/17
f 20/20 13/13 19/19
f 525/525 520/520 526/526
f 526/526 520/520 527/527
f 527/527 520/520 528/528
f 781/781 782/782 783/783
f 783/783 782/782 784/784
f 784/784 785/785 783/783
f 773/773 785/785 784/784
f 785/785 773/773 777/777
f 331/331 333/333 332/332
f 909/909 906/906 908/908
f 704/704 698/698 702/702
f 510/510 517/517 516/516
f 731/731 727/727 730/730
f 697/697 694/694 709/709
f 779/779 780/780 781/781
f 780/780 782/782 781/781
f 355/355 354/354 332/332
f 332/332 354/354 330/330
f 331/331 341/341 342/342
f 333/333 331/331 342/342
f 330/330 331/331 332/332
f 564/564 567/567 568/568
f 568/568 570/570 564/564
f 311/311 313/313 316/316
f 20/20 23/23 21/21
f 694/694 696/696 698/698
f 512/512 517/517 510/510
f 725/725 730/730 727/727
f 78/78 105/105 76/76
f 76/76 105/105 106/106
f 330/330 334/334 331/331
f 567/567 574/574 569/569
f 90/90 37/37 30/30
f 312/312 324/324 314/314
f 15/15 22/22 18/18
f 855/855 858/858 859/859
f 702/702 698/698 699/699
f 698/698 696/696 699/699
f 515/515 511/511 510/510
f 694/694 695/695 696/696
f 725/725 728/728 730/730
f 777/777 773/773 772/772
f 172/172 173/173 164/164
f 331/331 340/340 341/341
f 354/354 335/335 330/330
f 331/331 334/334 340/340
f 335/335 334/334 330/330
f 336/336 334/334 335/335
f 567/567 569/569 568/568
f 30/30 37/37 34/34
f 362/362 366/366 367/367
f 313/313 312/312 314/314
f 15/15 18/18 17/17
f 697/697 695/695 694/694
f 773/773 771/771 772/772
f 74/74 76/76 106/106
f 356/356 352/352 363/363
f 362/362 363/363 352/352
f 325/325 314/314 324/324
f 313/313 317/317 316/316
f 19/19 13/13 17/17
f 727/727 723/723 725/725
f 695/695 697/697 701/701
f 780/780 779/779 776/776
f 162/162 172/172 164/164
f 335/335 354/354 365/365
f 344/344 335/335 365/365
f 344/344 336/336 335/335
f 336/336 337/337 334/334
f 338/338 337/337 336/336
f 61/61 90/90 110/110
f 352/352 359/359 362/362
f 362/362 359/359 366/366
f 703/703 702/702 699/699
f 855/855 856/856 857/857
f 855/855 857/857 858/858
f 510/510 509/509 512/512
f 514/514 512/512 509/509
f 696/696 695/695 699/699
f 723/723 724/724 725/725
f 106/106 107/107 74/74
f 334/334 337/337 340/340
f 338/338 336/336 344/344
f 338/338 339/339 337/337
f 350/350 357/357 349/349
f 356/356 357/357 350/350
f 352/352 356/356 350/350
f 33/33 30/30 34/34
f 315/315 313/313 314/314
f 695/695 701/701 700/700
f 724/724 728/728 725/725
f 108/108 67/67 107/107
f 344/344 345/345 338/338
f 346/346 339/339 338/338
f 345/345 346/346 338/338
f 345/345 348/348 346/346
f 353/353 348/348 345/345
f 346/346 347/347 339/339
f 346/346 348/348 347/347
f 110/110 90/90 80/80
f 359/359 352/352 358/358
f 360/360 359/359 358/358
f 33/33 34/34 122/122
f 315/315 314/314 325/325
f 313/313 318/318 317/317
f 313/313 315/315 318/318
f 642/642 641/641 632/632
f 614/614 641/641 642/642
f 632/632 641/641 629/629
f 629/629 641/641 624/624
f 614/614 624/624 641/641
f 621/621 624/624 614/614
f 624/624 628/628 629/629
f 621/621 623/623 624/624
f 622/622 623/623 621/621
f 623/623 628/628 624/624
f 533/533 532/532 534/534
f 513/513 509/509 511/511
f 509/509 510/510 511/511
f 78/78 76/76 77/77
f 164/164 163/163 162/162
f 107/107 67/67 74/74
f 337/337 339/339 343/343
f 343/343 339/339 347/347
f 349/349 347/347 348/348
f 348/348 353/353 351/351
f 348/348 350/350 349/349
f 348/348 351/351 350/350
f 352/352 350/350 351/351
f 358/358 352/352 351/351
f 123/123 110/110 79/79
f 79/79 110/110 80/80
f 30/30 80/80 90/90
f 180/180 203/203 205/205
f 122/122 121/121 33/33
f 629/629 628/628 630/630
f 626/626 625/625 622/622
f 627/627 625/625 626/626
f 630/630 628/628 631/631
f 625/625 623/623 622/622
f 534/534 537/537 533/533
f 530/530 529/529 532/532
f 699/699 700/700 705/705
f 724/724 723/723 726/726
f 699/699 695/695 700/700
f 729/729 728/728 724/724
f 779/779 778/778 776/776
f 772/772 771/771 770/770
f 163/163 164/164 165/165
f 75/75 76/76 74/74
f 365/365 364/364 344/344
f 112/112 67/67 108/108
f 345/345 344/344 364/364
f 353/353 345/345 364/364
f 154/154 176/176 180/180
f 30/30 33/33 28/28
f 326/326 315/315 325/325
f 318/318 319/319 317/317
f 642/642 615/615 614/614
f 629/629 630/630 632/632
f 613/613 621/621 614/614
f 621/621 613/613 622/622
f 622/622 613/613 620/620
f 622/622 620/620 626/626
f 630/630 631/631 649/649
f 627/627 626/626 647/647
f 226/226 211/211 224/224
f 532/532 533/533 530/530
f 703/703 699/699 706/706
f 706/706 699/699 705/705
f 529/529 530/530 531/531
f 540/540 529/529 538/538
f 77/77 76/76 75/75
f 67/67 112/112 59/59
f 115/115 59/59 112/112
f 115/115 123/123 57/57
f 353/353 361/361 351/351
f 358/358 351/351 361/361
f 25/25 80/80 30/30
f 30/30 28/28 25/25
f 28/28 33/33 31/31
f 317/317 319/319 321/321
f 633/633 617/617 615/615
f 820/820 821/821 822/822
f 613/613 614/614 615/615
f 616/616 615/615 617/617
f 616/616 613/613 615/615
f 620/620 613/613 616/616
f 646/646 626/626 620/620
f 626/626 646/646 647/647
f 649/649 631/631 650/650
f 652/652 631/631 651/651
f 226/226 225/225 211/211
f 223/223 213/213 225/225
f 628/628 651/651 631/631
f 530/530 535/535 531/531
f 533/533 535/535 530/530
f 531/531 535/535 536/536
f 529/529 531/531 538/538
f 707/707 705/705 700/700
f 541/541 540/540 538/538
f 75/75 74/74 73/73
f 159/159 160/160 162/162
f 59/59 115/115 57/57
f 79/79 57/57 123/123
f 154/154 174/174 153/153
f 640/640 648/648 634/634
f 638/638 640/640 633/633
f 633/633 640/640 634/634
f 633/633 634/634 617/617
f 638/638 633/633 636/636
f 635/635 636/636 632/632
f 633/633 632/632 636/636
f 615/615 632/632 633/633
f 632/632 630/630 635/635
f 618/618 616/616 617/617
f 649/649 635/635 630/630
f 618/618 620/620 616/616
f 652/652 650/650 631/631
f 875/875 879/879 882/882
f 221/221 213/213 223/223
f 225/225 213/213 211/211
f 211/211 214/214 224/224
f 538/538 531/531 536/536
f 775/775 776/776 778/778
f 766/766 776/776 775/775
f 75/75 116/116 77/77
f 165/165 166/166 163/163
f 163/163 159/159 162/162
f 74/74 67/67 73/73
f 160/160 151/151 161/161
f 160/160 161/161 170/170
f 203/203 180/180 176/176
f 203/203 176/176 197/197
f 648/648 639/639 634/634
f 637/637 638/638 636/636
f 634/634 639/639 617/617
f 617/617 639/639 619/619
f 618/618 617/617 619/619
f 643/643 618/618 619/619
f 620/620 618/618 645/645
f 646/646 620/620 645/645
f 538/538 536/536 539/539
f 771/771 769/769 770/770
f 174/174 175/175 153/153
f 643/643 644/644 618/618
f 618/618 644/644 645/645
f 875/875 876/876 879/879
f 769/769 765/765 768/768
f 769/769 768/768 770/770
f 166/166 165/165 179/179
f 116/116 75/75 119/119
f 159/159 163/163 166/166
f 75/75 73/73 117/117
f 159/159 151/151 160/160
f 66/66 67/67 59/59
f 170/170 171/171 175/175
f 35/35 33/33 121/121
f 903/903 891/891 901/901
f 637/637 636/636 635/635
f 873/873 874/874 875/875
f 212/212 213/213 221/221
f 765/765 766/766 767/767
f 119/119 75/75 117/117
f 166/166 167/167 159/159
f 158/158 151/151 159/159
f 73/73 67/67 66/66
f 161/161 152/152 170/170
f 170/170 152/152 171/171
f 59/59 57/57 58/58
f 25/25 54/54 80/80
f 132/132 154/154 153/153
f 25/25 28/28 26/26
f 155/155 176/176 154/154
f 197/197 201/201 203/203
f 203/203 201/201 204/204
f 321/321 319/319 328/328
f 760/760 761/761 759/759
f 452/452 451/451 450/450
f 891/891 887/887 901/901
f 875/875 874/874 876/876
f 885/885 890/890 892/892
f 231/231 233/233 214/214
f 214/214 215/215 231/231
f 775/775 774/774 766/766
f 766/766 774/774 767/767
f 765/765 767/767 768/768
f 387/387 395/395 396/396
f 398/398 397/397 400/400
f 400/400 397/397 399/399
f 158/158 159/159 167/167
f 57/57 79/79 54/54
f 175/175 171/171 153/153
f 79/79 80/80 54/54
f 35/35 31/31 33/33
f 204/204 201/201 202/202
f 884/884 887/887 891/891
f 877/877 876/876 874/874
f 876/876 880/880 879/879
f 210/210 214/214 211/211
f 389/389 395/395 387/387
f 389/389 387/387 386/386
f 388/388 387/387 390/390
f 392/392 391/391 390/390
f 117/117 73/73 118/118
f 66/66 118/118 73/73
f 128/128 125/125 152/152
f 56/56 58/58 57/57
f 125/125 171/171 152/152
f 54/54 56/56 57/57
f 125/125 153/153 171/171
f 760/760 759/759 756/756
f 884/884 890/890 885/885
f 893/893 885/885 892/892
f 212/212 221/221 220/220
f 209/209 210/210 211/211
f 213/213 212/212 211/211
f 212/212 209/209 211/211
f 398/398 389/389 397/397
f 397/397 389/389 386/386
f 386/386 387/387 388/388
f 390/390 391/391 388/388
f 399/399 397/397 394/394
f 151/151 158/158 146/146
f 151/151 152/152 161/161
f 25/25 26/26 27/27
f 26/26 28/28 31/31
f 451/451 446/446 450/450
f 450/450 446/446 448/448
f 446/446 447/447 448/448
f 214/214 210/210 215/215
f 397/397 386/386 394/394
f 393/393 388/388 391/391
f 66/66 59/59 65/65
f 58/58 63/63 59/59
f 54/54 25/25 53/53
f 154/154 132/132 134/134
f 134/134 155/155 154/154
f 283/283 288/288 281/281
f 759/759 757/757 756/756
f 884/884 886/886 887/887
f 445/445 447/447 446/446
f 448/448 447/447 439/439
f 448/448 439/439 449/449
f 210/210 217/217 215/215
f 393/393 394/394 388/388
f 386/386 388/388 394/394
f 684/684 686/686 687/687
f 391/391 392/392 393/393
f 691/691 690/690 689/689
f 692/692 693/693 687/687
f 59/59 63/63 65/65
f 151/151 145/145 152/152
f 127/127 129/129 125/125
f 125/125 129/129 153/153
f 129/129 132/132 153/153
f 55/55 54/54 53/53
f 176/176 155/155 196/196
f 447/447 445/445 442/442
f 884/884 885/885 886/886
f 885/885 889/889 888/888
f 231/231 215/215 232/232
f 689/689 685/685 684/684
f 118/118 66/66 99/99
f 145/145 151/151 146/146
f 863/863 864/864 865/865
f 864/864 866/866 865/865
f 128/128 126/126 125/125
f 125/125 126/126 127/127
f 196/196 197/197 176/176
f 197/197 198/198 201/201
f 198/198 202/202 201/201
f 756/756 757/757 758/758
f 447/447 442/442 439/439
f 889/889 885/885 893/893
f 684/684 685/685 686/686
f 689/689 690/690 685/685
f 53/53 25/25 27/27
f 196/196 198/198 197/197
f 445/445 437/437 442/442
f 437/437 439/439 442/442
f 886/886 885/885 888/888
f 876/876 878/878 880/880
f 687/687 686/686 688/688
f 66/66 65/65 99/99
f 688/688 692/692 687/687
f 58/58 56/56 63/63
f 155/155 134/134 133/133
f 758/758 757/757 762/762
f 902/902 901/901 898/898
f 446/446 444/444 445/445
f 445/445 444/444 437/437
f 878/878 876/876 877/877
f 215/215 217/217 232/232
f 219/219 212/212 220/220
f 210/210 209/209 216/216
f 237/237 239/239 238/238
f 237/237 240/240 239/239
f 252/252 240/240 237/237
f 246/246 239/239 248/248
f 866/866 867/867 865/865
f 55/55 56/56 54/54
f 134/134 132/132 133/133
f 32/32 31/31 35/35
f 901/901 887/887 898/898
f 437/437 438/438 439/439
f 209/209 212/212 219/219
f 217/217 210/210 216/216
f 242/242 236/236 241/241
f 236/236 238/238 241/241
f 236/236 237/237 238/238
f 250/250 237/237 236/236
f 237/237 251/251 252/252
f 238/238 239/239 246/246
f 146/146 138/138 145/145
f 126/126 136/136 127/127
f 136/136 130/130 127/127
f 62/62 56/56 55/55
f 130/130 129/129 127/127
f 130/130 131/131 129/129
f 129/129 131/131 132/132
f 131/131 133/133 132/132
f 282/282 283/283 281/281
f 199/199 198/198 196/196
f 757/757 763/763 762/762
f 886/886 894/894 887/887
f 437/437 440/440 438/438
f 217/217 230/230 232/232
f 217/217 216/216 218/218
f 243/243 241/241 244/244
f 242/242 241/241 243/243
f 241/241 245/245 244/244
f 241/241 238/238 245/245
f 238/238 246/246 245/245
f 250/250 251/251 237/237
f 146/146 157/157 138/138
f 63/63 56/56 62/62
f 155/155 177/177 196/196
f 281/281 288/288 290/290
f 196/196 200/200 199/199
f 762/762 763/763 764/764
f 437/437 444/444 443/443
f 896/896 886/886 888/888
f 872/872 871/871 869/869
f 219/219 220/220 222/222
f 836/836 840/840 837/837
f 836/836 837/837 834/834
f 243/243 244/244 247/247
f 247/247 244/244 245/245
f 98/98 99/99 68/68
f 156/156 140/140 157/157
f 99/99 65/65 68/68
f 138/138 136/136 145/145
f 63/63 64/64 65/65
f 64/64 63/63 62/62
f 137/137 135/135 136/136
f 136/136 135/135 130/130
f 898/898 887/887 894/894
f 888/888 889/889 895/895
f 881/881 880/880 878/878
f 841/841 846/846 842/842
f 840/840 841/841 837/837
f 253/253 236/236 242/242
f 236/236 253/253 250/250
f 83/83 111/111 98/98
f 156/156 169/169 142/142
f 157/157 140/140 138/138
f 138/138 137/137 136/136
f 130/130 135/135 131/131
f 155/155 133/133 177/177
f 32/32 29/29 31/31
f 177/177 200/200 196/196
f 894/894 886/886 896/896
f 443/443 440/440 437/437
f 842/842 837/837 841/841
f 83/83 85/85 111/111
f 68/68 83/83 98/98
f 140/140 139/139 138/138
f 68/68 65/65 64/64
f 144/144 131/131 135/135
f 26/26 31/31 29/29
f 813/813 814/814 811/811
f 817/817 816/816 809/809
f 438/438 440/440 441/441
f 218/218 230/230 217/217
f 669/669 667/667 671/671
f 836/836 834/834 833/833
f 247/247 245/245 249/249
f 156/156 142/142 140/140
f 139/139 137/137 138/138
f 62/62 55/55 93/93
f 55/55 53/53 87/87
f 144/144 133/133 131/131
f 177/177 133/133 144/144
f 282/282 281/281 280/280
f 290/290 279/279 281/281
f 813/813 811/811 810/810
f 810/810 794/794 813/813
f 794/794 796/796 813/813
f 809/809 815/815 817/817
f 797/797 796/796 795/795
f 797/797 795/795 803/803
f 871/871 870/870 869/869
f 216/216 209/209 219/219
f 672/672 680/680 681/681
f 667/667 669/669 665/665
f 667/667 665/665 664/664
f 667/667 664/664 668/668
f 668/668 664/664 682/682
f 142/142 169/169 168/168
f 83/83 68/68 82/82
f 55/55 87/87 93/93
f 27/27 26/26 29/29
f 178/178 200/200 177/177
f 200/200 178/178 207/207
f 810/810 811/811 807/807
f 809/809 812/812 815/815
f 816/816 790/790 809/809
f 795/795 796/796 794/794
f 818/818 790/790 816/816
f 896/896 888/888 897/897
f 795/795 793/793 803/803
f 888/888 895/895 897/897
f 868/868 869/869 870/870
f 878/878 883/883 881/881
f 8/8 5/5 1/1
f 674/674 673/673 672/672
f 680/680 672/672 670/670
f 666/666 672/672 673/673
f 672/672 666/666 670/670
f 666/666 665/665 670/670
f 664/664 665/665 666/666
f 665/665 669/669 670/670
f 670/670 669/669 683/683
f 669/669 671/671 683/683
f 607/607 606/606 604/604
f 833/833 834/834 835/835
f 833/833 835/835 838/838
f 147/147 142/142 168/168
f 85/85 83/83 84/84
f 83/83 82/82 84/84
f 68/68 64/64 81/81
f 144/144 178/178 177/177
f 280/280 281/281 279/279
f 811/811 812/812 807/807
f 807/807 812/812 809/809
f 807/807 794/794 810/810
f 788/788 807/807 809/809
f 791/791 807/807 788/788
f 788/788 809/809 790/790
f 900/900 896/896 899/899
f 802/802 803/803 793/793
f 218/218 234/234 230/230
f 228/228 218/218 216/216
f 675/675 673/673 674/674
f 676/676 673/673 675/675
f 676/676 678/678 673/673
f 677/677 666/666 673/673
f 666/666 677/677 664/664
f 739/739 733/733 738/738
f 733/733 735/735 738/738
f 842/842 846/846 847/847
f 838/838 835/835 839/839
f 142/142 141/141 140/140
f 82/82 68/68 81/81
f 423/423 430/430 432/432
f 36/36 29/29 32/32
f 207/207 178/178 183/183
f 285/285 284/284 278/278
f 280/280 276/276 277/277
f 280/280 279/279 276/276
f 807/807 791/791 794/794
f 852/852 853/853 854/854
f 791/791 792/792 793/793
f 794/794 791/791 793/793
f 795/795 794/794 793/793
f 896/896 897/897 899/899
f 897/897 904/904 899/899
f 801/801 804/804 802/802
f 235/235 230/230 234/234
f 222/222 229/229 219/219
f 216/216 219/219 227/227
f 610/610 603/603 608/608
f 678/678 677/677 673/673
f 680/680 670/670 683/683
f 737/737 733/733 739/739
f 838/838 839/839 843/843
f 85/85 84/84 86/86
f 82/82 81/81 113/113
f 137/137 139/139 150/150
f 418/418 411/411 432/432
f 411/411 423/423 432/432
f 64/64 62/62 124/124
f 62/62 93/93 124/124
f 430/430 422/422 431/431
f 424/424 436/436 426/426
f 27/27 87/87 53/53
f 36/36 32/32 41/41
f 790/790 789/789 788/788
f 793/793 792/792 799/799
f 793/793 799/799 802/802
f 802/802 799/799 801/801
f 219/219 229/229 227/227
f 805/805 806/806 819/819
f 227/227 228/228 216/216
f 679/679 676/676 675/675
f 829/829 828/828 827/827
f 147/147 143/143 142/142
f 143/143 141/141 142/142
f 140/140 141/141 139/139
f 141/141 150/150 139/139
f 416/416 404/404 417/417
f 416/416 420/420 410/410
f 421/421 420/420 424/424
f 430/430 423/423 422/422
f 424/424 426/426 421/421
f 431/431 422/422 427/427
f 144/144 181/181 178/178
f 41/41 42/42 36/36
f 279/279 278/278 276/276
f 786/786 787/787 788/788
f 791/791 787/787 792/792
f 788/788 789/789 786/786
f 790/790 808/808 789/789
f 789/789 808/808 806/806
f 805/805 789/789 806/806
f 801/801 799/799 800/800
f 4/4 1/1 3/3
f 601/601 602/602 595/595
f 595/595 600/600 601/601
f 600/600 595/595 594/594
f 600/600 594/594 599/599
f 114/114 84/84 113/113
f 84/84 82/82 113/113
f 417/417 404/404 413/413
f 418/418 401/401 411/411
f 401/401 404/404 410/410
f 410/410 411/411 401/401
f 416/416 410/410 404/404
f 411/411 410/410 419/419
f 423/423 411/411 419/419
f 419/419 410/410 420/420
f 421/421 419/419 420/420
f 422/422 419/419 421/421
f 423/423 419/419 422/422
f 425/425 422/422 421/421
f 798/798 787/787 786/786
f 787/787 798/798 792/792
f 798/798 799/799 792/792
f 798/798 789/789 800/800
f 799/799 798/798 800/800
f 800/800 789/789 805/805
f 7/7 10/10 4/4
f 148/148 150/150 141/141
f 426/426 425/425 421/421
f 491/491 481/481 476/476
f 425/425 427/427 422/422
f 87/87 27/27 52/52
f 52/52 27/27 29/29
f 181/181 182/182 178/178
f 178/178 182/182 183/183
f 278/278 284/284 275/275
f 798/798 786/786 789/789
f 5/5 6/6 1/1
f 608/608 603/603 605/605
f 598/598 599/599 594/594
f 733/733 737/737 736/736
f 827/827 828/828 824/824
f 86/86 84/84 91/91
f 148/148 141/141 143/143
f 84/84 114/114 91/91
f 412/412 418/418 428/428
f 402/402 418/418 412/412
f 418/418 402/402 401/401
f 413/413 404/404 403/403
f 403/403 404/404 401/401
f 425/425 434/434 427/427
f 52/52 29/29 36/36
f 427/427 434/434 435/435
f 5/5 9/9 6/6
f 603/603 604/604 605/605
f 604/604 606/606 605/605
f 827/827 824/824 823/823
f 405/405 413/413 403/403
f 401/401 402/402 403/403
f 485/485 476/476 473/473
f 278/278 275/275 276/276
f 4/4 3/3 7/7
f 752/752 754/754 753/753
f 608/608 605/605 609/609
f 594/594 595/595 596/596
f 736/736 734/734 733/733
f 612/612 605/605 606/606
f 732/732 735/735 733/733
f 732/732 733/733 734/734
f 843/843 839/839 844/844
f 143/143 149/149 148/148
f 405/405 414/414 413/413
f 406/406 405/405 402/402
f 412/412 406/406 402/402
f 402/402 405/405 403/403
f 476/476 481/481 472/472
f 485/485 473/473 489/489
f 598/598 594/594 596/596
f 839/839 845/845 844/844
f 823/823 824/824 825/825
f 414/414 415/415 433/433
f 412/412 428/428 408/408
f 412/412 408/408 406/406
f 476/476 472/472 473/473
f 185/185 182/182 186/186
f 52/52 36/36 44/44
f 44/44 36/36 42/42
f 182/182 184/184 183/183
f 608/608 609/609 611/611
f 595/595 597/597 596/596
f 591/591 587/587 586/586
f 589/589 587/587 591/591
f 593/593 592/592 588/588
f 409/409 408/408 429/429
f 429/429 408/408 428/428
f 414/414 405/405 415/415
f 405/405 407/407 415/415
f 406/406 407/407 405/405
f 408/408 407/407 406/406
f 489/489 473/473 488/488
f 186/186 187/187 185/185
f 185/185 184/184 182/182
f 183/183 184/184 195/195
f 277/277 276/276 271/271
f 6/6 2/2 1/1
f 751/751 752/752 753/753
f 577/577 578/578 579/579
f 577/577 580/580 578/578
f 578/578 580/580 587/587
f 578/578 587/587 588/588
f 592/592 578/578 588/588
f 588/588 587/587 589/589
f 826/826 823/823 825/825
f 830/830 826/826 825/825
f 831/831 826/826 830/830
f 832/832 831/831 830/830
f 473/473 472/472 470/470
f 275/275 271/271 276/276
f 587/587 580/580 586/586
f 409/409 415/415 407/407
f 409/409 407/407 408/408
f 1/1 2/2 3/3
f 580/580 584/584 585/585
f 751/751 753/753 755/755
f 580/580 585/585 586/586
f 579/579 583/583 581/581
f 272/272 271/271 275/275
f 577/577 584/584 580/580
f 590/590 581/581 583/583
f 581/581 577/577 579/579
f 481/481 480/480 472/472
f 473/473 471/471 488/488
f 185/185 188/188 184/184
f 44/44 42/42 45/45
f 2/2 11/11 3/3
f 584/584 577/577 582/582
f 590/590 582/582 581/581
f 581/581 582/582 577/577
f 470/470 471/471 473/473
f 52/52 44/44 51/51
f 191/191 195/195 184/184
f 273/273 277/277 271/271
f 470/470 472/472 469/469
f 471/471 479/479 488/488
f 472/472 480/480 469/469
f 188/188 185/185 187/187
f 44/44 47/47 51/51
f 191/191 184/184 188/188
f 189/189 188/188 187/187
f 274/274 273/273 270/270
f 189/189 190/190 188/188
f 46/46 47/47 44/44
f 44/44 45/45 46/46
f 188/188 190/190 208/208
f 188/188 208/208 191/191
f 273/273 271/271 270/270
f 271/271 272/272 269/269
f 470/470 469/469 468/468
f 471/471 470/470 468/468
f 469/469 480/480 486/486
f 471/471 468/468 479/479
f 486/486 465/465 469/469
f 468/468 469/469 465/465
f 48/48 47/47 46/46
f 271/271 269/269 270/270
f 267/267 274/274 270/270
f 267/267 270/270 256/256
f 256/256 270/270 269/269
f 468/468 465/465 453/453
f 468/468 453/453 463/463
f 465/465 486/486 477/477
f 468/468 463/463 479/479
f 47/47 48/48 49/49
f 193/193 192/192 189/189
f 192/192 190/190 189/189
f 88/88 48/48 46/46
f 208/208 190/190 206/206
f 256/256 269/269 264/264
f 477/477 454/454 465/465
f 465/465 454/454 453/453
f 194/194 192/192 193/193
f 256/256 264/264 254/254
f 190/190 192/192 206/206
f 740/740 747/747 741/741
f 256/256 255/255 267/267
f 453/453 454/454 455/455
f 478/478 454/454 477/477
f 742/742 743/743 740/740
f 49/49 48/48 50/50
f 740/740 741/741 742/742
f 48/48 88/88 89/89
f 741/741 747/747 748/748
f 747/747 740/740 749/749
f 267/267 255/255 286/286
f 463/463 453/453 455/455
f 463/463 455/455 464/464
f 742/742 741/741 744/744
f 743/743 749/749 740/740
f 254/254 255/255 256/256
f 263/263 254/254 264/264
f 743/743 742/742 745/745
f 743/743 750/750 749/749
f 743/743 745/745 746/746
f 743/743 746/746 750/750
f 653/653 654/654 655/655
f 50/50 48/48 100/100
f 100/100 48/48 89/89
f 655/655 659/659 653/653
f 659/659 660/660 653/653
f 257/257 255/255 254/254
f 291/291 261/261 263/263
f 467/467 466/466 482/482
f 467/467 464/464 466/466
f 464/464 459/459 466/466
f 101/101 100/100 89/89
f 257/257 258/258 255/255
f 263/263 257/257 254/254
f 655/655 654/654 656/656
f 655/655 656/656 659/659
f 261/261 257/257 263/263
f 455/455 459/459 464/464
f 483/483 482/482 466/466
f 654/654 658/658 657/657
f 255/255 259/259 287/287
f 255/255 287/287 286/286
f 659/659 661/661 660/660
f 455/455 454/454 456/456
f 484/484 483/483 466/466
f 657/657 656/656 654/654
f 255/255 258/258 259/259
f 466/466 459/459 461/461
f 461/461 484/484 466/466
f 103/103 50/50 100/100
f 659/659 656/656 657/657
f 657/657 661/661 659/659
f 257/257 261/261 258/258
f 456/456 454/454 457/457
f 457/457 454/454 478/478
f 261/261 262/262 258/258
f 455/455 456/456 458/458
f 484/484 461/461 462/462
f 663/663 662/662 657/657
f 657/657 662/662 661/661
f 259/259 260/260 266/266
f 258/258 260/260 259/259
f 461/461 459/459 460/460
f 461/461 460/460 462/462
f 103/103 100/100 102/102
f 100/100 101/101 102/102
f 101/101 120/120 104/104
f 266/266 289/289 259/259
f 261/261 268/268 262/262
f 458/458 459/459 455/455
f 101/101 104/104 102/102
f 459/459 458/458 460/460
f 456/456 457/457 458/458
f 458/458 457/457 475/475
f 474/474 458/458 475/475
f 384/384 379/379 380/380
f 384/384 383/383 379/379
f 382/382 379/379 383/383
f 377/377 379/379 382/382
f 368/368 374/374 375/375
f 382/382 381/381 377/377
f 462/462 460/460 487/487
f 378/378 380/380 379/379
f 377/377 378/378 379/379
f 374/374 368/368 373/373
f 260/260 258/258 265/265
f 258/258 262/262 265/265
f 460/460 458/458 474/474
f 372/372 375/375 385/385
f 381/381 371/371 377/377
f 381/381 370/370 371/371
f 372/372 368/368 375/375
f 377/377 376/376 378/378
f 371/371 376/376 377/377
f 373/373 368/368 370/370
f 474/474 490/490 460/460
f 487/487 460/460 490/490
f 369/369 376/376 371/371
f 369/369 371/371 370/370
f 368/368 372/372 369/369
f 368/368 369/369 370/370

